<?xml version="1.0" encoding="utf-8"?>
<!-- Generator: Adobe Illustrator 26.2.1, SVG Export Plug-In . SVG Version: 6.00 Build 0)  -->
<svg version="1.1" xmlns="http://www.w3.org/2000/svg" xmlns:xlink="http://www.w3.org/1999/xlink" x="0px" y="0px"
	 viewBox="0 0 1836 1150" style="enable-background:new 0 0 1836 1150;" xml:space="preserve">
<style type="text/css">
	.Plinth{fill:#C2F4FE;}
	.Grass{fill:#369956;}
	.Building{fill:#0087A2;stroke:#FFF0AD;stroke-width:1.4173;stroke-miterlimit:10;}
	.Path_base{fill:#FFF0AD;}
	.PassThrough{opacity:0.8;fill:#FFF0AD;}
	.PassThrough_x0020_2{opacity:0.8;fill:#FFF0AD;}
	.st0{display:none;}
	.st1{display:inline;fill:none;stroke:#000000;stroke-width:2.8346;stroke-miterlimit:10;}
	.st2{fill:#FFF0AD;}
	.st3{fill:#369956;}
	.st4{fill:#C2F4FE;}
	.st5{fill:#DC281E;stroke:#000000;stroke-width:1.4173;stroke-miterlimit:10;}
	.st6{fill:#0087A2;stroke:#FFF0AD;stroke-width:1.4173;stroke-miterlimit:10;}
	.st7{opacity:0.5;}
	.st8{opacity:0.5;fill:#FFF0AD;}
	.st9{display:inline;}
	.st10{font-family:'Calibri-Bold';}
	.st11{font-size:16px;}
	.st12{font-family:'MyriadPro-Regular';}
	.st13{font-size:29px;}
	.st14{display:inline;fill:#C2F4FE;}
	.st15{display:inline;fill:#0087A2;stroke:#FFF0AD;stroke-width:1.4173;stroke-miterlimit:10;}
	.st16{display:inline;fill:#FFF0AD;}
	.st17{display:inline;fill:#369956;}
	.st18{display:inline;fill:#FFFFFF;stroke:#000000;stroke-width:0.6;stroke-miterlimit:10;}
	.st19{font-size:32px;}
	.st20{fill:#FFFFFF;stroke:#000000;stroke-width:0.6;stroke-miterlimit:10;}
	.st21{font-size:24px;}
	.st22{display:inline;fill:#FFFFFF;stroke:#000000;stroke-width:1.4173;stroke-miterlimit:10;}
	.st23{font-size:64px;}
</style>
<g id="Background" class="st0">
	<rect class="st1" width="1836" height="1150"/>
</g>
<g id="Outside_Details">
	<g id="Path">
		<path class="st2" d="M352.3,813.9l0.1-22.7h2.9v24.5l794.4,298.8l41.5,14.1l103.3-1.9l93.7-60l33.9-28.7c0,0,44.3,6.5,54.5,8.6
			c29.1,6,77.6,24.2,77.6,24.2l15-39.8l52.9,19.2L1798,570l-222.9-158.3l-47.1-43.9l-66.9-28.7l-75.8-24.3L979.4,196l-26.2,88.4
			L908,266.9l-30.9-11.1L781.8,202l-21.2,59.8l-95.7-5l-1.4-3.2l-25.3-4.1l6.1-180.3l-22.3-7l-3.5,17.7L385.6,69l-0.3,4.9L352.9,73
			v8l32.1,1.6v17.9l-151.4-3.3l-0.1,30.7l18.3,1.1l-5.1,137l-145.4-5.4l-3.2,72.4l-79.3-3.3l-1.7,23.8l79.3,2.4l-4.2,82.1l111.3,4.6
			l70.3,59l-3.1,89.9l66.9,177.8l-19.5,32.5L352.3,813.9z"/>
	</g>
	<g id="Astro">
		
			<rect x="399.3" y="126.5" transform="matrix(6.038495e-02 -0.9982 0.9982 6.038495e-02 270.2279 584.0446)" class="st3" width="92" height="44"/>
		
			<rect x="443.3" y="129.1" transform="matrix(6.038495e-02 -0.9982 0.9982 6.038495e-02 308.8434 630.3806)" class="st3" width="92" height="44"/>
		
			<rect x="487.2" y="131.8" transform="matrix(6.038495e-02 -0.9982 0.9982 6.038495e-02 347.4589 676.7167)" class="st3" width="92" height="44"/>
	</g>
	<g id="Plinths">
		
			<rect x="604.3" y="497" transform="matrix(6.038495e-02 -0.9982 0.9982 6.038495e-02 59.103 1147.8793)" class="st4" width="70" height="91"/>
		<polygon class="st4" points="620.9,785 621.9,774 593.9,773 588.6,872 616.9,874 617.9,850 627,850.3 626.3,862.3 667.1,851.1 
			663.1,916.6 579.9,887 580.9,831 561.1,830.3 560.9,817 563.9,817 566.4,809.6 574.7,804.1 574.9,796 583.9,796 585.9,761 
			594.9,761 595.7,752 570.2,750.5 572.7,709.8 675.2,716 673.2,749.9 637.7,756.8 635.9,785.7 		"/>
		<polygon class="st4" points="367.4,204.2 366.7,233.2 307.7,231.9 308.4,202.9 317.4,203.1 317.2,211.1 358.2,212 358.4,204 		"/>
		<polygon class="st4" points="1324.6,374.4 1338.9,394.8 1258.7,370.2 1261.8,360.4 1264,361 1278.2,314.8 1339.9,333.1 
			1339.9,333.2 1361.7,339.9 1361.7,339.8 1368.2,341.7 1323.6,373 		"/>
		<polygon class="st4" points="1364.5,343.2 1342.7,336.6 1342.7,336.4 1364.6,343.1 		"/>
		<polygon class="st4" points="1303.9,981.4 1300.3,997.9 1282.6,1005.3 1265.5,999 1258.8,1001.7 1254.6,990.9 1267.3,985.6 
			1251.2,948.6 1271.2,938.1 1283.8,940.6 1276.2,975.4 		"/>
		<polyline class="st4" points="1224,1029.6 1194.3,1079.3 1149.6,1114.5 1187.8,1128.1 1221.2,1129.1 1223.4,1093.2 1272.6,1091.2 
			1265,1068.7 1243.8,1077.3 1224,1029.6 		"/>
		<path class="st4" d="M1112.6,997.4"/>
		<polygon class="st4" points="1205,852.1 1187.3,929.3 1170.2,925.3 1176.6,897.3 1184.9,899.2 1189.8,878.1 1182.4,876.4 
			1188.9,848.4 		"/>
		<polygon class="st4" points="1209.9,947 1188.9,1034 1124.9,1073 1027.9,1047 1035.9,1008 1114.6,1025.2 1117.3,1018.1 
			1120.8,1013.3 1124.2,1010.2 1127.9,1007.8 1134.2,1005.4 1141.7,1004.7 1144.9,1005.1 1151.9,1007.4 1168.9,940 		"/>
		<polygon class="st4" points="351,475.6 350.7,485.8 302.5,484.7 302.8,474.7 311.3,475 311.1,479.8 341.9,480.6 341.9,475.3 		"/>
	</g>
	<g id="Gates">
		<polygon class="st5" points="356.9,779.3 345.3,778.1 338.5,768.3 336,772.4 342.8,783.8 356.6,784.6 		"/>
		
			<rect x="40.9" y="339.1" transform="matrix(-6.038495e-02 0.9982 -0.9982 -6.038495e-02 393.7961 314.44)" class="st5" width="16" height="7"/>
		
			<rect x="1362" y="329.1" transform="matrix(0.7682 -0.6402 0.6402 0.7682 106.0708 957.1825)" class="st5" width="26" height="6"/>
		
			<rect x="1682.9" y="422.3" transform="matrix(0.9278 0.3731 -0.3731 0.9278 280.9673 -600.9955)" class="st5" width="20.2" height="6"/>
		
			<rect x="1156.8" y="1118.4" transform="matrix(0.94 0.3411 -0.3411 0.94 452.6105 -331.7518)" class="st5" width="26" height="6"/>
		<polygon class="st5" points="1462.4,1038.9 1436.7,1035.5 1435.9,1041.5 1461.7,1044.8 1462.4,1038.9 		"/>
		<rect x="619" y="62.7" transform="matrix(0.94 0.3411 -0.3411 0.94 60.2926 -211.6351)" class="st5" width="26" height="6"/>
	</g>
	<g id="Geens">
		<polygon id="LibrarySquaureNorth" class="st3" points="557.9,291 551.9,371 407.9,360 407.9,353 374.9,353 379.9,278 		"/>
		<polygon id="LibrarySquareSouth" class="st3" points="550.9,382 544.9,466 366.9,452 372.9,379 405.9,383 406.9,371 		"/>
		
			<rect id="NewSquare" x="671.6" y="295.3" transform="matrix(6.038495e-02 -0.9982 0.9982 6.038495e-02 309.4152 1131.322)" class="st3" width="168" height="212"/>
		
			<rect id="RubricsLawn" x="534.4" y="373.6" transform="matrix(6.038495e-02 -0.9982 0.9982 6.038495e-02 188.7932 984.701)" class="st3" width="166" height="37"/>
		<polygon id="FellowsSquare" class="st3" points="565.8,567.5 562.2,635.4 548.5,648.7 397.7,640.8 384.4,626.1 388,558.2 
			402.5,549.9 553.3,557.8 		"/>
		<polygon id="RoseGarden" class="st3" points="926.6,526.6 922.7,590.6 871.3,587.4 874.9,516.6 893.9,517.4 893.9,525 		"/>
		<polygon id="MuseumGreen" class="st3" points="858.5,545.3 856,586.7 849.1,586.3 848.4,602 689.7,594 689.7,587.8 831.5,595.3 
			834.6,543.9 		"/>
		<path id="RugbyPitch" class="st3" d="M1286.2,471.1l-20.6,160.5l-344.4-20.8l13.2-217.6l248.5,15l85,32.4
			C1280.4,445.4,1287.9,458,1286.2,471.1z"/>
		<path id="CricketPitch" class="st3" d="M1176,836.7c0,0-37,149-38.6,151c-3.9,4.7-9.4-1.9-19.4,5c-9.4,6.4-5.3,15.7-10.5,16.6
			c-8.8,1.5-367.1-98.3-370-100c-9.5-5.7-29.6-17.8-30.9-31.5l-3.4-36c-2.1-21.8,9.4-125.6,17.6-143c0.9-2,2.4-6.1,3.4-8.1
			c15.9-32.9,39.3-63.8,75.9-63.4l234,13.3c64.1-1.9,191.5,49.2,158.5,197.6C1192.6,838.1,1180.9,837,1176,836.7z"/>
		<path id="FitzgeraldLawn" class="st3" d="M1386.6,656.5l-5.2,73.8c-0.9,14.8-4.9,22.5-19.7,21.6l-46-0.8c-16.7-1-37-14.4-36-31.1
			l5.2-68.2c0.2-3.6,3.3-6.3,6.9-6.1l86.9,1.9C1383.2,647.8,1386.9,651.9,1386.6,656.5z"/>
		<polygon id="STEMTriangle" class="st3" points="1262.1,644.3 1251.3,714.8 1139.6,636.9 		"/>
		<path id="PavGreen" class="st3" d="M1245,729.7l-13,114.3c-0.1,1.1-1.2,1.9-2.3,1.6l-13.8-3.9c-1-0.3-1.6-1.2-1.5-2.3l4.2-43.3
			c3-30.6-6.5-61.1-26.2-84.7l-44.2-52.8c-0.3-0.3-0.4-0.8-0.4-1.2c0-0.6,0.5-1,1-0.9c0.2,0,0.4,0.1,0.5,0.2l92.9,66.6
			C1244.2,724.7,1245.3,727.2,1245,729.7z"/>
		<path id="ChemistryLawnNorth" class="st3" d="M1298,776.8l-6.4,28.6c-0.3,1.5-2.3,1.8-3,0.4l-21.7-42c-0.7-1.4,0-3,1.5-3.5
			l7.6-2.3c2.6-0.8,5.4-0.2,7.4,1.6l12.8,11.2C1297.7,772.3,1298.5,774.6,1298,776.8z"/>
		<path id="ChemistryLawnSouth" class="st3" d="M1288.2,835.7l-10.9,56.1c-0.8,4.3-5.1,7.1-9.4,6.1l-16.7-4c-4-1-6.6-4.8-6-8.9
			l13.7-95.1c0.3-2,3-2.6,4.1-0.8l24.3,40.5C1288.3,831.3,1288.7,833.6,1288.2,835.7z"/>
		<polygon id="PhysicsGarden" class="st3" points="1646.5,530.3 1638.2,553.9 1613.8,545 1622.4,521.5 		"/>
		<path id="BerkeleyTriangle" class="st3" d="M734.5,634.3l-27,36.1c-1.4,1.9-4.5,0.7-4.2-1.7l5.4-38.5c0.2-1.8,1.8-3.1,3.6-2.9
			l19.5,1.2C734.7,628.6,736.2,632,734.5,634.3z"/>
		<polygon id="FrontSquareNorth" class="st3" points="218.3,310.8 216.3,343.6 132.1,338.5 135.5,281.5 189.1,284.8 		"/>
		<polygon id="FrontSquareSouth" class="st3" points="214.2,362.7 212.2,395 181.1,420.5 128,417.3 131.6,357.7 		"/>
		<path id="FrontGateSouth" class="st3" d="M63.1,387.8l-3.4,56.9c0,0-9.9-0.4-9.9-0.6c0-15.7-15.5-36-22.3-48.2
			c-6.4-11.5-11.2-29.3-10.4-42.4l34,0.9L50.4,366l6,0.4l-1.3,21L63.1,387.8z"/>
		
			<rect id="MuseumGreen_00000121248536888250217750000009003279359163724441_" x="836" y="514.5" transform="matrix(6.038495e-02 -0.9982 0.9982 6.038495e-02 270.4843 1340.2615)" class="st3" width="22.4" height="24"/>
		
			<rect id="MuseumGreen_00000141454140161272480720000009778843890810876593_" x="1308.8" y="506" transform="matrix(6.038495e-02 -0.9982 0.9982 6.038495e-02 713.38 1805.6635)" class="st3" width="14" height="35.8"/>
		
			<rect id="MuseumGreen_00000149355226141529615240000010937242511320182417_" x="1304.4" y="539.5" transform="matrix(6.038495e-02 -0.9982 0.9982 6.038495e-02 678.0847 1835.233)" class="st3" width="18.8" height="35.8"/>
		
			<rect id="MuseumGreen_00000154401294862459221800000016754453171818404748_" x="1341.8" y="533.2" transform="matrix(6.038495e-02 -0.9982 0.9982 6.038495e-02 728.0235 1875.7015)" class="st3" width="37" height="35.8"/>
		
			<rect id="MuseumGreen_00000164490650227244030130000008054127395159395508_" x="1381.8" y="551.7" transform="matrix(6.038495e-02 -0.9982 0.9982 6.038495e-02 753.7993 1917.337)" class="st3" width="27" height="13.1"/>
		
			<rect id="MuseumGreen_00000122701544101377710540000005040047129131666108_" x="1391.8" y="526.6" transform="matrix(6.038495e-02 -0.9982 0.9982 6.038495e-02 779.9739 1894.8641)" class="st3" width="9.3" height="13.1"/>
		<polyline class="st3" points="1403.9,914.4 1399.7,936.3 1358.6,926.7 1363.4,905.1 1403.9,914.4 		"/>
		<polygon class="st3" points="1295.3,897.9 1291.9,910.4 1347,923.7 1352,903.4 1321.1,896.5 1319.6,903.2 		"/>
		<polygon id="PhysicsGarden_00000150810333961823522750000006224888284658277036_" class="st3" points="1629.5,567.3 1609,626 
			1612.1,561.5 		"/>
		<path id="MuseumGreen_00000165207206647439099320000011906872812455462831_" class="st3" d="M1120.7,382.7c1.4,0.4,1.9,2,1.1,3.2
			c-0.9,1.3-3,2.7-3.9,2.7c-20.2-0.1-81.8-16.7-81.8-16.7c-1.3-0.3-4-2.7-4-5.6c0-1.5,1.1-4.3,1.9-5.6c1.2-2,5.4-2.8,7.3-2.2
			L1120.7,382.7z"/>
		<path id="MuseumGreen_00000142170949827653298740000013105408768512756096_" class="st3" d="M1332.3,578.5l-0.4,10.6l-34-1.2
			l-1.6,31l34,1.8l-0.4,7.9l-33.6-1.7c-5.4-0.3-9.5-4.9-9.1-10.3l1.9-28.6c0.4-5.7,5.2-10.1,10.9-10L1332.3,578.5z"/>
		<path id="FrontGateSouth_00000155864499942662753250000008164780980227507089_" class="st3" d="M67.6,302.2l2.9-53.5
			c0,0-10.7-0.6-10.7-0.4c-1.5,15.6-15.5,24.5-23.4,36c-7.4,10.8-17.1,32.3-17.5,45.4l34.2,2l0.4-7.9l6,0.3l1.2-22H67.6z"/>
	</g>
</g>
<g id="TestPolygon">
	
		<rect x="674" y="247.7" transform="matrix(5.234005e-02 -0.9986 0.9986 5.234005e-02 380.1665 944.0732)" class="st6" width="27" height="48"/>
	
		<rect x="719.4" y="252.6" transform="matrix(5.234005e-02 -0.9986 0.9986 5.234005e-02 420.8477 991.7054)" class="st6" width="27" height="43"/>
	
		<rect x="768.9" y="248.7" transform="matrix(5.234005e-02 -0.9986 0.9986 5.234005e-02 465.1053 1043.525)" class="st6" width="27" height="56"/>
	
		<rect x="817.8" y="258.3" transform="matrix(5.234005e-02 -0.9986 0.9986 5.234005e-02 508.9158 1094.8212)" class="st6" width="27" height="42"/>
	
		<rect x="861.8" y="258.6" transform="matrix(5.234005e-02 -0.9986 0.9986 5.234005e-02 548.2559 1140.8831)" class="st6" width="27" height="46"/>
	
		<rect x="883.9" y="319.1" transform="matrix(5.234005e-02 -0.9986 0.9986 5.234005e-02 536.6338 1237.6199)" class="st6" width="73" height="34"/>
	
		<rect x="876.5" y="390.4" transform="matrix(5.234005e-02 -0.9986 0.9986 5.234005e-02 456.7017 1304.077)" class="st6" width="78" height="42"/>
	
		<rect x="875" y="470.9" transform="matrix(5.234005e-02 -0.9986 0.9986 5.234005e-02 377.5109 1373.522)" class="st6" width="75" height="34"/>
	<polygon class="st6" points="1149.1,242.7 1138,280 1100.3,268.8 1106.8,246.8 1111.4,231.5 	"/>
	<polygon class="st6" points="1111.2,231.4 1106.6,246.8 1100.1,268.7 1062.6,257.6 1062.4,257.5 1064.4,250.9 1073.4,220.4 
		1073.5,220.2 	"/>
	<polygon class="st6" points="1064.4,250.9 1062.4,257.5 1062.6,257.6 1062.6,257.8 1051.6,254.5 1048.1,253.5 1048.9,250.8 
		1049.6,248.5 1059.2,216.1 1073.4,220.4 	"/>
	<polygon class="st6" points="1051.6,254.5 1042,286.8 987.3,270.6 994.7,245.8 996.5,239.8 1012.4,244.3 1014.2,237.9 
		1049.6,248.5 1048.9,250.8 1048.1,253.5 	"/>
	<polygon class="st6" points="1023.5,207 1014.2,237.9 1012.4,244.3 996.5,239.8 996,239.7 1006.5,202.6 	"/>
	<polygon class="st6" points="1171,250 1170,253.4 1148.2,326.5 1148.2,326.5 1128.2,320.6 1150.7,244.9 1150.9,244 1170.8,249.9 	
		"/>
	<polygon class="st6" points="1188.4,255.1 1186.7,260.9 1165.7,331.7 1148.2,326.5 1148,326.4 1169.7,253.3 1170.8,249.9 
		1170.8,249.9 	"/>
	<polygon class="st6" points="1207.2,260.9 1204.8,268.9 1184.5,337.4 1184.5,337.4 1165.9,331.9 1186.9,261 1188.6,255.4 	"/>
	<polygon class="st6" points="1225.1,266.2 1222,276.6 1202.4,342.6 1202.4,342.7 1184.5,337.4 1204.8,268.9 1207.2,260.9 
		1207.2,260.8 1224.9,266.1 	"/>
	<polygon class="st6" points="1243.3,271.4 1239.5,284.3 1234.5,301.1 1220.6,348 1202.4,342.6 1202.2,342.5 1221.8,276.5 
		1224.9,266.1 1224.9,266 1243.1,271.4 	"/>
	<polygon class="st6" points="1261.3,276.4 1256.6,291.9 1252.4,306.4 1234.5,301.1 1234.3,301 1239.3,284.2 1243.1,271.4 
		1243.2,271 	"/>
	<polygon class="st6" points="1279.5,281.7 1279.5,281.7 1274.2,299.7 1270.6,311.7 1270.6,311.7 1252.5,306.3 1256.8,292 
		1261.5,276.3 	"/>
	<polygon class="st6" points="1296.2,286.7 1290.2,306.8 1287.3,316.5 1287.3,316.6 1276.3,313.4 1270.6,311.7 1270.2,311.5 
		1273.8,299.6 1279.1,281.6 1279.5,281.7 	"/>
	<polygon class="st6" points="1313.5,291.7 1306.8,314.2 1304.6,321.6 1304.6,321.7 1287.5,316.6 1290.4,306.9 1296.4,286.7 
		1313.1,291.6 	"/>
	<polygon class="st6" points="1332.5,297.3 1325.1,322.3 1323.6,327.2 1304.6,321.6 1304.3,321.5 1306.5,314.1 1313.1,291.6 
		1313.2,291.5 	"/>
	<polygon class="st6" points="1349,302.3 1341,329.4 1340.2,332.1 1324.1,327.3 1325.5,322.5 1333,297.5 	"/>
	<polygon class="st6" points="1371,309 1362.2,338.8 1362.1,338.9 1340.2,332.4 1340.3,332.3 1341.1,329.5 1349.2,302.5 	"/>
	<polygon class="st6" points="1371.8,420 1348.5,436.6 1348.4,436.3 1371.7,419.7 	"/>
	<polygon class="st6" points="1278.4,314.5 1264.6,360.9 1262.4,360.2 1233.9,351.7 1247.7,305.4 1276.2,313.8 	"/>
	<polygon class="st6" points="1412.3,807.6 1401,861.3 1400.9,861.3 1412.2,807.6 	"/>
	<polygon class="st6" points="1412.3,807.6 1401,861.3 1400.9,861.3 1412.2,807.6 	"/>
	<polygon class="st6" points="1717.3,705.3 1682.6,801.4 1682.5,801.6 1682.4,801.5 1682.3,801.5 1633.2,783.8 1577.9,763.8 
		1577.9,763.6 1633.3,783.6 1682.4,801.3 1717.1,705.2 1717.2,705.2 	"/>
	<polygon class="st6" points="1616.3,983.6 1616.3,983.6 1567.5,966 1567.5,966 	"/>
	<polygon class="st6" points="1682.4,801.3 1682.3,801.5 1633.2,783.8 1633.3,783.6 	"/>
	<polygon class="st6" points="1682.8,801.5 1657.8,870.8 1654.1,881 1653.8,880.9 1653.7,880.9 1657.3,870.6 1682.3,801.5 
		1633.2,783.8 1577.9,763.8 1577.9,763.6 1633.3,783.6 1682.4,801.3 1682.5,801.4 1682.6,801.4 	"/>
	<polygon class="st6" points="1616.3,983.6 1616.3,983.6 1567.5,966 1512.2,946 1512.2,946 1567.5,966 	"/>
	<polygon class="st6" points="1616.3,983.6 1616.3,983.6 1567.5,966 1512.2,946 1512.2,946 1567.5,966 	"/>
	<polygon class="st6" points="1747.9,701.2 1683.3,880 1654.6,959.5 1621.4,1051.6 1595.5,1042.2 1628.8,950.2 1653.8,880.9 
		1657.5,870.7 1682.5,801.4 1722,692 	"/>
	<line class="Building" x1="2217.4" y1="570" x2="2217.3" y2="569.6"/>
	<polygon class="st6" points="1049.3,248.2 1014.8,237.4 1023.4,206.8 1059,215.7 	"/>
	<polygon class="st6" points="1284.2,1091.2 1196.4,1094.5 1196.4,1107.5 1189.4,1107.5 1189.4,1128.5 1220.4,1130.5 1252.1,1130.5 
		1294.4,1126.7 	"/>
</g>
<g id="Buildings">
	<g id="Moyne">
		<polygon class="st6" points="1210.6,947.4 1189.4,1034.5 1167.4,1049.5 1178.4,1071.5 1152.4,1086.5 1138.9,1065.7 1125.4,1073.5 
			1027.3,1046.8 1034.2,1015.6 1118.2,1034.2 1118.2,1033.7 1118.8,1029.7 1121.2,1023.4 1124.3,1019.1 1127.4,1016.3 
			1130.6,1014.2 1136.2,1012 1142.9,1011.4 1145.8,1011.8 1152,1013.8 1157.5,1017.5 1177.4,940.5 		"/>
	</g>
	<g id="Berkeley_Library">
		
			<rect x="565.6" y="602" transform="matrix(5.234005e-02 -0.9986 0.9986 5.234005e-02 -43.7765 1245.9331)" class="st6" width="138" height="88"/>
	</g>
	<g id="Ussher_Library">
		<polygon class="st6" points="678.2,748.8 672.9,849.4 665.8,851.4 625.2,862.9 625.8,851 617.8,850.5 616.6,874.5 587.6,873 
			592.8,773.1 621.8,774.6 621.2,785.6 634.2,786.3 635.7,757.3 671.1,750.2 		"/>
	</g>
	<g id="TRLH">
		
			<rect x="304.8" y="559.3" transform="matrix(5.234005e-02 -0.9986 0.9986 5.234005e-02 -305.3969 898.6804)" class="st6" width="32" height="102"/>
	</g>
	<g id="Old_Library">
		
			<rect x="459.4" y="398.7" transform="matrix(5.234005e-02 -0.9986 0.9986 5.234005e-02 -53.072 973.4175)" class="st6" width="54" height="232"/>
	</g>
	<g id="_x31_937">
		<polygon class="st6" points="355.3,513 352,574.9 290.1,571.7 293.3,509.8 300.3,510.1 301.7,484 351.7,485.8 350.3,512.8 		"/>
	</g>
	<g id="GMB">
		<polygon class="st6" points="524.9,218.5 522.5,263.4 497.5,262.1 497.2,269.1 451.2,266.7 451.6,259.7 429.6,258.6 432,213.6 
			454,214.8 454.2,209.8 500.2,212.2 499.9,217.2 		"/>
	</g>
	<g id="Arts_00000096752981032805663940000000317167164447212203_">
		<polygon class="st6" points="596.1,761.4 586.7,760.9 585.4,796.6 576.5,796.1 576.1,802.1 567.8,807.7 564.3,817.5 524.8,815.4 
			516.8,826 483.6,824.3 466,802.3 461.7,808.1 432.6,807.1 427.1,799.3 420.1,798.9 413.5,791.6 355.5,789.5 355.9,781.5 
			343.9,780.9 340.9,775.5 340.9,775.5 337.5,769.6 325.5,768.9 322.8,763.8 266.9,760.9 267.3,752.5 259.3,752.5 253.7,744.1 
			243.7,743.6 244.3,732.7 268.3,733.9 269,720.9 277.9,721.4 281,624.4 365.8,628.9 363.4,675 381.1,675.9 381.7,664.5 
			415.1,665.5 414.4,677.7 435.8,678.8 436.9,658.5 575.6,664 571.2,748.6 596.7,749.9 		"/>
	</g>
	<g id="Exam_Hall">
		<polygon class="st6" points="204.7,419.9 225.6,421 226.1,413 266,415.2 265.6,423.2 285.5,424.3 281.5,502 261.5,501.1 
			261.4,502.1 260.9,504.2 259.6,507 257.4,509.9 254.7,512.2 252,513.8 248.9,514.9 245.5,515.8 242.3,516 239,515.7 235.7,515.1 
			232.6,514 229.7,512.6 227.2,510.7 225.1,508.5 223.5,506.1 222.3,503.3 221.6,498.9 221.7,495.9 222.7,477.9 201.7,476.8 		"/>
	</g>
	<g id="Regent_House">
		<polygon class="st6" points="114.4,327 112.2,368.9 104.2,368.5 103.1,389.5 56.2,387 57.3,366.1 51.3,365.8 53.5,323.8 
			59.5,324.1 60.6,302.2 107.6,304.6 106.4,326.6 		"/>
	</g>
	<g id="Chapel">
		<polygon class="st6" points="296.4,218.4 292.4,294.3 271.4,293.2 271.1,300.2 232.1,298.2 232.5,291.2 214.5,290.2 217.5,233.3 
			235.5,234.3 237.7,192.3 248.9,182.2 265.4,183 275.6,194.4 275.4,217.3 		"/>
	</g>
	<g id="Buttery">
		<polygon class="st6" points="403.3,108.2 400.9,196.2 383.9,195.7 383.6,205.7 359.6,205 361.7,131.1 320.7,129.9 321.6,98.9 
			386.5,100.7 386.3,107.7 		"/>
	</g>
	<g id="Atrium">
		<polygon class="st6" points="321.6,98.9 318.6,203.9 289.6,203.1 290.3,178.1 263.3,177.3 265,117.5 242,117.5 242.6,97.3 		"/>
	</g>
	<g id="Museum_Building">
		
			<rect x="721.3" y="479.1" transform="matrix(5.234005e-02 -0.9986 0.9986 5.234005e-02 173.5001 1283.0525)" class="st6" width="83" height="142"/>
	</g>
	<g id="Business_School">
		<polygon class="st6" points="1563.8,461.6 1480.9,457.3 1473,447.7 1336.5,440.6 1359.8,424 1359.7,423.7 1337.8,393 
			1323.3,372.8 1322.3,371.3 1366.6,339.7 1378.1,331.5 1384.6,314.6 1461.1,339.1 		"/>
	</g>
	<g id="Lloyd">
		<polygon class="st6" points="1595.7,504.3 1589.6,621.2 1501.7,616.6 1509,476.8 1562.9,479.6 1562.4,490.6 1580.3,491.5 
			1579.7,503.5 		"/>
	</g>
	<g id="SNIAM">
		
			<rect x="1387.4" y="509.2" transform="matrix(5.234005e-02 -0.9986 0.9986 5.234005e-02 837.7213 1971.0962)" class="st6" width="140" height="70"/>
	</g>
	<g id="Botany">
		<polygon class="st6" points="1414.4,486.8 1413.7,499.8 1404.1,510.3 1311.2,505.5 1304.8,494.1 1305.5,481.1 1313.1,470.5 
			1405.9,475.4 		"/>
	</g>
	<g id="Aras_an_Phiarsaigh">
		<polygon class="st6" points="903.9,173.2 876.6,256 831.4,241 829.3,245 827,248.3 823.6,249.4 819.5,249.2 816.9,248.8 
			812.6,247.7 808.3,246.4 804.5,245.3 802.1,245 799.9,245.2 797.6,245.7 793.3,246.9 788.1,248.4 784.9,249.1 781.4,248.7 
			775,246.6 777.4,239.7 770.9,237.7 769.5,237.3 802,139.5 		"/>
	</g>
	<g id="Samuel_Beckett_Theatre">
		<polygon class="st6" points="913.6,176.4 896.5,237 896,240.4 896.7,243.6 898.7,246 901.2,247.5 911.8,250.5 905.8,271.8 
			953.8,285.3 962.5,254.1 989.9,261.9 1006.5,202.6 		"/>
	</g>
	<g id="Science_Gallery">
		<polygon class="st6" points="1683.4,422.5 1655.4,498.5 1629.4,476.3 1562.6,413 1528,367.8 		"/>
	</g>
	<g id="Trinity_Sport_Centre">
		<polygon class="st6" points="1797.7,571.2 1814.2,499.2 1814.6,495.5 1814.5,491.2 1813.8,487.2 1812.5,483.1 1810.7,479.3 
			1808.2,475.7 1805.1,472.3 1800.9,469 1796.7,466.8 1683.4,422.5 1655.4,498.5 		"/>
	</g>
	<g id="TILDA">
		
			<rect x="1427.3" y="860.6" transform="matrix(0.206 -0.9786 0.9786 0.206 265.9199 2133.0435)" class="st6" width="40.1" height="84.1"/>
	</g>
	<g id="Chemistry">
		<polygon class="st6" points="1412.3,863.8 1401.9,913.4 1321.3,896.8 1319.9,903.4 1287.1,896.5 1288.5,889.9 1288.4,889.8 
			1310.2,786.1 1367,798.1 1367,798.1 1412.2,807.6 1400.9,861.3 1401,861.3 1400.9,861.5 		"/>
	</g>
	<g id="Anatomy">
		<polygon class="st6" points="1506.3,820.6 1499.3,854.2 1499.1,854.1 1492.3,886.3 1461.7,879.9 1468.5,847.7 1437.8,841.2 
			1432.2,867.9 1401,861.3 1412.3,807.6 1412.2,807.6 1412.3,807.1 1434.8,811.9 1437.5,760.6 1441.9,760.9 1443.2,736.9 
			1463.1,737.9 1459.3,810.7 		"/>
	</g>
	<g id="Zoology">
		
			<rect x="1393" y="709.3" transform="matrix(5.234005e-02 -0.9986 0.9986 5.234005e-02 618.7236 2112.5994)" class="st6" width="59" height="42"/>
	</g>
	<g id="Physiology">
		
			<rect x="1393" y="647.1" transform="matrix(5.234005e-02 -0.9986 0.9986 5.234005e-02 683.8907 2056.9419)" class="st6" width="65.5" height="42"/>
	</g>
	<g id="Loyola_Institute">
		
			<rect x="1478.1" y="608.9" transform="matrix(5.234005e-02 -0.9986 0.9986 5.234005e-02 762.0443 2109.2324)" class="st6" width="28.5" height="88.5"/>
	</g>
	<g id="Fitzgerald">
		<polygon class="st6" points="1408.8,593.7 1407.1,624.6 1373.2,622.9 1372.6,634.8 1329.6,632.6 1330.2,620.6 1296.3,618.8 
			1297.9,587.9 1331.9,589.7 1332.5,577.7 1375.4,579.9 1374.8,591.9 		"/>
	</g>
	<g id="Dental_School">
		<polygon class="st6" points="1439.4,1012.5 1438.4,1015.3 1435.8,1020.6 1433.5,1024.9 1429.9,1030.7 1425.2,1037.3 
			1425.2,1037.3 1423.9,1039 1421,1042.3 1418.5,1044.6 1375.1,1076.9 1329.4,1107.6 1294.4,1126.7 1294.4,1126.8 1284.2,1091.2 
			1371,1039.6 1361.7,1027.1 1346.3,1034.2 1329,993.5 1326.1,986.6 1329.9,967.6 1333.3,951.5 1429,971.7 1424.3,993.8 1440.4,993 
			1440.4,1002.8 1440,1009 1439.4,1012.5 		"/>
	</g>
	<g id="Parsons">
		<polygon class="st6" points="1346.3,1034.2 1243.2,1077.9 1223,1030.3 1236.8,1024.5 1240.1,1009.6 1257.7,1002.2 1264.3,999.4 
			1281.4,1005.6 1299.1,998.1 1302.6,981.5 1274.8,975.7 1282.2,940.9 1282.2,940.8 1287.2,941.9 1333.1,951.5 1329.9,967.6 
			1326.1,986.6 1329,993.5 		"/>
	</g>
	<g id="The_Pav">
		<polygon class="st6" points="1228.8,857.1 1211.6,934.3 1195.1,930.6 1195.1,930.7 1186,928.7 1184.7,928.4 1201.8,851.1 
			1204.2,851.6 1212.1,853.3 1212.1,853.4 		"/>
	</g>
	<g id="O_x27_Reilly">
		<polygon class="st6" points="1761.1,664.7 1747.9,701.2 1722,692 1725,682.9 1724.8,683.5 1675.8,665.8 1612.2,642.9 1638.5,570 
			1751.1,610.6 1734.9,655.5 		"/>
	</g>
	<g id="Hamilton">
		<polygon class="st6" points="1724.8,683.5 1682.4,801.3 1633.3,783.6 1577.9,763.6 1577.9,763.8 1577.7,763.7 1612.5,667.4 
			1668,687.5 1675.8,665.8 		"/>
	</g>
	<g id="Watt">
		<polygon class="st6" points="1682.3,801.5 1657.3,870.6 1653.7,880.9 1630.6,872.6 1629.4,872.1 1604.6,863.2 1549.2,843.2 
			1577.9,763.8 1633.2,783.8 		"/>
	</g>
	<g id="Panoz">
		<polygon class="st6" points="1653.8,880.9 1628.8,950.2 1628.4,950.1 1616.3,983.6 1567.5,966 1512.2,946 1540.9,866.5 
			1596.2,886.4 1621,895.4 1629.4,872.1 1630.6,872.6 1653.7,880.9 		"/>
	</g>
	<g id="Smurfit">
		<polygon class="st6" points="1616.4,983.6 1593.4,1047.5 1593,1048.5 1586,1046 1566.1,1038.8 1566.1,1038.8 1566.1,1038.8 
			1560.8,1053.5 1483.4,1025.5 1512.2,946 1512.2,946 1512.2,946 1567.5,966 1616.3,983.6 1616.3,983.6 		"/>
	</g>
	<g id="Goldsmith">
	</g>
	<g id="TBSI">
	</g>
	<g id="D_x27_Olier_Street">
	</g>
	<g id="College_Health">
		<polygon class="st6" points="1127.8,288.6 1104.8,365.9 1088,360.9 1088,361 1070.7,355.8 1070.6,356 1045.8,348.6 1068.8,271.4 
			1093.6,278.8 1076.6,335.7 1085.9,338.5 1103,281.3 		"/>
	</g>
	<g id="Red_Brick_Building">
		<polygon class="st6" points="1254.7,380.3 1254.7,380.4 1243.6,412.2 1242.7,411.9 1125.8,371.2 1136.9,339.3 		"/>
	</g>
	<g id="Simon_Perry">
		<polygon class="st6" points="1329.1,406.3 1318,438.1 1242.7,411.9 1242.7,411.9 1253.8,380.1 1254.7,380.4 		"/>
	</g>
	<g id="Mail_Centre">
		<polygon class="st6" points="1628,489 1616.6,501.2 1516.6,396.3 1529.6,386 		"/>
	</g>
	<g id="Laundrette">
		
			<rect x="230.2" y="129.6" transform="matrix(2.961317e-02 -0.9996 0.9996 2.961317e-02 95.8221 376.3373)" class="st6" width="23" height="18.3"/>
	</g>
	<g id="House_1">
		
			<rect x="165.2" y="438.3" transform="matrix(5.234005e-02 -0.9986 0.9986 5.234005e-02 -283.6443 616.7723)" class="st6" width="36" height="39"/>
	</g>
	<g id="House_2">
		
			<rect x="128.2" y="438.4" transform="matrix(5.234005e-02 -0.9986 0.9986 5.234005e-02 -316.7257 578.0384)" class="st6" width="36" height="35"/>
	</g>
	<g id="House_3">
		
			<rect x="93.2" y="436.6" transform="matrix(5.234005e-02 -0.9986 0.9986 5.234005e-02 -348.019 541.3983)" class="st6" width="36" height="35"/>
	</g>
	<g id="House_4">
		
			<rect x="55" y="431.3" transform="matrix(5.234005e-02 -0.9986 0.9986 5.234005e-02 -374.6777 501.7052)" class="st6" width="44" height="34"/>
	</g>
	<g id="House_5">
		
			<rect x="60.2" y="390.3" transform="matrix(5.234005e-02 -0.9986 0.9986 5.234005e-02 -331.7564 465.0474)" class="st6" width="38" height="34"/>
	</g>
	<g id="House_6">
		
			<rect x="73.7" y="275" transform="matrix(5.234005e-02 -0.9986 0.9986 5.234005e-02 -210.844 361.7797)" class="st6" width="23" height="34"/>
	</g>
	<g id="House_7">
		
			<rect x="59.7" y="237" transform="matrix(5.234005e-02 -0.9986 0.9986 5.234005e-02 -171.015 327.8577)" class="st6" width="55" height="34"/>
	</g>
	<g id="House_8">
		
			<rect x="104.7" y="228.4" transform="matrix(5.234005e-02 -0.9986 0.9986 5.234005e-02 -129.7002 355.0335)" class="st6" width="35" height="35"/>
	</g>
	<g id="House_9">
		
			<rect x="139.7" y="230.2" transform="matrix(5.234005e-02 -0.9986 0.9986 5.234005e-02 -98.407 391.6736)" class="st6" width="35" height="35"/>
	</g>
	<g id="House_10">
		
			<rect x="178.1" y="228.7" transform="matrix(5.234005e-02 -0.9986 0.9986 5.234005e-02 -63.9844 431.9778)" class="st6" width="35" height="42"/>
	</g>
	<g id="House_20">
		
			<rect x="353.1" y="42" transform="matrix(5.234005e-02 -0.9986 0.9986 5.234005e-02 291.8895 423.6184)" class="st6" width="32" height="32"/>
	</g>
	<g id="House_19">
		
			<rect x="393.1" y="39" transform="matrix(5.234005e-02 -0.9986 0.9986 5.234005e-02 324.971 462.3523)" class="st6" width="26" height="42"/>
	</g>
	<g id="House_18">
		
			<rect x="436" y="40.2" transform="matrix(5.234005e-02 -0.9986 0.9986 5.234005e-02 363.417 507.3673)" class="st6" width="26" height="44"/>
	</g>
	<g id="House_17">
		
			<rect x="479.5" y="43" transform="matrix(5.234005e-02 -0.9986 0.9986 5.234005e-02 402.31 552.9058)" class="st6" width="26" height="43"/>
	</g>
	<g id="House_16">
		
			<rect x="522.4" y="45.2" transform="matrix(5.234005e-02 -0.9986 0.9986 5.234005e-02 440.756 597.9208)" class="st6" width="26" height="43"/>
	</g>
	<g id="House_15">
		
			<rect x="556.8" y="52.7" transform="matrix(5.234005e-02 -0.9986 0.9986 5.234005e-02 474.2081 638.1486)" class="st6" width="33" height="33"/>
	</g>
	<g id="House_14">
		
			<rect x="591.6" y="78.5" transform="matrix(5.234005e-02 -0.9986 0.9986 5.234005e-02 481.5255 691.4603)" class="st6" width="27" height="27"/>
	</g>
	<g id="House_28">
		<polygon class="st6" points="563.1,215.5 560.1,272.4 530.1,270.8 530.5,263.8 522.5,263.4 524.9,218.5 532.8,218.9 533.1,213.9 
					"/>
	</g>
	<g id="House_30">
		<polygon class="st6" points="432,213.6 429.6,258.6 423.6,258.2 423.2,267.2 393.2,265.6 396.3,206.7 426.3,208.3 426,213.3 		"/>
	</g>
	<g id="House_11">
		
			<rect x="576" y="203.3" transform="matrix(5.234005e-02 -0.9986 0.9986 5.234005e-02 350.6678 803.2218)" class="st6" width="45" height="27"/>
	</g>
	<g id="House_12">
		
			<rect x="578.9" y="158.9" transform="matrix(5.234005e-02 -0.9986 0.9986 5.234005e-02 397.2531 763.4347)" class="st6" width="44" height="27"/>
	</g>
	<g id="House_13">
		
			<rect x="580.7" y="114.5" transform="matrix(5.234005e-02 -0.9986 0.9986 5.234005e-02 443.8384 723.6476)" class="st6" width="45" height="27"/>
	</g>
	<g id="Printing_House">
		
			<rect x="615.3" y="203.2" transform="matrix(5.234005e-02 -0.9986 0.9986 5.234005e-02 400.3642 856.2093)" class="st6" width="72" height="28"/>
	</g>
	<g id="Camponile">
		
			<rect x="376.5" y="349.4" transform="matrix(6.154656e-02 -0.9981 0.9981 6.154656e-02 0.763 735.5532)" class="st6" width="30" height="36"/>
	</g>
	<g id="House_22">
		
			<rect x="565.6" y="450.5" transform="matrix(5.234005e-02 -0.9986 0.9986 5.234005e-02 87.8273 1020.5688)" class="st6" width="32" height="27"/>
	</g>
	<g id="House_23">
		
			<rect x="561.6" y="412.6" transform="matrix(5.234005e-02 -0.9986 0.9986 5.234005e-02 127.608 986.5933)" class="st6" width="44" height="27"/>
	</g>
	<g id="House_24">
		
			<rect x="563.9" y="368.6" transform="matrix(5.234005e-02 -0.9986 0.9986 5.234005e-02 173.6699 947.2532)" class="st6" width="44" height="27"/>
	</g>
	<g id="House_25">
		
			<rect x="565.8" y="324.2" transform="matrix(5.234005e-02 -0.9986 0.9986 5.234005e-02 220.2552 907.4661)" class="st6" width="45" height="27"/>
	</g>
	<g id="House_26">
		
			<rect x="574.3" y="285.7" transform="matrix(5.234005e-02 -0.9986 0.9986 5.234005e-02 260.5594 873.0435)" class="st6" width="32" height="27"/>
	</g>
	<g id="House_27">
		
			<rect x="581.6" y="240.8" transform="matrix(5.234005e-02 -0.9986 0.9986 5.234005e-02 311.4105 836.7503)" class="st6" width="30" height="27"/>
	</g>
	<g id="Dining_Hall">
		
			<rect x="299" y="151" transform="matrix(2.805052e-02 -0.9996 0.9996 2.805052e-02 159.1118 506.5598)" class="st6" width="82" height="41"/>
	</g>
</g>
<g id="Pass_throughs">
	<g id="Nassau_00000143612013384846919150000012772817565082480022_" class="st7">
		<g>
			<polygon class="st2" points="381.5,675.8 380.9,692 363.9,691 362.9,705 359.5,712.8 356.5,781.5 343.8,780.8 337.8,769.7 
				341.9,704.3 329,703.2 330.9,678 357.9,680 362.9,675 			"/>
		</g>
		<g>
			<polygon class="PassThrough" points="381.5,675.8 380.9,692 363.9,691 362.9,705 359.5,712.8 356.5,781.5 343.8,780.8 
				337.8,769.7 341.9,704.3 329,703.2 330.9,678 357.9,680 362.9,675 			"/>
		</g>
	</g>
	<g id="Front_Gate_00000125579173973280202900000018294799752062957963_" class="st7">
		<path class="PassThrough" d="M113.7,338l-0.8,16l-16-0.8c-3.1,5.2-9,8.5-15.5,8.2c-6.5-0.3-11.9-4.3-14.5-9.8l-15-0.8l0.8-16
			l15,0.8c3.1-5.2,9-8.5,15.5-8.2c6.5,0.3,11.9,4.3,14.5,9.8L113.7,338z"/>
	</g>
	<g id="SciGal_00000109708489911744457420000008128587992069535880_" class="st7">
		<g>
			<polygon id="Walk_00000091705129092324582040000012784181232489361852_" class="st2" points="1683.9,423 1655.5,498.1 
				1673.9,508 1701.9,430 			"/>
		</g>
		<g>
			<polygon id="Walk_00000159452551889950530460000010662867201335066502_" class="PassThrough" points="1683.9,423 1655.5,498.1 
				1673.9,508 1701.9,430 			"/>
		</g>
	</g>
	<g id="Berkeley_Toilets" class="st7">
		<g>
			<polygon class="st2" points="682.1,579 680.9,599 662.9,598 663.5,578.2 			"/>
		</g>
		<g>
			<polygon class="PassThrough_x0020_2" points="682.1,579 680.9,599 662.9,598 663.5,578.2 			"/>
		</g>
	</g>
	<g id="Hamilton_00000028316729968966869160000007310470000274730917_">
		<polygon class="st8" points="1623.9,672 1559.9,847 1548.9,843 1612.7,667.9 		"/>
		<polygon class="st8" points="1552,870.9 1494.9,1030 1483.9,1026 1540.8,866.8 		"/>
	</g>
</g>
<g id="Text" class="st0">
	<text transform="matrix(0.9639 0.2663 -0.2663 0.9639 1710.7449 422.6906)" class="st9 st10 st11">Goldsmith Hall, Pearse Street</text>
	<text transform="matrix(1 0 0 1 1847.1309 1042.0869)" class="st9 st10 st11">Nursing Building, D’Olier Street</text>
	<text transform="matrix(0.9639 0.2663 -0.2663 0.9639 1973.72 494.2797)" class="st9 st10 st11">TBSI + Trinity Central, Pearse Street</text>
</g>
<g id="Illustration" class="st0">
	<text transform="matrix(1 0 0 1 1375.2079 172.5549)" class="st9 st12 st13">Path</text>
	<text transform="matrix(1 0 0 1 1373.0853 113.5549)" class="st9 st12 st13">Building</text>
	<text transform="matrix(1 0 0 1 1380.5215 49.1304)" class="st9 st12 st13">Grass</text>
	<g class="st9">
		<text transform="matrix(1 0 0 1 1377.1708 233.5549)" class="st12 st13">Plinth</text>
	</g>
	<rect x="1281.5" y="205.3" class="st14" width="76.5" height="45.5"/>
	<rect x="1280.4" y="74.5" class="st15" width="76.5" height="45.5"/>
	<rect x="1279.5" y="144.3" class="st16" width="76.5" height="45.5"/>
	<rect id="_x3C_Path_x3E_" x="1278.4" y="19" class="st17" width="77.5" height="46"/>
</g>
<g id="Little_Text" class="st0">
	<text transform="matrix(1 0 0 1 160.1738 760.1738)" class="st18 st10 st19">Arts Building</text>
	<g class="st9">
		<text transform="matrix(1 0 0 1 402.2345 659.0472)"><tspan x="0" y="0" class="st20 st10 st21">Berkeley</tspan><tspan x="0" y="28.8" class="st20 st10 st21">Library</tspan></text>
	</g>
	<g class="st9">
		<text transform="matrix(1 0 0 1 416.2481 828.3098)"><tspan x="0" y="0" class="st20 st10 st21">Ussher</tspan><tspan x="0" y="28.8" class="st20 st10 st21">Library</tspan></text>
	</g>
	<g class="st9">
		<text transform="matrix(1 0 0 1 248.5424 711.4678)" class="st20 st10 st21">Lecky Library</text>
	</g>
	<text transform="matrix(1 0 0 1 94.0434 651.6953)" class="st18 st10 st21">TLRH</text>
	<text transform="matrix(1 0 0 1 236.4017 543.7094)" class="st18 st10 st21">Old Library</text>
	<text transform="matrix(1 0 0 1 100.3717 574.8833)" class="st18 st10 st21">1937</text>
</g>
<g id="Big_Text" class="st0">
	<text transform="matrix(1 0 0 1 156.5654 673.9961)" class="st22 st10 st23">Arts Block</text>
	<text transform="matrix(1 0 0 1 -96.3313 406.8503)" class="st22 st10 st23">Front Square</text>
	<text transform="matrix(1 0 0 1 150.4462 172.54)" class="st22 st10 st23">Botany Bay</text>
	<text transform="matrix(1 0 0 1 416.0901 417.1814)" class="st22 st10 st23">New Square</text>
	<text transform="matrix(1 0 0 1 1257.2933 775.1816)" class="st22 st10 st23">East End</text>
	<text transform="matrix(1 0 0 1 1163.1528 365.1814)" class="st22 st10 st23">Business School</text>
	<text transform="matrix(1 0 0 1 715.5747 264.1816)" class="st22 st10 st23">Pearse Street</text>
	<text transform="matrix(1 0 0 1 608.6152 802.1799)" class="st22 st10 st23">Cricket Pitch</text>
	<text transform="matrix(1 0 0 1 1647.2675 494.4)" class="st22 st10 st23">Goldsmith</text>
	<text transform="matrix(1 0 0 1 2010.7178 614.05)" class="st22 st10 st23">TBSI</text>
	<text transform="matrix(1 0 0 1 1844.4133 935.7)" class="st22 st10 st23">D’Olier</text>
</g>
</svg>
