<svg xmlns="http://www.w3.org/2000/svg" width="2500" height="1150" viewBox="0 0 2500 1150"><defs><style>.Path_base{fill:#fff0ad;}.Grass{fill:#369956;}.Plinth{fill:#c2f4fe;}.cls-1{fill:#dc281e;}.cls-1,.cls-2{stroke:#000;}.Building,.cls-1,.cls-2,.cls-4,.cls-5,.cls-6,.cls-7,.cls-8{stroke-miterlimit:10;}.Building,.cls-1,.cls-6,.cls-8{stroke-width:1.42px;}.cls-2,.cls-5,.cls-6,.cls-8{fill:none;}.cls-2{stroke-linecap:square;stroke-dasharray:12;}.cls-3{opacity:0.06;}.Building,.cls-4,.cls-7{fill:#0087a2;}.Building,.cls-8{stroke:#fff0ad;}.cls-4,.cls-5,.cls-6{stroke:#0087a2;}.cls-4,.cls-7{opacity:0.2;}.cls-5{stroke-width:1.42px;}.cls-7{stroke:#333;}.cls-9{font-size:16px;font-family:Calibri-Bold, Calibri;font-weight:700;}.cls-10{letter-spacing:-0.02em;}.cls-11{letter-spacing:-0.01em;}.cls-12{letter-spacing:-0.01em;}.cls-13{letter-spacing:-0.01em;}.cls-14{letter-spacing:0.01em;}.cls-15{letter-spacing:0em;}.cls-16{letter-spacing:-0.03em;}.cls-17{letter-spacing:-0.05em;}.cls-18{letter-spacing:-0.01em;}.cls-19{letter-spacing:-0.02em;}</style></defs><g id="Outside_Details" data-name="Outside Details"><g id="Path"><path class="Path_base" d="M1727.5,460.5l-27-15-27-20-70-59.72-37-43.28-72-20,109,117h-83l-8.46-9.12H1375.43l-.18-.23,22.39-17.81-23.49-29.54-81.46-19.65,2.42-10-28.86-7,11.34-47,28.86,7,2.29.55,62.7,14.55.69-2.88-.15-.06-.66,2.74L1355,297l1.17-4.86-.43-.17-1.2,5-19.3-4.66,0,.1-17.31-4.18,2.36-9.8-.18-.06-2.37,9.84,0,.07-11.13-2.68-5.76-1.39v0l-18.34-4.43,3.5-14.5-.16-.06-3.52,14.62-18.1-4.36-11.47,47.58-18.41-4.43,0,.12-18.15-4.38v.06l-18.87-4.55L1214.58,238l-.22-.09-17.31,71.79-17.7-4.27v.06l-20.33-4.9,18.52-76.77-2.68-1-9.13,37.85-38.22-9.22,5.39-22.36-.24,0-5.36,22.23-38-9.15,0,.15-11.2-2.7-7.9,32.78L1014.79,259l6.06-25.11h-.38l-3.67,16.24-27.62-6.24-7.13,31.57-48.61-11,1.08-4.79-1-.21-35.06-9L852.56,238s-2.6,6.23-4.06,7.52c-2.26,2-7,1.29-10,1-3.81-.36-11.18-3.14-15-3-4.67.17-9,3-17,5-2.24.56-10-2-10-2l2-7L792,237.86l-5.06,14.58L732.32,233.5H689.25l-2.75,2.12V260.5h-28V248.73h-26V283.5h-27V92.67l-5,.06V99.5h-33v-4h-172v3h-16v27h21v7h17v88h-17v10h-15v29h-59v-29h-20v-25h-27v-80h-24v36h13v52.26h14l12,14.74v23h21v76h-21v7h-39v-7h-18v-22h-112v43h5v22h8v42h-8v21h-5v46h109v-21h21v-8h40v8h20v78h-6v91h102v32h-.07v46.2h17.74V694.22l33.33-.72v12.2H484V685.35l138.78-1.75v43.9H637.5v-138h-3v-29h-232v-54h232v13h91v242l7-1.8V860.5l-7,2.38v65.6l-84-23v-57h-23v-11H580l-7.46,11H539.26l-18.76-21-4,6-29.1.54-5.9-7.54h-7l-7-7-58,1v-8h-12l-3.32-5.21-33.68,33.8,908,267.41,65-2,42-6-12-35,84-56-10-12-15,7.87-100.61,49.06L1299.24,1008l13.44-6.56,2.51-15,17.14-8.36-4.83-10.54,12.33-6.07L1321.5,925.5l19.33-11.74,12.78,1.78v-.09l5,.79,46.36,7.25-2.35,16.19,2.53-16.2,96.65,15.11-3.49,22.34,16-1.67s1.22,14.83,0,19.57c-1.71,6.68-7.59,17.85-12.85,25.47,0,0,31.6-.29,42,1.2,29.41,4.2,115,30,115,30l9.81-35.14L1648,994.88v0h0l-4.06,15.08-79.4-21.39,22-81.67h0l22-81.63,56.74,15.29,25.47,6.86,6.44-23.89-25.48-6.87L1614.8,801.3l22-81.51-.16,0,26.63-98.86,57,15.36,6-22.2L1661,596.46l20.15-74.8,115.54,31.12-12.4,46.06,26.86,7,35.38-94.32Zm-1481-27-35,32h-63v-70h98Zm1-47h-99v-66h63l36,28Zm184,199,14-9h151l13,9v68l-13,14h-151l-14-14Zm6-464h132v92h-132Zm-46,479h-62v-62h7v-32h50v32h5Zm192-210h-152v7h152v89h-181v-80h-7v-30h7v-75h181Zm0-102h-30v-7h-33v7h-46v-7h-28v9h-30v-59h30v5h28v-5h46v5h33v-5h30Zm969.11,63.26,12.52-10.94,103.61,97.68L1658,451.3ZM1466.5,436.5h70v140h-70Zm-20,4,9,11v13l-9,11h-93l-7-11v-13l7-11Zm-25,149v12h-43v-12h-34v-31h34v-12h43v12h34v31Zm18,37.24v66.93a26.83,26.83,0,0,1-26.83,26.83H1364.8a30.31,30.31,0,0,1-30.3-30.3V625a6.5,6.5,0,0,1,6.5-6.5h90.26A8.24,8.24,0,0,1,1439.5,626.74ZM1169.78,323,1291,352.23v0l76.56,18.46-7.92,32.8-77.46-18.68v0l-120.31-29ZM1097,251.55l25.15,6.06-13.93,57.78,9.43,2.27,14-58,25.15,6.07L1137.87,344l-17-4.09,0,.09-17.6-4.24,0,.16-25.15-6.07ZM928.5,366.5h5v-73h34v73h3v19h246l86.83,27.24a28.69,28.69,0,0,1,20,29.28L1312.5,603.5h-345v-18h-51v-66h17v-75h-5Zm-239-103h235v27h-235Zm-20,223h-37v7h-27v-197h27v24h37Zm12,2v-168h212v168Zm52,26h142v5h24v22h-24v11h24v31h-24v14h-142Zm19.71,156.94,3-38.78a3.43,3.43,0,0,1,3.42-3.16h19.49a3.71,3.71,0,0,1,3.1,5.75L757.5,672.9A2.34,2.34,0,0,1,753.21,671.44Zm46.85,244.21-8-4.12a43.15,43.15,0,0,1-22.91-31.73l-5.55-35.74a241.58,241.58,0,0,1-1.25-65.29L765,756.25a175.69,175.69,0,0,1,15.74-54.91l3.37-7.12a99,99,0,0,1,84.81-56.52l212.95-10.05h0c68.67-5.15,167.67,61.53,167.67,138.85,0,28.62-.6,55.23-17.08,77.4h0c-7.92,30.59-24.92,127.59-24.92,127.59l-.49.41a19.51,19.51,0,0,0-29.77,21.43,1.29,1.29,0,0,1-1.51,1.59l-366.35-76A36.81,36.81,0,0,1,800.06,915.65Zm463.8,94.26-57.73,40.64-105.74-17.7,5.28-31.53,84.84,14.2c0-.17,0-.35,0-.52a23.51,23.51,0,0,1,38.4-18.18l13.2-78.89,36.15,6.05Zm15.88-96.15L1263.07,911l0,.1-27.88-4.66,4.75-28.36,8.41,1.41,3.58-21.39-7.47-1.25,4.75-28.36,26.75,4.48V833l16.86,2.82Zm13.16-92.3a1.84,1.84,0,0,1-2.22,1.7l-14-3A2.13,2.13,0,0,1,1275,818l1.55-43.44a114.86,114.86,0,0,0-31.28-83l-47.27-50a1.76,1.76,0,0,1-.48-1.21,1,1,0,0,1,1-1,1,1,0,0,1,.53.16l96.78,60.88a6.89,6.89,0,0,1,3.22,6.22Zm-103.58-203H1312l-6.46,71Zm161.74,190.34-7.5,56.61a7.77,7.77,0,0,1-9,6.64l-17-3a8,8,0,0,1-6.56-8.51l7.89-95.8a2.2,2.2,0,0,1,4-1.06l26.7,39A8.8,8.8,0,0,1,1351.06,808.84Zm1.16-29.77a1.64,1.64,0,0,1-3,.58L1325,739a2.45,2.45,0,0,1,1.25-3.55l7.48-2.74a7.77,7.77,0,0,1,7.45,1.14l13.42,10.38a6.13,6.13,0,0,1,2.3,5.85Zm200.59,115-83.1-13,6.19-39.59,83.1,13ZM1590.5,630.5h-89v72h20v72.89l47.45,7.42-5.29,33.88-.15,0-5.09,32.48-30.9-4.84,5.08-32.48-31-4.85-4.21,26.91L1465.89,829l0,.13,11.46,1.79-7.82,50L1412.28,872l0,.35-24-3.77-1,6.72L1354,870.08l1-6.72-.12,0,16.38-104.73,57.3,9v0l45.64,7.14.08-.48,22.77,3.56V726.5h-37.6v-125h131Zm47-54h-88v-140h54v11h18v12h16ZM1688.19,503l-33.54-10,7.16-24,33.54,10Z"/><rect class="Path_base" x="42.57" y="380.91" width="34.93" height="22.59"/></g><g id="Astro"><rect class="Grass" x="437.5" y="121.5" width="44" height="92"/><rect class="Grass" x="481.5" y="121.5" width="44" height="92"/><rect class="Grass" x="525.5" y="121.5" width="44" height="92"/></g><g id="Plinths"><rect class="Plinth" x="634.5" y="519.5" width="91" height="70"/><polygon class="Plinth" points="677.5 799.5 677.5 788.5 648.5 788.5 648.5 888.5 677.5 888.5 677.5 864.5 685.5 864.5 685.5 876.5 725.5 862.88 725.5 928.48 641.5 905.5 641.5 848.5 618.5 848.5 618.5 837.5 619.5 837.5 622.5 827.5 630.5 821.5 630.57 815.5 639.5 815.5 638.91 779.78 648.3 779.78 648.3 768.3 622.74 768.3 622.74 727.5 725.5 727.5 725.5 761.5 690.5 770.5 690.5 799.5 677.5 799.5"/><polygon class="Plinth" points="385.5 230.5 385.5 259.5 326.5 259.5 326.5 230.5 335.5 230.5 335.5 238.5 376.5 238.5 376.5 230.5 385.5 230.5"/><polygon class="Plinth" points="1358.68 343.35 1374.15 362.8 1292.69 343.15 1295.11 333.11 1297.4 333.66 1308.74 286.62 1371.44 301.17 1371.41 301.31 1393.6 306.66 1393.63 306.52 1400.19 308.1 1357.59 341.98 1358.68 343.35"/><polygon class="Plinth" points="1393.6 306.66 1371.41 301.31 1371.44 301.17 1393.63 306.52 1393.6 306.66"/><polygon class="Plinth" points="1376.1 955.06 1373.48 971.76 1356.25 980.16 1338.79 974.89 1332.33 978.04 1327.5 967.5 1339.83 961.43 1321.5 925.5 1340.83 913.76 1353.61 915.54 1348.11 950.69 1376.1 955.06"/><polyline class="Plinth" points="1299.24 1007.96 1272.63 1059.43 1230.14 1097.2 1269.11 1108.5 1302.5 1107.5 1302.5 1071.5 1351.5 1066.5 1342.5 1044.5 1321.89 1054.43 1299.24 1007.96"/><polygon class="Plinth" points="1265.56 831.2 1252.48 909.3 1235.17 906.41 1239.92 878.05 1248.33 879.46 1251.91 858.07 1244.44 856.82 1249.19 828.46 1265.56 831.2"/></g><g id="Gates"><rect class="cls-1" x="354.5" y="794.5" width="26" height="6"/><rect class="cls-1" x="68" y="388" width="16" height="7" transform="translate(467.5 315.5) rotate(90)"/><rect class="cls-1" x="1418.48" y="281.33" width="26" height="6" transform="translate(112.91 -341.25) rotate(14.15)"/><rect class="cls-1" x="1763.43" y="382.41" width="26" height="6" transform="translate(213.24 -542.32) rotate(18.45)"/><rect class="cls-1" x="1245.5" y="1103.77" width="26" height="6" transform="translate(365.68 -311.55) rotate(16.48)"/><polygon class="cls-1" points="1542.5 1001.5 1516.5 1001.5 1516.5 1007.5 1542.5 1007.5 1542.5 1001.5 1542.5 1001.5"/></g><g id="Geens"><polygon id="LibrarySquaureNorth" class="Grass" points="583.5 301.5 583.5 390.5 431.5 390.5 431.5 376.5 402.5 376.5 402.5 301.5 583.5 301.5"/><polygon id="LibrarySquareSouth" class="Grass" points="583.5 397.5 583.5 486.5 402.5 486.5 402.5 406.5 431.5 406.5 431.5 397.5 583.5 397.5"/><rect id="NewSquare" class="Grass" x="681.5" y="320.5" width="212" height="168"/><rect id="RubricsLawn" class="Grass" x="632.5" y="320.5" width="37" height="166"/><polygon id="FellowsSquare" class="Grass" points="609.5 585.5 609.5 653.5 596.5 667.5 445.5 667.5 431.5 653.5 431.5 585.5 445.5 576.5 596.5 576.5 609.5 585.5"/><rect id="RoseGarden" class="Grass" x="916" y="519.5" width="51.5" height="66"/><rect id="MuseumGreen" class="Grass" x="875.5" y="552" width="24" height="31.5"/><path id="RugbyPitch" class="Grass" d="M1323.35,442,1312.5,603.5h-345v-218h249l86.83,27.24A28.69,28.69,0,0,1,1323.35,442Z"/><path id="CricketPitch" class="Grass" d="M1249.5,766.5c0,28.62-.6,55.23-17.08,77.4h0c-7.92,30.59-24.92,127.59-24.92,127.59s-.36.32-.49.41c-2.4,1.75-10.87-4.9-20.51,2.59-9,7-7.3,14-9.26,18.84-.21.51-.57,1.78-1.51,1.59l-366.35-76a36.81,36.81,0,0,1-9.32-3.29l-8-4.12a43.15,43.15,0,0,1-22.91-31.73l-5.55-35.74a241.58,241.58,0,0,1-1.25-65.29L765,756.25a175.69,175.69,0,0,1,15.74-54.91l3.37-7.12a99,99,0,0,1,84.81-56.52l212.95-10.05h0C1150.5,621.5,1249.5,689.18,1249.5,766.5Z"/><path id="FitzgeraldLawn" class="Grass" d="M1439.5,626.74v66.93a26.83,26.83,0,0,1-26.83,26.83H1364.8a30.31,30.31,0,0,1-30.3-30.3V625a6.5,6.5,0,0,1,6.5-6.5h90.26A8.24,8.24,0,0,1,1439.5,626.74Z"/><polygon id="STEMTriangle" class="Grass" points="1311.96 618.5 1305.5 689.5 1189.32 618.5 1311.96 618.5"/><path id="PavGreen" class="Grass" d="M1299,706.56l-6.12,114.9a1.84,1.84,0,0,1-2.22,1.7l-14-3A2.13,2.13,0,0,1,1275,818l1.55-43.44a114.86,114.86,0,0,0-31.28-83l-47.27-50a1.76,1.76,0,0,1-.48-1.21,1,1,0,0,1,1-1,1,1,0,0,1,.53.16l96.78,60.88A6.89,6.89,0,0,1,1299,706.56Z"/><path id="ChemistryLawnNorth" class="Grass" d="M1356.91,750.11l-4.69,29a1.64,1.64,0,0,1-3,.58L1325,739a2.45,2.45,0,0,1,1.25-3.55l7.48-2.74a7.77,7.77,0,0,1,7.45,1.14l13.42,10.38A6.13,6.13,0,0,1,1356.91,750.11Z"/><path id="ChemistryLawnSouth" class="Grass" d="M1351.06,808.84l-7.5,56.61a7.77,7.77,0,0,1-9,6.64l-17-3a8,8,0,0,1-6.56-8.51l7.89-95.8a2.2,2.2,0,0,1,4-1.06l26.7,39A8.8,8.8,0,0,1,1351.06,808.84Z"/><rect id="PhysicsGarden" class="Grass" x="1662.5" y="468.5" width="25.01" height="35" transform="translate(729.76 1951.72) rotate(-73.36)"/><path id="BerkeleyTriangle" class="Grass" d="M782.26,635.25,757.5,672.9a2.34,2.34,0,0,1-4.29-1.46l3-38.78a3.43,3.43,0,0,1,3.42-3.16h19.49A3.71,3.71,0,0,1,782.26,635.25Z"/><polygon id="FrontSquareNorth" class="Grass" points="247.5 348.5 247.5 386.5 148.5 386.5 148.5 320.5 211.5 320.5 247.5 348.5"/><polygon id="FrontSquareSouth" class="Grass" points="246.5 395.5 246.5 433.5 211.5 465.5 148.5 465.5 148.5 395.5 246.5 395.5"/><path id="FrontGateNorth" class="Grass" d="M91.5,295.5v54h-8v22h-6v9h-35a101.15,101.15,0,0,1,15.37-53.59L77.5,295.5Z"/><path id="FrontGateSouth" class="Grass" d="M91.5,433.5v57h-14L51.76,441.23A81.54,81.54,0,0,1,42.5,403.5h35v9h6v21Z"/><rect id="MuseumGreen-2" data-name="MuseumGreen" class="Grass" x="875.83" y="519.64" width="24" height="22.36"/><rect id="MuseumGreen-3" data-name="MuseumGreen" class="Grass" x="1346.17" y="485.99" width="35.83" height="14.01"/><rect id="MuseumGreen-4" data-name="MuseumGreen" class="Grass" x="1346.26" y="517.17" width="35.83" height="18.83"/><rect id="MuseumGreen-5" data-name="MuseumGreen" class="Grass" x="1392.26" y="499" width="35.83" height="37"/><rect id="MuseumGreen-6" data-name="MuseumGreen" class="Grass" x="1439" y="509" width="13.09" height="27"/><rect id="MuseumGreen-7" data-name="MuseumGreen" class="Grass" x="1438.63" y="492.67" width="13.09" height="9.33"/><polyline class="Grass" points="1469.71 881.12 1466.89 903.26 1425.3 896.12 1428.76 874.32 1469.71 881.12"/><polygon class="Grass" points="1362.5 871.48 1359.87 884.13 1415.66 894.12 1419.5 873.5 1388.18 868.54 1387.13 875.26 1362.5 871.48"/></g></g><g id="Grids"><rect id="Dolier_Street_Grid" data-name="Dolier Street Grid" class="cls-2" x="2061.5" y="830.5" width="234" height="171"/><g id="Outer_Grid" data-name="Outer Grid" class="cls-3"><path d="M2476.5,0h-13V1h13V0Zm-24,0h-13V1h13V0Zm-24,0h-13V1h13V0Zm-24,0h-13V1h13V0Zm-24,0h-13V1h13V0Zm-24,0h-13V1h13V0Zm-24,0h-13V1h13V0Zm-24,0h-13V1h13V0Zm-24,0h-13V1h13V0Zm-24,0h-13V1h13V0Zm-24,0h-13V1h13V0Zm-24,0h-13V1h13V0Zm-24,0h-13V1h13V0Zm-24,0h-13V1h13V0Zm-24,0h-13V1h13V0Zm-24,0h-13V1h13V0Zm-24,0h-13V1h13V0Zm-24,0h-13V1h13V0Zm-24,0h-13V1h13V0Zm-24,0h-13V1h13V0Zm-24,0h-13V1h13V0Zm-24,0h-13V1h13V0Zm-24,0h-13V1h13V0Zm-24,0h-13V1h13V0Zm-24,0h-13V1h13V0Zm-24,0h-13V1h13V0Zm-24,0h-13V1h13V0Zm-24,0h-13V1h13V0Zm-24,0h-13V1h13V0Zm-24,0h-13V1h13V0Zm-24,0h-13V1h13V0Zm-24,0h-13V1h13V0Zm-24,0h-13V1h13V0Zm-24,0h-13V1h13V0Zm-24,0h-13V1h13V0Zm-24,0h-13V1h13V0Zm-24,0h-13V1h13V0Zm-24,0h-13V1h13V0Zm-24,0h-13V1h13V0Zm-24,0h-13V1h13V0Zm-24,0h-13V1h13V0Zm-24,0h-13V1h13V0Zm-24,0h-13V1h13V0Zm-24,0h-13V1h13V0Zm-24,0h-13V1h13V0Zm-24,0h-13V1h13V0Zm-24,0h-13V1h13V0Zm-24,0h-13V1h13V0Zm-24,0h-13V1h13V0Zm-24,0h-13V1h13V0Zm-24,0h-13V1h13V0Zm-24,0h-13V1h13V0Zm-24,0h-13V1h13V0Zm-24,0h-13V1h13V0Zm-24,0h-13V1h13V0Zm-24,0h-13V1h13V0Zm-24,0h-13V1h13V0Zm-24,0h-13V1h13V0Zm-24,0h-13V1h13V0Zm-24,0h-13V1h13V0Zm-24,0h-13V1h13V0Zm-24,0h-13V1h13V0Zm-24,0h-13V1h13V0Zm-24,0h-13V1h13V0Zm-24,0h-13V1h13V0Zm-24,0h-13V1h13V0Zm-24,0h-13V1h13V0Zm-24,0h-13V1h13V0Zm-24,0h-13V1h13V0Zm-24,0h-13V1h13V0Zm-24,0h-13V1h13V0Zm-24,0h-13V1h13V0Zm-24,0h-13V1h13V0Zm-24,0h-13V1h13V0Zm-24,0h-13V1h13V0Zm-24,0h-13V1h13V0Zm-24,0h-13V1h13V0Zm-24,0h-13V1h13V0Zm-24,0h-13V1h13V0Zm-24,0h-13V1h13V0Zm-24,0h-13V1h13V0Zm-24,0h-13V1h13V0Zm-24,0h-13V1h13V0Zm-24,0h-13V1h13V0Zm-24,0h-13V1h13V0Zm-24,0h-13V1h13V0Zm-24,0h-13V1h13V0Zm-24,0h-13V1h13V0Zm-24,0h-13V1h13V0Zm-24,0h-13V1h13V0Zm-24,0h-13V1h13V0Zm-24,0h-13V1h13V0Zm-24,0h-13V1h13V0Zm-24,0h-13V1h13V0Zm-24,0h-13V1h13V0Zm-24,0h-13V1h13V0Zm-24,0h-13V1h13V0Zm-24,0h-13V1h13V0Zm-24,0h-13V1h13V0Zm-24,0h-13V1h13V0Zm-24,0h-13V1h13V0Zm-24,0h-13V1h13V0Zm-24,0h-13V1h13V0Zm-24,0H0V1H0V8.48H1V1H4.52V0ZM1,19.48H0v13H1v-13Zm0,24H0v13H1v-13Zm0,24H0v13H1v-13Zm0,24H0v13H1v-13Zm0,24H0v13H1v-13Zm0,24H0v13H1v-13Zm0,24H0v13H1v-13Zm0,24H0v13H1v-13Zm0,24H0v13H1v-13Zm0,24H0v13H1v-13Zm0,24H0v13H1v-13Zm0,24H0v13H1v-13Zm0,24H0v13H1v-13Zm0,24H0v13H1v-13Zm0,24H0v13H1v-13Zm0,24H0v13H1v-13Zm0,24H0v13H1v-13Zm0,24H0v13H1v-13Zm0,24H0v13H1v-13Zm0,24H0v13H1v-13Zm0,24H0v13H1v-13Zm0,24H0v13H1v-13Zm0,24H0v13H1v-13Zm0,24H0v13H1v-13Zm0,24H0v13H1v-13Zm0,24H0v13H1v-13Zm0,24H0v13H1v-13Zm0,24H0v13H1v-13Zm0,24H0v13H1v-13Zm0,24H0v13H1v-13Zm0,24H0v13H1v-13Zm0,24H0v13H1v-13Zm0,24H0v13H1v-13Zm0,24H0v13H1v-13Zm0,24H0v13H1v-13Zm0,24H0v13H1v-13Zm0,24H0v13H1v-13Zm0,24H0v13H1v-13Zm0,24H0v13H1v-13Zm0,24H0v13H1v-13Zm0,24H0v13H1v-13Zm0,24H0v13H1v-13Zm0,24H0v13H1v-13Zm0,24H0v13H1v-13Zm0,24H0v13H1v-13Zm0,24H0v13H1v-13Zm0,24H0v13H1v-13Zm0,24H0V1150H10.47v-1H1v-1.53ZM34.47,1149h-13v1h13v-1Zm24,0h-13v1h13v-1Zm24,0h-13v1h13v-1Zm24,0h-13v1h13v-1Zm24,0h-13v1h13v-1Zm24,0h-13v1h13v-1Zm24,0h-13v1h13v-1Zm24,0h-13v1h13v-1Zm24,0h-13v1h13v-1Zm24,0h-13v1h13v-1Zm24,0h-13v1h13v-1Zm24,0h-13v1h13v-1Zm24,0h-13v1h13v-1Zm24,0h-13v1h13v-1Zm24,0h-13v1h13v-1Zm24,0h-13v1h13v-1Zm24,0h-13v1h13v-1Zm24,0h-13v1h13v-1Zm24,0h-13v1h13v-1Zm24,0h-13v1h13v-1Zm24,0h-13v1h13v-1Zm24,0h-13v1h13v-1Zm24,0h-13v1h13v-1Zm24,0h-13v1h13v-1Zm24,0h-13v1h13v-1Zm24,0h-13v1h13v-1Zm24,0h-13v1h13v-1Zm24,0h-13v1h13v-1Zm24,0h-13v1h13v-1Zm24,0h-13v1h13v-1Zm24,0h-13v1h13v-1Zm24,0h-13v1h13v-1Zm24,0h-13v1h13v-1Zm24,0h-13v1h13v-1Zm24,0h-13v1h13v-1Zm24,0h-13v1h13v-1Zm24,0h-13v1h13v-1Zm24,0h-13v1h13v-1Zm24,0h-13v1h13v-1Zm24,0h-13v1h13v-1Zm24,0h-13v1h13v-1Zm24,0h-13v1h13v-1Zm24,0h-13v1h13v-1Zm24,0h-13v1h13v-1Zm24,0h-13v1h13v-1Zm24,0h-13v1h13v-1Zm24,0h-13v1h13v-1Zm24,0h-13v1h13v-1Zm24,0h-13v1h13v-1Zm24,0h-13v1h13v-1Zm24,0h-13v1h13v-1Zm24,0h-13v1h13v-1Zm24,0h-13v1h13v-1Zm24,0h-13v1h13v-1Zm24,0h-13v1h13v-1Zm24,0h-13v1h13v-1Zm24,0h-13v1h13v-1Zm24,0h-13v1h13v-1Zm24,0h-13v1h13v-1Zm24,0h-13v1h13v-1Zm24,0h-13v1h13v-1Zm24,0h-13v1h13v-1Zm24,0h-13v1h13v-1Zm24,0h-13v1h13v-1Zm24,0h-13v1h13v-1Zm24,0h-13v1h13v-1Zm24,0h-13v1h13v-1Zm24,0h-13v1h13v-1Zm24,0h-13v1h13v-1Zm24,0h-13v1h13v-1Zm24,0h-13v1h13v-1Zm24,0h-13v1h13v-1Zm24,0h-13v1h13v-1Zm24,0h-13v1h13v-1Zm24,0h-13v1h13v-1Zm24,0h-13v1h13v-1Zm24,0h-13v1h13v-1Zm24,0h-13v1h13v-1Zm24,0h-13v1h13v-1Zm24,0h-13v1h13v-1Zm24,0h-13v1h13v-1Zm24,0h-13v1h13v-1Zm24,0h-13v1h13v-1Zm24,0h-13v1h13v-1Zm24,0h-13v1h13v-1Zm24,0h-13v1h13v-1Zm24,0h-13v1h13v-1Zm24,0h-13v1h13v-1Zm24,0h-13v1h13v-1Zm24,0h-13v1h13v-1Zm24,0h-13v1h13v-1Zm24,0h-13v1h13v-1Zm24,0h-13v1h13v-1Zm24,0h-13v1h13v-1Zm24,0h-13v1h13v-1Zm24,0h-13v1h13v-1Zm24,0h-13v1h13v-1Zm24,0h-13v1h13v-1Zm24,0h-13v1h13v-1Zm24,0h-13v1h13v-1Zm24,0h-13v1h13v-1Zm24,0h-13v1h13v-1Zm24,0h-13v1h13v-1Zm17.55-5.45h-1V1149h-5.55v1H2500v-6.45Zm0-24h-1v13h1v-13Zm0-24h-1v13h1v-13Zm0-24h-1v13h1v-13Zm0-24h-1v13h1v-13Zm0-24h-1v13h1v-13Zm0-24h-1v13h1v-13Zm0-24h-1v13h1v-13Zm0-24h-1v13h1v-13Zm0-24h-1v13h1v-13Zm0-24h-1v13h1v-13Zm0-24h-1v13h1v-13Zm0-24h-1v13h1v-13Zm0-24h-1v13h1v-13Zm0-24h-1v13h1v-13Zm0-24h-1v13h1v-13Zm0-24h-1v13h1v-13Zm0-24h-1v13h1v-13Zm0-24h-1v13h1v-13Zm0-24h-1v13h1v-13Zm0-24h-1v13h1v-13Zm0-24h-1v13h1v-13Zm0-24h-1v13h1v-13Zm0-24h-1v13h1v-13Zm0-24h-1v13h1v-13Zm0-24h-1v13h1v-13Zm0-24h-1v13h1v-13Zm0-24h-1v13h1v-13Zm0-24h-1v13h1v-13Zm0-24h-1v13h1v-13Zm0-24h-1v13h1v-13Zm0-24h-1v13h1v-13Zm0-24h-1v13h1v-13Zm0-24h-1v13h1v-13Zm0-24h-1v13h1v-13Zm0-24h-1v13h1v-13Zm0-24h-1v13h1v-13Zm0-24h-1v13h1v-13Zm0-24h-1v13h1v-13Zm0-24h-1v13h1v-13Zm0-24h-1v13h1v-13Zm0-24h-1v13h1v-13Zm0-24h-1v13h1v-13Zm0-24h-1v13h1v-13Zm0-24h-1v13h1v-13Zm0-24h-1v13h1v-13Zm0-24h-1v13h1v-13Zm0-24h-1v13h1v-13ZM2500,0h-12.5V1H2499V4.56h1V0Z"/></g></g><g id="TestPolygon"><rect class="Building" x="689.5" y="263.5" width="48" height="27"/><rect class="Building" x="737.5" y="263.5" width="43" height="27"/><rect class="Building" x="780.5" y="263.5" width="56" height="27"/><rect class="Building" x="836.5" y="263.5" width="42" height="27"/><rect class="Building" x="878.5" y="263.5" width="46" height="27"/><rect class="Building" x="933.5" y="293.5" width="34" height="73"/><rect class="Building" x="928.5" y="366.5" width="42" height="78"/><rect class="Building" x="933.5" y="444.5" width="34" height="75"/><polygon class="Building" points="1174.85 222.77 1165.72 260.62 1127.5 251.4 1132.89 229.04 1136.62 213.56 1174.85 222.77"/><polygon class="Building" points="1136.41 213.47 1132.65 229.08 1127.29 251.31 1089.33 242.16 1089.06 242.1 1090.69 235.35 1098.15 204.41 1098.19 204.25 1136.41 213.47"/><polygon class="Building" points="1090.69 235.35 1089.06 242.1 1089.33 242.16 1089.29 242.31 1078.09 239.61 1074.61 238.77 1075.26 236.06 1075.83 233.7 1083.74 200.93 1098.15 204.41 1090.69 235.35"/><polygon class="Building" points="1078.09 239.61 1070.19 272.39 1014.79 259.03 1020.85 233.92 1022.31 227.88 1038.5 231.5 1039.97 225.06 1075.83 233.7 1075.26 236.06 1074.61 238.77 1078.09 239.61"/><polygon class="Building" points="1047.6 193.64 1039.97 225.06 1038.5 231.5 1022.31 227.88 1021.85 227.78 1030.35 190.16 1047.6 193.64"/><polygon class="Building" points="1198.06 227.84 1197.22 231.33 1179.35 305.41 1179.34 305.47 1159.01 300.57 1177.53 223.8 1177.74 222.94 1197.84 227.79 1198.06 227.84"/><polygon class="Building" points="1215.77 232.05 1214.36 237.89 1197.05 309.68 1179.35 305.41 1179.13 305.36 1197 231.25 1197.84 227.79 1197.85 227.73 1215.77 232.05"/><polygon class="Building" points="1234.83 236.82 1232.86 244.98 1216.12 314.39 1216.11 314.45 1197.24 309.9 1214.58 237.98 1215.96 232.27 1234.83 236.82"/><polygon class="Building" points="1252.99 241.14 1250.44 251.71 1234.3 318.65 1234.27 318.77 1216.12 314.39 1232.86 244.98 1234.83 236.82 1234.84 236.76 1252.76 241.08 1252.99 241.14"/><polygon class="Building" points="1271.43 245.45 1268.27 258.53 1264.18 275.5 1252.71 323.08 1234.3 318.65 1234.07 318.59 1250.22 251.62 1252.76 241.08 1252.79 240.96 1271.19 245.39 1271.43 245.45"/><polygon class="Building" points="1289.6 249.5 1285.8 265.24 1282.28 279.86 1264.18 275.5 1263.94 275.44 1268.04 258.44 1271.19 245.39 1271.26 245.08 1289.6 249.5"/><polygon class="Building" points="1308.13 253.82 1308.12 253.85 1303.72 272.1 1300.8 284.21 1300.8 284.23 1282.46 279.8 1285.96 265.3 1289.79 249.4 1308.13 253.82"/><polygon class="Building" points="1325.01 257.93 1320.08 278.37 1317.71 288.21 1317.69 288.28 1306.56 285.6 1300.8 284.21 1300.39 284.11 1303.32 271.95 1307.71 253.75 1308.12 253.85 1325.01 257.93"/><polygon class="Building" points="1342.53 262.05 1337.03 284.85 1335.23 292.31 1335.21 292.41 1317.9 288.23 1320.26 278.43 1325.22 257.88 1342.2 261.97 1342.53 262.05"/><polygon class="Building" points="1361.85 266.61 1355.73 292.01 1354.53 296.97 1335.23 292.31 1334.9 292.23 1336.71 284.73 1342.2 261.97 1342.22 261.88 1361.85 266.61"/><polygon class="Building" points="1378.62 270.7 1371.98 298.23 1371.32 300.97 1354.99 297.04 1356.16 292.18 1362.3 266.76 1378.62 270.7"/><polygon class="Building" points="1400.93 276.26 1393.63 306.52 1393.6 306.66 1371.41 301.31 1371.44 301.17 1372.13 298.29 1378.74 270.9 1400.93 276.26"/><polygon class="Building" points="1397.82 392.57 1375.43 410.38 1375.25 410.15 1397.64 392.34 1397.82 392.57"/><polygon class="Building" points="1308.74 286.62 1297.4 333.66 1295.11 333.11 1266.25 326.15 1277.59 279.11 1306.45 286.07 1308.74 286.62"/><polygon class="Building" points="1474.37 774.76 1465.89 828.97 1465.78 828.95 1474.25 774.74 1474.37 774.76"/><polygon class="Building" points="1474.37 774.76 1465.89 828.97 1465.78 828.95 1474.25 774.74 1474.37 774.76"/><polygon class="Building" points="1770.87 649.89 1744.27 748.59 1744.23 748.75 1744.12 748.72 1744 748.69 1693.62 735.11 1636.76 719.79 1636.8 719.63 1693.67 734.95 1744.05 748.53 1770.64 649.83 1770.76 649.86 1770.87 649.89"/><polygon class="Building" points="1693.41 935.67 1693.4 935.7 1643.22 922.18 1643.23 922.15 1693.41 935.67"/><polygon class="Building" points="1744.05 748.53 1744 748.69 1693.62 735.11 1693.67 734.95 1744.05 748.53"/><polygon class="Building" points="1744.51 748.65 1725.33 819.81 1722.5 830.32 1722.16 830.23 1722.04 830.2 1724.87 819.69 1744 748.69 1693.62 735.11 1636.76 719.79 1636.8 719.63 1693.67 734.95 1744.05 748.53 1744.17 748.56 1744.27 748.59 1744.51 748.65"/><polygon class="Building" points="1693.41 935.67 1693.4 935.7 1643.22 922.18 1586.49 906.9 1586.5 906.86 1643.23 922.15 1693.41 935.67"/><polygon class="Building" points="1693.41 935.67 1693.4 935.7 1643.22 922.18 1586.49 906.9 1586.5 906.86 1643.23 922.15 1693.41 935.67"/><polygon class="Building" points="1801.02 643.31 1751.56 826.88 1729.57 908.51 1704.12 1002.98 1677.55 995.82 1703 901.35 1722.16 830.23 1724.99 819.72 1744.17 748.56 1774.42 636.27 1801.02 643.31"/><line class="Building" x1="2452.45" y1="569.99" x2="2452.43" y2="569.64"/><polygon class="Building" points="1075.5 233.5 1040.5 224.5 1047.5 193.5 1083.5 200.5 1075.5 233.5"/><polygon class="Building" points="1363.5 1065.5 1302.5 1071.5 1302.5 1107.45 1333.5 1106.5 1375.52 1100.49 1363.5 1065.5"/></g><g id="Buildings"><g id="Berkeley_Library" data-name="Berkeley Library"><rect class="Building" x="637.5" y="589.5" width="88" height="138"/></g><g id="Ussher_Library" data-name="Ussher Library"><polygon class="Building" points="732.5 759.7 732.5 860.5 725.5 862.88 685.5 876.5 685.5 864.5 677.5 864.5 677.5 888.5 648.5 888.5 648.5 788.5 677.5 788.5 677.5 799.5 690.5 799.5 690.5 770.5 725.5 761.5 732.5 759.7"/></g><g id="TRLH"><rect class="Building" x="309.5" y="627.5" width="102" height="32"/></g><g id="Old_Library" data-name="Old Library"><rect class="Building" x="402.5" y="506.5" width="232" height="54"/></g><g id="_1937" data-name="1937"><polygon class="Building" points="391.5 538.5 391.5 600.5 329.5 600.5 329.5 538.5 336.5 538.5 336.5 506.5 386.5 506.5 386.5 538.5 391.5 538.5"/></g><g id="GMB"><polygon class="Building" points="545.5 236.5 545.5 281.5 520.5 281.5 520.5 288.5 474.5 288.5 474.5 281.5 452.5 281.5 452.5 236.5 474.5 236.5 474.5 231.5 520.5 231.5 520.5 236.5 545.5 236.5"/></g><g id="Arts"><polygon class="Building" points="648.3 779.78 638.91 779.78 639.5 815.5 630.57 815.5 630.5 821.5 622.5 827.5 619.5 837.5 579.96 837.5 572.5 848.5 539.26 848.5 520.5 827.5 516.5 833.5 487.4 834.04 481.5 826.5 474.5 826.5 467.5 819.5 409.5 820.5 409.5 812.5 397.5 812.5 394.18 807.29 394.17 807.27 390.5 801.5 378.5 801.5 375.5 795.5 319.5 796.5 319.5 788.13 311.5 788.5 305.5 780.5 295.5 780.5 295.5 769.61 319.5 769.5 319.5 756.5 328.5 756.5 326.5 659.5 411.43 659.5 411.43 705.7 429.17 705.7 429.17 694.22 462.5 693.5 462.5 705.7 483.96 705.7 483.96 685.35 622.74 683.6 622.74 768.3 648.3 768.3 648.3 779.78"/></g><g id="Exam_Hall" data-name="Exam Hall"><polygon class="Building" points="234.5 458.5 255.5 458.5 255.5 450.5 295.5 450.63 295.5 458.63 315.5 458.63 315.5 536.5 295.48 536.63 295.48 537.57 295.02 539.7 293.91 542.58 291.84 545.59 289.28 548.03 286.65 549.76 283.69 551.08 280.34 552.09 277.11 552.52 273.76 552.4 270.52 551.98 267.29 551.04 264.31 549.73 261.75 548.02 259.56 545.93 257.85 543.59 256.49 540.82 255.5 536.5 255.5 533.5 255.5 515.5 234.5 515.5 234.5 458.5"/></g><g id="Regent_House" data-name="Regent House"><polygon class="Building" points="138.5 370.5 138.5 412.5 130.5 412.5 130.5 433.5 83.5 433.5 83.5 412.5 77.5 412.5 77.5 370.5 83.5 370.5 83.5 348.5 130.5 348.5 130.5 370.5 138.5 370.5"/></g><g id="Chapel"><polygon class="Building" points="315.5 251.5 315.5 327.5 294.5 327.5 294.5 334.5 255.5 334.5 255.5 327.5 237.5 327.5 237.5 270.5 255.5 270.5 255.5 228.5 266 213.76 282.5 213.76 294.5 228.5 294.5 251.5 315.5 251.5"/></g><g id="Buttery"><polygon class="Building" points="417.5 132.5 417.5 220.5 400.5 220.5 400.5 230.5 376.5 230.5 376.5 156.5 335.5 156.5 335.5 125.5 400.5 125.5 400.5 132.5 417.5 132.5"/></g><g id="Atrium"><polygon class="Building" points="335.5 125.5 335.5 230.5 306.5 230.5 306.5 205.5 279.5 205.5 279.5 125.5 335.5 125.5"/></g><g id="Museum_Building" data-name="Museum Building"><rect class="Building" x="733.5" y="514.5" width="142" height="83"/></g><g id="Business_School" data-name="Business School"><polygon class="Building" points="1603.5 419.5 1520.5 419.5 1512.04 410.38 1375.43 410.38 1397.82 392.57 1397.64 392.34 1374.15 362.8 1358.68 343.35 1357.59 341.98 1400.19 308.1 1411.21 299.33 1416.83 282.02 1494.5 302.5 1603.5 419.5"/></g><g id="Lloyd"><polygon class="Building" points="1637.5 459.5 1637.5 576.5 1549.5 576.5 1549.5 436.5 1603.5 436.5 1603.5 447.5 1621.5 447.5 1621.5 459.5 1637.5 459.5"/></g><g id="SNIAM"><rect class="Building" x="1466.5" y="436.5" width="70" height="140"/></g><g id="Botany"><polygon class="Building" points="1455.5 451.5 1455.5 464.5 1446.5 475.5 1353.5 475.5 1346.5 464.5 1346.5 451.5 1353.5 440.5 1446.5 440.5 1455.5 451.5"/></g><g id="Aras_an_Phiarsaigh" data-name="Aras an Phiarsaigh"><polygon class="Building" points="921.43 166.47 898.44 250.53 852.56 237.98 850.67 242.08 848.5 245.5 845.18 246.76 841.1 246.75 838.5 246.5 834.11 245.62 829.78 244.5 825.86 243.68 823.5 243.5 821.31 243.76 819.02 244.36 814.81 245.84 809.66 247.62 806.5 248.5 802.99 248.25 796.5 246.5 798.5 239.5 791.95 237.86 790.5 237.5 817.9 138.15 921.43 166.47"/></g><g id="Samuel_Beckett_Theatre" data-name="Samuel Beckett Theatre"><polygon class="Building" points="936.2 168.91 922.36 230.23 921.98 233.66 922.91 236.86 924.98 239.16 927.55 240.55 938.29 243 933.44 264.5 982.05 275.48 989.18 243.91 1016.92 250.22 1030.35 190.16 936.2 168.91"/></g><g id="Science_Gallery" data-name="Science Gallery"><polygon class="Building" points="1763.5 383.5 1737.92 438.21 1727.5 460.5 1700.5 445.5 1673.5 425.5 1603.5 365.78 1566.5 322.5 1763.5 383.5"/></g><g id="Trinity_Sport_Centre" data-name="Trinity Sport Centre"><polygon class="Building" points="1846.5 511.5 1859.19 438.71 1859.44 435.01 1859.07 430.68 1858.17 426.71 1856.63 422.69 1854.65 419.04 1851.99 415.55 1848.71 412.32 1844.38 409.3 1840.02 407.27 1763.5 383.5 1727.5 460.5 1846.5 511.5"/></g><g id="TILDA"><rect class="Building" x="1494.32" y="825.77" width="40.07" height="84.11" transform="translate(423.02 2229.95) rotate(-81.11)"/></g><g id="Chemistry"><polygon class="Building" points="1477.33 830.89 1469.51 880.91 1388.18 868.54 1387.13 875.26 1354 870.08 1355.05 863.36 1354.93 863.34 1371.31 758.61 1428.61 767.57 1428.61 767.6 1474.25 774.74 1465.78 828.95 1465.89 828.97 1465.87 829.1 1477.33 830.89"/></g><g id="Anatomy"><polygon class="Building" points="1568.95 782.81 1563.66 816.69 1563.51 816.67 1558.42 849.15 1527.52 844.31 1532.6 811.83 1501.58 806.98 1497.37 833.89 1465.89 828.97 1474.37 774.76 1474.25 774.74 1474.33 774.26 1497.1 777.82 1497.1 726.5 1501.5 726.5 1501.5 702.5 1521.5 702.5 1521.5 775.39 1568.95 782.81"/></g><g id="Zoology"><rect class="Building" x="1459.5" y="667.5" width="42" height="59"/></g><g id="Physiology"><rect class="Building" x="1459.5" y="602" width="42" height="65.5"/></g><g id="Loyola_Institute" data-name="Loyola Institute"><rect class="Building" x="1502" y="602" width="88.5" height="28.5"/></g><g id="Fitzgerald"><polygon class="Building" points="1455.5 558.5 1455.5 589.5 1421.5 589.5 1421.5 601.5 1378.5 601.5 1378.5 589.5 1344.5 589.5 1344.5 558.5 1378.5 558.5 1378.5 546.5 1421.5 546.5 1421.5 558.5 1455.5 558.5"/></g><g id="Dental_School" data-name="Dental School"><polygon class="Building" points="1514.35 978.83 1513.47 981.69 1511.24 987.12 1509.09 991.53 1505.8 997.51 1501.5 1004.3 1501.48 1004.31 1500.23 1006.09 1497.5 1009.5 1495.16 1011.99 1453.5 1046.5 1409.5 1079.5 1375.52 1100.49 1375.5 1100.5 1363.5 1065.5 1447.5 1009.5 1437.5 997.5 1422.5 1005.37 1403.14 965.66 1399.85 958.9 1402.65 939.68 1405.18 923.48 1501.83 938.59 1498.34 960.93 1514.35 959.26 1514.86 969.04 1514.8 975.24 1514.35 978.83 1514.35 978.83"/></g><g id="Parsons"><polygon class="Building" points="1422.5 1005.37 1321.89 1054.43 1299.24 1007.96 1312.68 1001.4 1315.19 986.4 1332.33 978.04 1338.79 974.89 1356.25 980.16 1373.48 971.76 1376.1 955.06 1348.11 950.69 1353.61 915.54 1353.62 915.45 1358.64 916.24 1405 923.49 1402.65 939.68 1399.85 958.9 1403.14 965.66 1422.5 1005.37"/></g><g id="Moyne"><polygon class="Building" points="1278.25 923.98 1263.86 1009.91 1206.13 1050.55 1100.39 1032.85 1105.67 1001.32 1190.51 1015.52 1190.5 1015 1190.85 1010.95 1192.95 1004.54 1195.81 1000.11 1198.71 997.16 1201.85 994.88 1207.36 992.45 1214 991.5 1216.9 991.68 1223.17 993.36 1228.9 996.82 1242.1 917.93 1278.25 923.98"/></g><g id="The_Pav" data-name="The Pav"><polygon class="Building" points="1292.79 835.85 1279.74 913.76 1263.07 910.97 1263.05 911.07 1253.79 909.52 1252.48 909.3 1265.56 831.2 1267.95 831.6 1275.94 832.94 1275.93 833.03 1292.79 835.85"/></g><g id="O_Reilly" data-name="O&apos;Reilly"><polygon class="Building" points="1811.12 605.82 1801.02 643.31 1774.42 636.27 1776.68 626.95 1776.51 627.59 1726.24 614.05 1660.97 596.46 1681.12 521.66 1796.66 552.78 1784.26 598.84 1811.12 605.82"/></g><g id="Hamilton"><polygon class="Building" points="1776.51 627.59 1744.05 748.53 1693.67 734.95 1636.8 719.63 1636.76 719.79 1636.6 719.75 1663.23 620.89 1720.26 636.25 1726.24 614.05 1776.51 627.59"/></g><g id="Watt"><polygon class="Building" points="1744 748.69 1724.87 819.69 1722.04 830.2 1698.35 823.82 1697.14 823.49 1671.66 816.62 1614.8 801.3 1636.76 719.79 1693.62 735.11 1744 748.69"/></g><g id="Panoz"><polygon class="Building" points="1722.16 830.23 1703 901.35 1702.68 901.27 1693.41 935.67 1643.23 922.15 1586.5 906.86 1608.49 825.23 1665.23 840.52 1690.7 847.38 1697.14 823.49 1698.35 823.82 1722.04 830.2 1722.16 830.23"/></g><g id="Smurfit"><polygon class="Building" points="1693.49 935.69 1675.83 1001.25 1675.54 1002.31 1668.31 1000.36 1647.95 994.88 1647.96 994.84 1647.91 994.83 1643.85 1009.91 1564.45 988.52 1586.45 906.85 1586.5 906.86 1586.49 906.9 1643.22 922.18 1693.4 935.7 1693.41 935.67 1693.49 935.69"/></g><g id="Goldsmith"><polygon class="Building" points="2146.5 484.5 2124.24 545.51 2117.79 543.78 1978.5 506.5 1971.04 534.37 1904.86 517.03 1929.04 426.69 2134.42 481.66 2146.5 484.5"/></g><g id="TBSI"><polygon class="Building" points="2339.18 660.82 2339.27 660.5 2150.17 607.94 2181.73 494.4 2452.43 569.64 2452.34 569.96 2452.45 569.99 2458.78 694.06 2339.18 660.82"/></g><g id="D_Olier_Street" data-name="D&apos;Olier Street"><polygon class="Building" points="2105.5 934.5 2144.5 901.5 2142.5 881.5 2231.5 873.5 2235.5 932.5 2172.5 936.5 2135.5 969.5 2105.5 934.5"/></g><g id="College_Health" data-name="College Health"><polygon class="Building" points="1156.76 265.7 1137.87 344.02 1120.89 339.93 1120.87 340.02 1103.27 335.78 1103.23 335.94 1078.08 329.87 1096.97 251.55 1122.12 257.61 1108.19 315.39 1117.62 317.66 1131.61 259.63 1156.76 265.7"/></g><g id="Red_Brick_Building" data-name="Red Brick Building"><polygon class="Building" points="1291 352.23 1290.99 352.27 1283.09 385.04 1282.18 384.82 1161.87 355.81 1169.78 323 1291 352.23"/></g><g id="Simon_Perry" data-name="Simon Perry"><polygon class="Building" points="1367.55 370.73 1359.63 403.53 1282.17 384.85 1282.18 384.82 1290.09 352.05 1290.99 352.27 1367.55 370.73"/></g><g id="Mail_Centre" data-name="Mail Centre"><polygon class="Building" points="1668.74 438.5 1657.97 451.3 1552.61 351.76 1565.13 340.82 1668.74 438.5"/></g><g id="Laundrette"><rect class="Building" x="245.5" y="161.5" width="23" height="23"/></g><g id="House_1" data-name="House 1"><rect class="Building" x="195.5" y="479.5" width="39" height="36"/></g><g id="House_2" data-name="House 2"><rect class="Building" x="160.5" y="479.5" width="35" height="36"/></g><g id="House_3" data-name="House 3"><rect class="Building" x="125.5" y="479.5" width="35" height="36"/></g><g id="House_4" data-name="House 4"><rect class="Building" x="91.5" y="471.5" width="34" height="44"/></g><g id="House_5" data-name="House 5"><rect class="Building" x="91.5" y="433.5" width="34" height="38"/></g><g id="House_6" data-name="House 6"><rect class="Building" x="91.5" y="325.5" width="34" height="23"/></g><g id="House_7" data-name="House 7"><rect class="Building" x="91.5" y="270.5" width="34" height="55"/></g><g id="House_8" data-name="House 8"><rect class="Building" x="125.5" y="270.5" width="35" height="35"/></g><g id="House_9" data-name="House 9"><rect class="Building" x="160.5" y="270.5" width="35" height="35"/></g><g id="House_10" data-name="House 10"><rect class="Building" x="195.5" y="270.5" width="42" height="35"/></g><g id="House_20" data-name="House 20"><rect class="Building" x="363.5" y="66.5" width="32" height="32"/></g><g id="House_19" data-name="House 19"><rect class="Building" x="395.5" y="69.5" width="42" height="26"/></g><g id="House_18" data-name="House 18"><rect class="Building" x="437.5" y="69.5" width="44" height="26"/></g><g id="House_17" data-name="House 17"><rect class="Building" x="481.5" y="69.5" width="43" height="26"/></g><g id="House_16" data-name="House 16"><rect class="Building" x="524.5" y="69.5" width="43" height="26"/></g><g id="House_15" data-name="House 15"><rect class="Building" x="567.5" y="66.5" width="33" height="33"/></g><g id="House_14" data-name="House 14"><rect class="Building" x="605.5" y="92.5" width="27" height="27"/></g><g id="House_28" data-name="House 28"><polygon class="Building" points="583.5 231.5 583.5 288.5 553.5 288.5 553.5 281.5 545.5 281.5 545.5 236.5 553.5 236.5 553.5 231.5 583.5 231.5"/></g><g id="House_30" data-name="House 30"><polygon class="Building" points="452.5 236.5 452.5 281.5 446.5 281.5 446.5 290.47 416.5 290.47 416.5 231.5 446.5 231.5 446.5 236.5 452.5 236.5"/></g><g id="House_11" data-name="House 11"><rect class="Building" x="605.5" y="208.5" width="27" height="45"/></g><g id="House_12" data-name="House 12"><rect class="Building" x="605.5" y="164.5" width="27" height="44"/></g><g id="House_13" data-name="House 13"><rect class="Building" x="605.5" y="119.5" width="27" height="45"/></g><g id="Printing_House" data-name="Printing House"><rect class="Building" x="658.5" y="188.5" width="28" height="72"/></g><g id="Camponile"><rect class="Building" x="395.5" y="376.5" width="36" height="30"/></g><g id="House_22" data-name="House 22"><rect class="Building" x="605.5" y="461.5" width="27" height="32"/></g><g id="House_23" data-name="House 23"><rect class="Building" x="605.5" y="417.5" width="27" height="44"/></g><g id="House_24" data-name="House 24"><rect class="Building" x="605.5" y="373.5" width="27" height="44"/></g><g id="House_25" data-name="House 25"><rect class="Building" x="605.5" y="328.5" width="27" height="45"/></g><g id="House_26" data-name="House 26"><rect class="Building" x="605.5" y="296.5" width="27" height="32"/></g><g id="House_27" data-name="House 27"><rect class="Building" x="605.5" y="253.5" width="27" height="30"/></g><g id="Dining_Hall" data-name="Dining Hall"><rect class="Building" x="335.5" y="156.5" width="41" height="82"/></g></g><g id="Pass_throughs" data-name="Pass throughs"><g id="Nassau"><polyline class="Path_base" points="378.5 801.5 375.22 795.5 354.5 795.5 354.5 738 411.5 693.96 411.5 705.5 429.5 705.5 378.5 745.23 378.5 801.5"/><polyline class="Path_base" points="429.5 705.7 411.5 705.7 411.5 660"/><polyline class="Path_base" points="319.5 796.5 375.5 795.5 378.5 801.5 390 801.5"/><polyline class="cls-4" points="378.5 801.5 375.22 795.5 354.5 795.5 354.5 738 411.5 693.96 411.5 705.5 429.5 705.5 378.5 745.23 378.5 801.5"/><polyline class="cls-5" points="429.5 705.7 411.5 705.7 411.5 660"/><polyline class="cls-6" points="319.5 796.5 375.5 795.5 378.5 801.5 390 801.5"/></g><g id="Front_Gate" data-name="Front Gate"><path class="Path_base" d="M138.5,383.5v16h-16a17,17,0,0,1-30,0h-15v-16h15a17,17,0,0,1,30,0Z"/><path class="cls-4" d="M138.5,383.5v16h-16a17,17,0,0,1-30,0h-15v-16h15a17,17,0,0,1,30,0Z"/><line class="cls-6" x1="77.5" y1="406.5" x2="77.5" y2="375.5"/><line class="cls-6" x1="138.5" y1="375.5" x2="138.5" y2="406.5"/></g><g id="SciGal"><polygon id="Walk" class="Path_base" points="1763.5 383.5 1727.5 460.5 1752.26 471.11 1788.24 391.17 1763.5 383.5"/><polyline class="Path_base" points="1722.11 457.51 1727.5 460.5 1752.26 471.11 1757.87 473.52"/><polyline class="Path_base" points="1757.87 381.76 1763.5 383.5 1788.24 391.17 1796.15 393.62"/><line class="Path_base" x1="1763.5" y1="383.5" x2="1727.5" y2="460.5"/><polygon id="Walk-2" data-name="Walk" class="cls-7" points="1763.5 383.5 1727.5 460.5 1752.26 471.11 1788.24 391.17 1763.5 383.5"/><polyline class="cls-8" points="1722.11 457.51 1727.5 460.5 1752.26 471.11 1757.87 473.52"/><polyline class="cls-8" points="1757.87 381.76 1763.5 383.5 1788.24 391.17 1796.15 393.62"/><line class="cls-8" x1="1763.5" y1="383.5" x2="1727.5" y2="460.5"/></g></g><g id="Text"><text class="cls-9" transform="translate(1945.83 422.69) rotate(15.45)">Goldsmith Hall, <tspan class="cls-10" x="105.98" y="0">P</tspan><tspan x="114.24" y="0">ea</tspan><tspan class="cls-11" x="130.2" y="0">r</tspan><tspan x="135.69" y="0">se St</tspan><tspan class="cls-12" x="166.85" y="0">r</tspan><tspan x="172.36" y="0">e</tspan><tspan class="cls-13" x="180.41" y="0">e</tspan><tspan x="188.36" y="0">t</tspan></text><text class="cls-9" transform="translate(2082.22 1042.09)">Nu<tspan class="cls-11" x="19.13" y="0">r</tspan><tspan x="24.62" y="0">sing Buildin</tspan><tspan class="cls-14" x="101.23" y="0">g</tspan><tspan x="109.05" y="0">, </tspan><tspan class="cls-15" x="116.8" y="0">D</tspan><tspan class="cls-16" x="126.96" y="0">’</tspan><tspan x="130.54" y="0">Olier St</tspan><tspan class="cls-12" x="179.69" y="0">r</tspan><tspan x="185.2" y="0">e</tspan><tspan class="cls-13" x="193.25" y="0">e</tspan><tspan x="201.2" y="0">t</tspan></text><text class="cls-9" transform="translate(2208.81 494.28) rotate(15.45)">TBSI + <tspan class="cls-17" x="43.92" y="0">T</tspan><tspan x="51.02" y="0">rinity Ce</tspan><tspan class="cls-18" x="106.42" y="0">n</tspan><tspan x="114.86" y="0">t</tspan><tspan class="cls-19" x="120.41" y="0">r</tspan><tspan x="125.74" y="0">al, </tspan><tspan class="cls-10" x="145.31" y="0">P</tspan><tspan x="153.57" y="0">ea</tspan><tspan class="cls-11" x="169.52" y="0">r</tspan><tspan x="175.02" y="0">se St</tspan><tspan class="cls-12" x="206.18" y="0">r</tspan><tspan x="211.69" y="0">e</tspan><tspan class="cls-13" x="219.74" y="0">e</tspan><tspan x="227.69" y="0">t</tspan></text></g></svg>