<?xml version="1.0" encoding="utf-8"?>
<!-- Generator: Adobe Illustrator 26.2.1, SVG Export Plug-In . SVG Version: 6.00 Build 0)  -->
<svg version="1.1" xmlns="http://www.w3.org/2000/svg" xmlns:xlink="http://www.w3.org/1999/xlink" x="0px" y="0px" width="1836px"
	 height="1150px" viewBox="0 0 1836 1150" style="enable-background:new 0 0 1836 1150;" xml:space="preserve">
<style type="text/css">
	.PassThrough{opacity:0.8;fill:#FFF0AD;}
	.PassThrough_x0020_2{opacity:0.8;fill:#FFF0AD;}
	.st0{fill:#FFF0AD;}
	.st1{fill:#369956;}
	.st2{fill:#C2F4FE;}
	.st3{fill:#DC281E;stroke:#000000;stroke-width:1.4173;stroke-miterlimit:10;}
	.st4{fill:#0087A2;stroke:#FFF0AD;stroke-width:1.4173;stroke-miterlimit:10;}
	.st5{opacity:0.5;}
	.st6{opacity:0.5;fill:#FFF0AD;}
</style>
<g id="Outside_Details">
	<g id="Path">
		<path class="st0" d="M352.2718,813.8913l0.0978-22.6956h2.8695v24.4565l794.3846,298.826l41.5038,14.1324l103.2539-1.8694
			l93.7056-60.0021l33.913-28.6957c0,0,44.2582,6.4578,54.5493,8.573c29.1025,5.9683,77.5596,24.2094,77.5596,24.2094
			l14.9595-39.8491l52.8658,19.1783l176.0227-480.1494L1575.0692,411.687l-47.1118-43.8734l-66.8545-28.7411l-75.7913-24.2928
			l-405.8769-118.758l-26.2174,88.4348l-45.1957-17.5721l-30.8547-11.1042l-95.4141-53.7828l-21.2452,59.8135l-95.6732-5.0144
			l-1.4131-3.183l-25.2704-4.0782l6.1312-180.3176l-22.334-7.0156l-3.4985,17.6928L385.5945,68.9552l-0.2953,4.882l-32.3817-0.8773
			v8.0184l32.1132,1.5652v17.9387L233.6087,97.147l-0.1411,30.6531l18.3094,1.1264l-5.0596,136.9565l-145.3696-5.3613
			l-3.2448,72.4037l-79.2552-3.2733l-1.6773,23.8044l79.2706,2.3951l-4.2237,82.0614l111.3484,4.5652l70.3034,58.9501
			l-3.0841,89.9131l66.9106,177.8433l-19.4972,32.467L352.2718,813.8913z"/>
	</g>
	<g id="Astro">
		
			<rect x="399.3361" y="126.4876" transform="matrix(0.0604 -0.9982 0.9982 0.0604 270.2279 584.0446)" class="st1" width="92" height="44"/>
		
			<rect x="443.2558" y="129.1445" transform="matrix(0.0604 -0.9982 0.9982 0.0604 308.8434 630.3806)" class="st1" width="92" height="44"/>
		
			<rect x="487.1755" y="131.8015" transform="matrix(0.0604 -0.9982 0.9982 0.0604 347.4589 676.7167)" class="st1" width="92" height="44"/>
	</g>
	<g id="Plinths">
		
			<rect x="604.261" y="497.0464" transform="matrix(0.0604 -0.9982 0.9982 0.0604 59.103 1147.8793)" class="st2" width="70" height="91"/>
		<polygon class="st2" points="620.913,785 621.913,774 593.913,773 588.65,872.0348 616.913,874 617.913,850 627.0317,850.3128 
			626.3071,862.2909 667.0565,851.1111 663.0953,916.5914 579.913,887 580.913,831 561.1201,830.2962 560.913,817 563.913,817 
			566.3809,809.576 574.7286,804.0701 574.913,796 583.913,796 585.913,761 594.913,761 595.7086,752.0421 570.1953,750.4986 
			572.6589,709.7731 675.2314,715.9782 673.1783,749.9161 637.6987,756.7863 635.9476,785.7333 		"/>
		<polygon class="st2" points="367.3661,204.2264 366.7014,233.2188 307.7169,231.8665 308.3815,202.8741 317.3792,203.0804 
			317.1958,211.0783 358.1851,212.018 358.3684,204.0201 		"/>
		<polygon class="st2" points="1324.6057,374.4218 1338.873,394.7705 1258.7482,370.2373 1261.7701,360.3618 1264.0227,361.0491 
			1278.1825,314.7797 1339.8895,333.0893 1339.8511,333.2272 1361.6776,339.9074 1361.7159,339.7694 1368.1686,341.7427 
			1323.6006,372.9885 		"/>
		<polygon class="st2" points="1364.5247,343.2493 1342.6981,336.5692 1342.7366,336.4312 1364.5631,343.1114 		"/>
		<polygon class="st2" points="1303.903,981.4094 1300.2793,997.9207 1282.5736,1005.265 1265.4637,998.9503 1258.8253,1001.7044 
			1254.6405,990.892 1267.3146,985.5776 1251.1876,948.6063 1271.1913,938.055 1283.8405,940.6035 1276.2279,975.3572 		"/>
		<polyline class="st2" points="1223.9889,1029.5717 1194.3241,1079.3459 1149.6238,1114.4781 1187.8414,1128.1088 
			1221.2322,1129.1268 1223.4061,1093.1926 1272.6185,1091.1605 1264.9635,1068.6572 1243.7915,1077.3246 1223.9889,1029.5717 		"/>
		<path class="st2" d="M1112.5901,997.4426"/>
		<polygon class="st2" points="1205.0441,852.1005 1187.2717,929.2681 1170.1678,925.3381 1176.6217,897.3167 1184.9314,899.2319 
			1189.7963,878.0972 1182.4154,876.3984 1188.8693,848.377 		"/>
		<polygon class="st2" points="1209.9131,947 1188.9131,1034 1124.9131,1073 1027.9131,1047 1035.9131,1008 1114.6022,1025.1738 
			1117.3335,1018.1099 1120.8008,1013.3108 1124.2257,1010.1735 1127.8804,1007.8015 1134.2014,1005.4007 1141.7024,1004.7257 
			1144.9436,1005.098 1151.875,1007.3501 1168.9131,940 		"/>
		<polygon class="st2" points="351.0006,475.585 350.7337,485.7628 302.5232,484.6766 302.7522,474.69 311.3081,474.9727 
			311.0869,479.7826 341.8696,480.5652 341.8696,475.3478 		"/>
	</g>
	<g id="Gates">
		<polygon class="st3" points="356.9456,779.2668 345.2609,778.087 338.4783,768.3043 336,772.413 342.7826,783.8261 
			356.6256,784.5563 		"/>
		
			<rect x="40.9017" y="339.0666" transform="matrix(-0.0604 0.9982 -0.9982 -0.0604 393.7961 314.44)" class="st3" width="16" height="7"/>
		
			<rect x="1361.9956" y="329.0973" transform="matrix(0.7682 -0.6402 0.6402 0.7682 106.0708 957.1825)" class="st3" width="26" height="6"/>
		
			<rect x="1682.8663" y="422.2997" transform="matrix(0.9278 0.3731 -0.3731 0.9278 280.9673 -600.9955)" class="st3" width="20.2299" height="6"/>
		
			<rect x="1156.8132" y="1118.3566" transform="matrix(0.94 0.3411 -0.3411 0.94 452.6105 -331.7518)" class="st3" width="26" height="6"/>
		<polygon class="st3" points="1462.4473,1038.8917 1436.6665,1035.5223 1435.8889,1041.4718 1461.6697,1044.8411 
			1462.4473,1038.8917 		"/>
		
			<rect x="619.0403" y="62.6558" transform="matrix(0.94 0.3411 -0.3411 0.94 60.2926 -211.6351)" class="st3" width="26" height="6"/>
	</g>
	<g id="Geens">
		
			<rect id="NewSquare" x="671.6226" y="295.3115" transform="matrix(0.0604 -0.9982 0.9982 0.0604 309.4152 1131.322)" class="st1" width="168" height="212"/>
		
			<rect id="RubricsLawn" x="534.4321" y="373.5708" transform="matrix(0.0604 -0.9982 0.9982 0.0604 188.7932 984.701)" class="st1" width="166" height="37"/>
		<polygon id="FellowsSquare" class="st1" points="565.7671,567.5073 562.2026,635.4138 548.4866,648.7131 397.6942,640.7979 
			384.4473,626.0832 388.0118,558.1767 402.4643,549.9229 553.2567,557.8382 		"/>
		<polygon id="RoseGarden" class="st1" points="926.5531,526.6117 922.6846,590.559 871.2786,587.4491 874.9361,516.5529 
			893.913,517.4293 893.913,525 		"/>
		<polygon id="MuseumGreen" class="st1" points="858.5115,545.3055 856.0054,586.7314 849.1265,586.3153 848.3967,602.0489 
			689.7057,593.9805 689.7057,587.8373 831.511,595.2697 834.5552,543.8562 		"/>
		<path id="RugbyPitch" class="st1" d="M1286.2291,471.1203l-20.5812,160.5302l-344.3704-20.8328l13.1639-217.6022l248.5456,15.0359
			l85.0267,32.4335C1280.381,445.4102,1287.9052,457.9875,1286.2291,471.1203z"/>
		<path id="CricketPitch" class="st1" d="M1176,836.6522c0,0-36.951,149.0161-38.6086,151.0435
			c-3.8556,4.7153-9.3646-1.9421-19.4348,4.9565c-9.4062,6.4438-5.3286,15.6708-10.5,16.5652
			c-8.8335,1.5278-367.1317-98.3466-369.9783-100.0435c-9.4822-5.6522-29.6-17.8058-30.9031-31.5396l-3.3817-36.0099
			c-2.0589-21.774,9.4029-125.6409,17.5891-142.9722c0.9363-1.9823,2.4379-6.1128,3.3913-8.0869
			c15.9096-32.9406,39.3359-63.8408,75.9131-63.3512l233.9999,13.2642c64.1005-1.8529,191.4783,49.1739,158.5109,197.576
			C1192.5978,838.0543,1180.8586,836.9783,1176,836.6522z"/>
		<path id="FitzgeraldLawn" class="st1" d="M1386.6281,656.4554l-5.1821,73.8436c-0.8949,14.793-4.9138,22.4668-19.7068,21.5718
			l-45.9783-0.8359c-16.6995-1.0103-37.0103-14.3572-36-31.0567l5.1545-68.2243c0.2168-3.5834,3.2971-6.3124,6.8806-6.0956
			l86.9069,1.8513C1383.2446,647.7844,1386.9028,651.9138,1386.6281,656.4554z"/>
		<polygon id="STEMTriangle" class="st1" points="1262.051,644.3079 1251.3154,714.7882 1139.6349,636.9023 		"/>
		<path id="PavGreen" class="st1" d="M1244.9911,729.6649l-13.0471,114.3207c-0.1281,1.1243-1.2245,1.8595-2.3186,1.5629
			l-13.8121-3.8611c-0.9948-0.2806-1.6486-1.2318-1.5458-2.2675l4.1703-43.2672c2.9536-30.6075-6.491-61.1235-26.2128-84.7074
			l-44.1615-52.813c-0.2896-0.3481-0.4332-0.7876-0.406-1.2368c0.0349-0.579,0.5394-0.9692,1.0485-0.9384
			c0.1797,0.0109,0.3563,0.0717,0.5194,0.1917l92.9272,66.613C1244.1882,724.7174,1245.2822,727.1679,1244.9911,729.6649z"/>
		<path id="ChemistryLawnNorth" class="st1" d="M1297.9934,776.8268l-6.4302,28.624c-0.3407,1.4921-2.35,1.7512-3.0496,0.3965
			l-21.6929-42.0066c-0.709-1.3653,0.0027-3.0253,1.462-3.468l7.6318-2.2833c2.5715-0.7761,5.3505-0.1772,7.3674,1.5878
			l12.7688,11.1714C1297.7444,772.3336,1298.4974,774.6232,1297.9934,776.8268z"/>
		<path id="ChemistryLawnSouth" class="st1" d="M1288.241,835.6833l-10.9047,56.0538c-0.8441,4.3469-5.1389,7.1127-9.4344,6.0814
			l-16.7479-4.0186c-4.0092-0.9639-6.6211-4.8186-6.0342-8.8906l13.6605-95.1487c0.2941-2.046,3.002-2.5934,4.0667-0.8159
			l24.2964,40.5411C1288.2629,831.3467,1288.6504,833.5541,1288.241,835.6833z"/>
		<polygon id="PhysicsGarden" class="st1" points="1646.4988,530.3004 1638.2351,553.905 1613.848,544.9828 1622.4418,521.499 		"/>
		<path id="BerkeleyTriangle" class="st1" d="M734.4584,634.324L707.47,670.4102c-1.4495,1.936-4.5292,0.6777-4.194-1.7164
			l5.3762-38.5257c0.2473-1.7682,1.8179-3.0558,3.6046-2.9477l19.4544,1.1769C734.6558,628.5754,736.2245,631.9563,734.4584,634.324
			z"/>
		<polygon id="FrontSquareNorth" class="st1" points="218.2925,310.7981 216.3096,343.5759 132.0539,338.4788 135.4979,281.549 
			189.1152,284.7925 		"/>
		<polygon id="FrontSquareSouth" class="st1" points="214.1533,362.6596 212.1947,395.0358 181.0596,420.5162 127.9853,417.3055 
			131.5933,357.6651 		"/>
		<path id="FrontGateSouth" class="st1" d="M63.1416,387.8394l-3.4419,56.896c0,0-9.8709-0.4058-9.8714-0.5972
			c-0.0348-15.6816-15.4953-36.0462-22.2774-48.2365c-6.3875-11.4811-11.1738-29.3308-10.3804-42.4452l33.9704,0.9097
			l-0.7057,11.666l5.9891,0.3623l-1.2681,20.9617L63.1416,387.8394z"/>
		
			<rect id="MuseumGreen_00000121248536888250217750000009003279359163724441_" x="835.9584" y="514.4598" transform="matrix(0.0604 -0.9982 0.9982 0.0604 270.4843 1340.2615)" class="st1" width="22.3587" height="24"/>
		
			<rect id="MuseumGreen_00000141454140161272480720000009778843890810876593_" x="1308.7867" y="505.9985" transform="matrix(0.0604 -0.9982 0.9982 0.0604 713.38 1805.6635)" class="st1" width="14.0054" height="35.8261"/>
		
			<rect id="MuseumGreen_00000149355226141529615240000010937242511320182417_" x="1304.4336" y="539.5308" transform="matrix(0.0604 -0.9982 0.9982 0.0604 678.0847 1835.233)" class="st1" width="18.8288" height="35.8261"/>
		
			<rect id="MuseumGreen_00000154401294862459221800000016754453171818404748_" x="1341.8126" y="533.2395" transform="matrix(0.0604 -0.9982 0.9982 0.0604 728.0235 1875.7015)" class="st1" width="37" height="35.8261"/>
		
			<rect id="MuseumGreen_00000164490650227244030130000008054127395159395508_" x="1381.8158" y="551.7357" transform="matrix(0.0604 -0.9982 0.9982 0.0604 753.7993 1917.337)" class="st1" width="27" height="13.087"/>
		
			<rect id="MuseumGreen_00000122701544101377710540000005040047129131666108_" x="1391.8033" y="526.5963" transform="matrix(0.0604 -0.9982 0.9982 0.0604 779.9739 1894.8641)" class="st1" width="9.3261" height="13.087"/>
		<polyline class="st1" points="1403.8505,914.4091 1399.6987,936.3393 1358.6201,926.7003 1363.3834,905.1474 1403.8505,914.4091 
					"/>
		<polygon class="st1" points="1295.2661,897.9216 1291.877,910.3901 1346.967,923.7306 1352.04,903.3798 1321.0767,896.5376 
			1319.6229,903.1819 		"/>
		<polygon id="PhysicsGarden_00000150810333961823522750000006224888284658277036_" class="st1" points="1629.5155,567.3445 
			1608.9677,626.0386 1612.1404,561.508 		"/>
		<path id="MuseumGreen_00000165207206647439099320000011906872812455462831_" class="st1" d="M1120.6716,382.7411
			c1.3676,0.4173,1.9407,2.0481,1.1206,3.2193c-0.9297,1.3277-2.9567,2.6853-3.8683,2.6809
			c-20.1522-0.0978-81.8479-16.7282-81.8479-16.7282c-1.3473-0.3122-4.0291-2.6902-4.0109-5.5761
			c0.0093-1.4694,1.08-4.33,1.8588-5.5761c1.2228-1.9565,5.3812-2.8289,7.3369-2.25L1120.6716,382.7411z"/>
		<path id="MuseumGreen_00000142170949827653298740000013105408768512756096_" class="st1" d="M1332.2969,578.5217l-0.4049,10.5732
			l-33.9825-1.2244l-1.6226,30.9575l33.9535,1.7796l-0.4127,7.873l-33.5997-1.7198c-5.3723-0.275-9.4821-4.8906-9.1344-10.2587
			l1.8534-28.6174c0.3702-5.7156,5.1729-10.1277,10.8992-10.013L1332.2969,578.5217z"/>
		<path id="FrontGateSouth_00000155864499942662753250000008164780980227507089_" class="st1" d="M67.6403,302.1576l2.914-53.5096
			c0,0-10.7179-0.5795-10.7365-0.389c-1.52,15.6078-15.5203,24.5088-23.4265,36.0018
			c-7.4463,10.8244-17.091,32.2608-17.5435,45.3913l34.2261,2.0245l0.4121-7.8632l5.9918,0.3141l1.1515-21.9698H67.6403z"/>
		
			<rect id="Library_Square_North" x="376.3264" y="288.8116" transform="matrix(0.999 0.0448 -0.0448 0.999 15.0887 -20.5523)" class="st1" width="179.6265" height="75.1893"/>
		
			<rect id="Library_Square_South" x="371.4238" y="379.5976" transform="matrix(0.999 0.0448 -0.0448 0.999 19.2869 -20.2541)" class="st1" width="180.3217" height="81.2708"/>
	</g>
</g>
<g id="Unprocessed">
	<polygon class="st4" points="1149.0641,242.7212 1137.9656,280.0415 1100.2805,268.8337 1106.8335,246.7865 1111.3685,231.5229 	
		"/>
	<polygon class="st4" points="1111.1635,231.422 1106.5917,246.8138 1100.0756,268.7328 1062.6465,257.6086 1062.38,257.5345 
		1064.361,250.8791 1073.4302,220.3719 1073.4785,220.2143 	"/>
	<polygon class="st4" points="1064.361,250.8791 1062.38,257.5345 1062.6465,257.6086 1062.5988,257.7563 1051.5554,254.4738 
		1048.124,253.4527 1048.915,250.7805 1049.6078,248.4536 1059.222,216.1425 1073.4302,220.3719 	"/>
	<polygon class="st4" points="1051.5554,254.4738 1041.9504,286.7953 987.3256,270.554 994.6916,245.7956 996.4657,239.8403 
		1012.4441,244.3027 1014.2491,237.9485 1049.6078,248.4536 1048.915,250.7805 1048.124,253.4527 	"/>
	<polygon class="st4" points="1023.5132,206.9709 1014.2491,237.9485 1012.4441,244.3027 996.4657,239.8403 996.0116,239.7163 
		1006.4689,202.5928 	"/>
	<polygon class="st4" points="1261.2577,276.4207 1256.6392,291.9402 1252.3588,306.3559 1234.5117,301.0545 1234.2751,300.9821 
		1239.2594,284.2199 1243.088,271.3527 1243.1743,271.0468 	"/>
	<polygon class="st4" points="1279.5363,281.7046 1279.5247,281.734 1274.1755,299.7287 1270.6257,311.6693 1270.6248,311.6892 
		1252.5416,306.3054 1256.7958,292.0085 1261.4528,276.3307 	"/>
	<polygon class="st4" points="1296.178,286.6924 1290.1851,306.8464 1287.3031,316.5488 1287.2794,316.6177 1276.3051,313.3588 
		1270.6257,311.6693 1270.2216,311.5479 1273.7841,299.558 1279.1205,281.6127 1279.5247,281.734 	"/>
	<polygon class="st4" points="1313.4584,291.7238 1306.7726,314.2047 1304.5845,321.5602 1304.5593,321.659 1287.4918,316.5788 
		1290.3616,306.9157 1296.3903,286.6535 1313.1329,291.6266 	"/>
	<polygon class="st4" points="1332.5132,297.2888 1325.0721,322.3336 1323.6143,327.224 1304.5845,321.5602 1304.2592,321.4631 
		1306.4592,314.0681 1313.1329,291.6266 1313.1576,291.5378 	"/>
	<polygon class="st4" points="1349.0461,302.2509 1340.9744,329.3956 1340.1719,332.0973 1324.0699,327.318 1325.4926,322.5259 
		1332.9548,297.4621 	"/>
	<polygon class="st4" points="1371.0344,309.971 1362.1608,339.8074 1362.1234,339.9456 1340.2438,333.4416 1340.2811,333.3033 
		1341.121,330.4634 1349.1555,303.4569 	"/>
</g>
<g id="Unknown_Buildings">
	<polygon class="st4" points="1284.2092,1091.1702 1196.4131,1094.5 1196.4131,1107.5 1189.4131,1107.5 1189.4131,1128.5 
		1220.4131,1130.5 1252.1044,1130.5437 1294.3813,1126.7412 	"/>
	<polygon class="st4" points="1049.1216,248.3362 1014.7289,237.239 1023.5882,206.7183 1059.0997,215.8795 	"/>
	<polygon class="st4" points="1278.4287,314.4915 1264.6422,360.8735 1262.384,360.2044 1233.9279,351.7434 1247.7145,305.3615 
		1276.1705,313.8224 	"/>
	<polygon class="st4" points="1170.9769,249.9991 1169.9554,253.4403 1148.2325,326.4835 1148.2195,326.5429 1128.1738,320.5856 
		1150.6865,244.8901 1150.9413,244.0423 1170.7599,249.9377 	"/>
	<polygon class="st4" points="1188.4423,255.1303 1186.7285,260.8885 1165.6848,331.6741 1148.2325,326.4835 1148.0155,326.4221 
		1169.7399,253.349 1170.7599,249.9377 1170.7729,249.8783 	"/>
	<polygon class="st4" points="1207.2266,260.8914 1204.8322,268.937 1184.4822,337.3758 1184.469,337.4352 1165.863,331.9037 
		1186.9436,260.9899 1188.6205,255.3599 	"/>
	<polygon class="st4" points="1225.1355,266.1559 1222.0358,276.5779 1202.4143,342.5814 1202.3781,342.6997 1184.4822,337.3758 
		1204.8322,268.937 1207.2266,260.8914 1207.2397,260.832 1224.9089,266.084 	"/>
	<polygon class="st4" points="1243.3246,271.4252 1239.4844,284.3218 1234.5117,301.0545 1220.5671,347.9689 1202.4143,342.5814 
		1202.1877,342.5095 1221.8208,276.4766 1224.9089,266.084 1224.9452,265.9657 1243.088,271.3527 	"/>
</g>
<g id="Buildings">
	<g id="House_40">
		
			<rect x="874.9535" y="470.8535" transform="matrix(0.0523 -0.9986 0.9986 0.0523 377.5109 1373.522)" class="st4" width="75" height="34"/>
	</g>
	<g id="House_39">
		
			<rect x="876.4589" y="390.406" transform="matrix(0.0523 -0.9986 0.9986 0.0523 456.7017 1304.077)" class="st4" width="78" height="42"/>
	</g>
	<g id="House_38">
		
			<rect x="883.9092" y="319.0618" transform="matrix(0.0523 -0.9986 0.9986 0.0523 536.6338 1237.6199)" class="st4" width="73" height="34"/>
	</g>
	<g id="House_37">
		
			<rect x="861.7504" y="258.5698" transform="matrix(0.0523 -0.9986 0.9986 0.0523 548.2559 1140.8831)" class="st4" width="27" height="46"/>
	</g>
	<g id="House_36">
		
			<rect x="817.8107" y="258.2668" transform="matrix(0.0523 -0.9986 0.9986 0.0523 508.9158 1094.8212)" class="st4" width="27" height="42"/>
	</g>
	<g id="House_35">
		
			<rect x="768.8779" y="248.7022" transform="matrix(0.0523 -0.9986 0.9986 0.0523 465.1053 1043.525)" class="st4" width="27" height="56"/>
	</g>
	<g id="House_34">
		
			<rect x="719.4457" y="252.6113" transform="matrix(0.0523 -0.9986 0.9986 0.0523 420.8477 991.7054)" class="st4" width="27" height="43"/>
	</g>
	<g id="House_33">
		
			<rect x="674.0081" y="247.7299" transform="matrix(0.0523 -0.9986 0.9986 0.0523 380.1665 944.0732)" class="st4" width="27" height="48"/>
	</g>
	<g id="Zoology">
		
			<rect id="_x39_9" x="1392.9739" y="709.299" transform="matrix(0.0523 -0.9986 0.9986 0.0523 618.7236 2112.5994)" class="st4" width="59" height="42"/>
	</g>
	<g id="Westland_Row">
		<polygon class="st4" points="1747.9047,701.2073 1683.3468,880.0271 1654.6429,959.5451 1621.4231,1051.5708 1595.5408,1042.2255 
			1628.7606,950.1998 1653.7699,880.92 1657.4644,870.6818 1682.4969,801.3638 1721.9823,691.9791 		"/>
	</g>
	<g id="Watt">
		<polygon id="_x31_09" class="st4" points="1682.3168,801.4792 1657.3473,870.642 1653.6528,880.8801 1630.5756,872.5517 
			1629.3973,872.1222 1604.5769,863.1566 1549.1885,843.16 1577.8523,763.7592 1633.241,783.7557 		"/>
	</g>
	<g id="Ussher_Library">
		<polygon id="_x37_7" class="st4" points="678.2175,748.7627 672.9416,849.4245 665.8267,851.4349 625.1686,862.9426 
			625.7967,850.959 617.8076,850.5403 616.5515,874.5074 587.5912,872.9896 592.8253,773.1266 621.7855,774.6445 621.2097,785.6295 
			634.1919,786.3099 635.7098,757.3496 671.1329,750.1938 		"/>
	</g>
	<g id="Trinity_Sport_Centre">
		<polygon id="_x39_5" class="st4" points="1797.6814,571.2097 1817.8964,500.4622 1818.342,496.7751 1818.1993,492.4308 
			1817.5109,488.4239 1816.1855,484.3257 1814.3926,480.575 1811.9196,476.9525 1808.8115,473.5507 1804.644,470.3156 
			1800.4032,468.0583 1683.4131,422.5 1655.4131,498.5 		"/>
	</g>
	<g id="TRLH">
		
			<rect id="_x37_8" x="304.8093" y="559.2515" transform="matrix(0.0523 -0.9986 0.9986 0.0523 -305.3969 898.6804)" class="st4" width="32" height="102"/>
	</g>
	<g id="Business_School">
		<polygon id="_x38_8" class="st4" points="1563.8297,461.6172 1480.9435,457.2729 1472.9724,447.7227 1336.5496,440.5725 
			1359.8412,423.9588 1359.6735,423.7196 1337.7617,392.9907 1323.3309,372.7576 1322.3142,371.3325 1366.629,339.7286 
			1378.0929,331.5474 1384.6113,314.5553 1461.1029,339.0725 		"/>
	</g>
	<g id="TILDA">
		
			<rect id="_x39_6" x="1427.306" y="860.6064" transform="matrix(0.206 -0.9786 0.9786 0.206 265.9199 2133.0435)" class="st4" width="40.071" height="84.1107"/>
	</g>
	<g id="Lloyd">
		<polygon id="_x38_9" class="st4" points="1595.6895,504.3419 1589.5657,621.1815 1501.6863,616.5756 1509.0139,476.7675 
			1562.9399,479.5939 1562.3641,490.5788 1580.3395,491.5209 1579.7114,503.5045 		"/>
	</g>
	<g id="SNIAM">
		
			<rect id="_x39_0" x="1387.4159" y="509.1592" transform="matrix(0.0523 -0.9986 0.9986 0.0523 837.7213 1971.0962)" class="st4" width="140" height="70"/>
	</g>
	<g id="Smurfit">
		<polygon id="_x31_11" class="st4" points="1616.4271,983.6298 1593.3751,1047.4937 1592.9979,1048.5258 1585.9552,1045.9812 
			1573.6062,1041.5015 1567.5659,1055.9111 1483.4398,1025.5431 1512.157,945.9861 1512.2059,946.0002 1512.1926,946.0392 
			1567.4551,965.9851 1616.3367,983.6323 1616.349,983.6031 		"/>
	</g>
	<g id="Simon_Perry">
		<polygon id="_x31_17" class="st4" points="1329.0582,406.25 1317.9569,438.1143 1242.7043,411.9215 1242.7173,411.8926 
			1253.8058,380.0573 1254.6797,380.3645 		"/>
	</g>
	<g id="Samuel_Beckett_Theatre">
		<polygon id="_x39_3" class="st4" points="913.5602,176.4441 896.527,236.9592 895.9672,240.3575 896.7319,243.6054 
			898.6778,246.0142 901.1695,247.5309 911.7695,250.542 905.8008,271.7587 953.7695,285.2679 962.5421,254.1143 989.9105,261.8657 
			1006.4689,202.5928 		"/>
	</g>
	<g id="Regent_House">
		<polygon id="_x38_2" class="st4" points="114.4024,327.0062 112.2041,368.9486 104.2151,368.5299 103.116,389.5011 
			56.1804,387.0411 57.2795,366.0699 51.2877,365.7559 53.486,323.8134 59.4778,324.1275 60.6293,302.1576 107.5649,304.6176 
			106.4134,326.5875 		"/>
	</g>
	<g id="Printing_House">
		
			<rect id="_x31_42" x="615.3121" y="203.1559" transform="matrix(0.0523 -0.9986 0.9986 0.0523 400.3642 856.2093)" class="st4" width="72" height="28"/>
	</g>
	<g id="Physiology">
		
			<rect id="_x31_00" x="1392.9821" y="647.1343" transform="matrix(0.0523 -0.9986 0.9986 0.0523 683.8907 2056.9419)" class="st4" width="65.5" height="42"/>
	</g>
	<g id="The_Pav">
		<polygon id="_x31_06" class="st4" points="1228.7539,857.1339 1211.6439,934.2541 1195.1428,930.5954 1195.1176,930.6942 
			1185.9514,928.6616 1184.6547,928.3734 1201.8046,851.0651 1204.1703,851.5896 1212.0791,853.3459 1212.0645,853.4353 		"/>
	</g>
	<g id="Parsons">
		<polygon id="_x31_04" class="st4" points="1346.2755,1034.2106 1243.2357,1077.9374 1223.049,1030.3456 1236.8138,1024.498 
			1240.1055,1009.65 1257.6597,1002.1985 1264.2756,999.391 1281.4359,1005.5676 1299.0819,998.0809 1302.5724,981.541 
			1274.8495,975.712 1282.1816,940.898 1282.1964,940.8087 1287.1682,941.8603 1333.0852,951.5269 1329.891,967.5717 
			1326.0889,986.6187 1329.0205,993.5417 		"/>
	</g>
	<g id="Panoz">
		<polygon id="_x31_10" class="st4" points="1653.7699,880.92 1628.7606,950.1998 1628.4482,950.0934 1616.349,983.6031 
			1567.4675,965.956 1512.2059,946.0002 1540.9098,866.4822 1596.1813,886.4388 1620.9924,895.3937 1629.3973,872.1222 
			1630.5756,872.5517 1653.6528,880.8801 		"/>
	</g>
	<g id="O_x27_Reilly">
		<polygon id="_x31_07" class="st4" points="1761.0881,664.6874 1747.9047,701.2073 1721.9823,691.9791 1725.0098,682.8795 
			1724.7872,683.5031 1675.8176,665.8286 1612.2369,642.8703 1638.5391,570.0056 1751.09,610.6284 1734.9017,655.4973 		"/>
	</g>
	<g id="Chapel">
		<polygon id="_x38_3" class="st4" points="296.3883,218.4335 292.4104,294.3293 271.4392,293.2302 271.0728,300.2206 
			232.1263,298.1793 232.4927,291.1889 214.5173,290.2468 217.5007,233.3249 235.476,234.267 237.6743,192.3246 248.9314,182.1544 
			265.4088,183.018 275.6209,194.3659 275.4171,217.3343 		"/>
	</g>
	<g id="Old_Library">
		
			<rect id="_x37_9" x="459.3501" y="398.672" transform="matrix(0.0523 -0.9986 0.9986 0.0523 -53.072 973.4175)" class="st4" width="54" height="232"/>
	</g>
	<g id="Red_Brick_Building">
		<polygon id="_x31_16" class="st4" points="1254.6936,380.3257 1254.6797,380.3645 1243.6014,412.2009 1242.7173,411.8926 
			1125.8357,371.2139 1136.928,339.3387 		"/>
	</g>
	<g id="Naughton_Institute">
		<polygon id="_x39_4" class="st4" points="1683.4131,422.5 1655.4131,498.5 1629.4197,476.2728 1562.6414,412.9708 
			1527.9574,367.8135 		"/>
	</g>
	<g id="Museum_Building">
		
			<rect id="_x38_7" x="721.2805" y="479.1104" transform="matrix(0.0523 -0.9986 0.9986 0.0523 173.5001 1283.0525)" class="st4" width="83" height="142"/>
	</g>
	<g id="Moyne">
		<polygon id="_x31_05" class="st4" points="1210.621,947.3821 1189.4131,1034.5 1167.4131,1049.5 1178.4131,1071.5 
			1152.4131,1086.5 1138.8792,1065.6656 1125.4131,1073.5 1027.3065,1046.7937 1034.2295,1015.5833 1118.2101,1034.2042 
			1118.2273,1033.6844 1118.7888,1029.6583 1121.2213,1023.3671 1124.3094,1019.0928 1127.3597,1016.2986 1130.6147,1014.1862 
			1136.2444,1012.0479 1142.925,1011.4467 1145.8116,1011.7783 1151.9851,1013.7841 1157.5262,1017.5393 1177.4131,940.5 		"/>
	</g>
	<g id="Mail_Centre">
		<polygon id="_x31_18" class="st4" points="1627.9858,489.0058 1616.5605,501.2245 1516.5549,396.3065 1529.6304,386.0367 		"/>
	</g>
	<g id="Loyola_Institute">
		
			<rect id="_x31_01" x="1478.1102" y="608.851" transform="matrix(0.0523 -0.9986 0.9986 0.0523 762.0443 2109.2324)" class="st4" width="28.5" height="88.5"/>
	</g>
	<g id="Laundrette">
		
			<rect id="_x31_19" x="230.237" y="129.6442" transform="matrix(0.0296 -0.9996 0.9996 0.0296 95.8221 376.3373)" class="st4" width="23" height="18.346"/>
	</g>
	<g id="House_9">
		
			<rect id="_x31_28" x="139.6663" y="230.1867" transform="matrix(0.0523 -0.9986 0.9986 0.0523 -98.407 391.6736)" class="st4" width="35" height="35"/>
	</g>
	<g id="House_8">
		
			<rect id="_x31_27" x="104.7143" y="228.3548" transform="matrix(0.0523 -0.9986 0.9986 0.0523 -129.7002 355.0335)" class="st4" width="35" height="35"/>
	</g>
	<g id="House_7">
		
			<rect id="_x31_26" x="59.7382" y="237.0353" transform="matrix(0.0523 -0.9986 0.9986 0.0523 -171.015 327.8577)" class="st4" width="55" height="34"/>
	</g>
	<g id="House_6">
		
			<rect id="_x31_25" x="73.6969" y="274.9819" transform="matrix(0.0523 -0.9986 0.9986 0.0523 -210.844 361.7797)" class="st4" width="23" height="34"/>
	</g>
	<g id="House_5">
		
			<rect id="_x31_24" x="60.1516" y="390.3236" transform="matrix(0.0523 -0.9986 0.9986 0.0523 -331.7564 465.0474)" class="st4" width="38" height="34"/>
	</g>
	<g id="House_4">
		
			<rect id="_x31_23" x="55.0057" y="431.2674" transform="matrix(0.0523 -0.9986 0.9986 0.0523 -374.6777 501.7052)" class="st4" width="44" height="34"/>
	</g>
	<g id="House_3">
		
			<rect id="_x31_22" x="93.2491" y="436.5676" transform="matrix(0.0523 -0.9986 0.9986 0.0523 -348.019 541.3983)" class="st4" width="36" height="35"/>
	</g>
	<g id="House_28">
		<polygon id="_x31_37" class="st4" points="561.0677,218.488 558.0844,275.4099 528.1255,273.8397 528.4918,266.8493 
			520.5028,266.4306 522.8581,221.4922 530.8472,221.911 531.1088,216.9178 		"/>
	</g>
	<g id="House_27">
		
			<rect id="_x31_49" x="581.5825" y="240.7954" transform="matrix(0.0523 -0.9986 0.9986 0.0523 311.4105 836.7503)" class="st4" width="30" height="27"/>
	</g>
	<g id="House_26">
		
			<rect id="_x31_48" x="574.2795" y="285.7351" transform="matrix(0.0523 -0.9986 0.9986 0.0523 260.5594 873.0435)" class="st4" width="32" height="27"/>
	</g>
	<g id="House_25">
		
			<rect id="_x31_47" x="565.7644" y="324.1823" transform="matrix(0.0523 -0.9986 0.9986 0.0523 220.2552 907.4661)" class="st4" width="45" height="27"/>
	</g>
	<g id="House_24">
		
			<rect id="_x31_46" x="563.9353" y="368.6213" transform="matrix(0.0523 -0.9986 0.9986 0.0523 173.6699 947.2532)" class="st4" width="44" height="27"/>
	</g>
	<g id="House_23">
		
			<rect id="_x31_45" x="561.6323" y="412.561" transform="matrix(0.0523 -0.9986 0.9986 0.0523 127.608 986.5933)" class="st4" width="44" height="27"/>
	</g>
	<g id="House_22">
		
			<rect id="_x31_44" x="565.6434" y="450.5089" transform="matrix(0.0523 -0.9986 0.9986 0.0523 87.8273 1020.5688)" class="st4" width="32" height="27"/>
	</g>
	<g id="House_20">
		
			<rect id="_x31_30" x="353.146" y="42.0149" transform="matrix(0.0523 -0.9986 0.9986 0.0523 291.8895 423.6184)" class="st4" width="32" height="32"/>
	</g>
	<g id="House_2">
		
			<rect id="_x31_21" x="128.2011" y="438.3995" transform="matrix(0.0523 -0.9986 0.9986 0.0523 -316.7257 578.0384)" class="st4" width="36" height="35"/>
	</g>
	<g id="House_19">
		
			<rect id="_x31_31" x="393.0953" y="38.9515" transform="matrix(0.0523 -0.9986 0.9986 0.0523 324.971 462.3523)" class="st4" width="26" height="42"/>
	</g>
	<g id="House_18">
		
			<rect id="_x31_32" x="436.0363" y="40.2021" transform="matrix(0.0523 -0.9986 0.9986 0.0523 363.417 507.3673)" class="st4" width="26" height="44"/>
	</g>
	<g id="House_17">
		
			<rect id="_x31_33" x="479.4767" y="42.9789" transform="matrix(0.0523 -0.9986 0.9986 0.0523 402.31 552.9058)" class="st4" width="26" height="43"/>
	</g>
	<g id="House_16">
		
			<rect id="_x31_34" x="522.4178" y="45.2295" transform="matrix(0.0523 -0.9986 0.9986 0.0523 440.756 597.9208)" class="st4" width="26" height="43"/>
	</g>
	<g id="House_15">
		
			<rect id="_x31_35" x="556.8395" y="52.7177" transform="matrix(0.0523 -0.9986 0.9986 0.0523 474.2081 638.1486)" class="st4" width="33" height="33"/>
	</g>
	<g id="House_14">
		
			<rect id="_x31_36" x="591.5878" y="78.5181" transform="matrix(0.0523 -0.9986 0.9986 0.0523 481.5255 691.4603)" class="st4" width="27" height="27"/>
	</g>
	<g id="House_13">
		
			<rect id="_x31_41" x="580.7035" y="114.4688" transform="matrix(0.0523 -0.9986 0.9986 0.0523 443.8384 723.6476)" class="st4" width="45" height="27"/>
	</g>
	<g id="House_12">
		
			<rect id="_x31_40" x="578.8744" y="158.9078" transform="matrix(0.0523 -0.9986 0.9986 0.0523 397.2531 763.4347)" class="st4" width="44" height="27"/>
	</g>
	<g id="House_11">
		
			<rect id="_x31_39" x="576.0452" y="203.3468" transform="matrix(0.0523 -0.9986 0.9986 0.0523 350.6678 803.2218)" class="st4" width="45" height="27"/>
	</g>
	<g id="House_10">
		
			<rect id="_x31_29" x="178.1136" y="228.7018" transform="matrix(0.0523 -0.9986 0.9986 0.0523 -63.9844 431.9778)" class="st4" width="35" height="42"/>
	</g>
	<g id="House_1">
		
			<rect id="_x31_20" x="165.1504" y="438.3361" transform="matrix(0.0523 -0.9986 0.9986 0.0523 -283.6443 616.7723)" class="st4" width="36" height="39"/>
	</g>
	<g id="House_30">
		<polygon id="_x31_38" class="st4" points="429.9856,216.6246 427.6303,261.5629 421.6385,261.2489 421.169,270.2066 
			391.2101,268.6364 394.2966,209.7472 424.2555,211.3174 423.9938,216.3106 		"/>
	</g>
	<g id="Hamilton">
		<polygon id="_x31_08" class="st4" points="1724.7872,683.5031 1682.3799,801.3239 1633.304,783.6004 1577.9055,763.603 
			1577.8523,763.7592 1577.6962,763.706 1612.457,667.4037 1668.0118,687.4542 1675.8176,665.8286 		"/>
	</g>
	<g id="GMB">
		<polygon id="_x31_" class="st4" points="522.8581,221.4922 520.5028,266.4306 495.5371,265.1221 495.1707,272.1125 
			449.2337,269.7048 449.6001,262.7144 427.6303,261.5629 429.9856,216.6246 451.9554,217.7761 452.2171,212.7829 
			498.1541,215.1906 497.8924,220.1837 		"/>
	</g>
	<g id="Fitzgerald">
		<polygon id="_x31_02" class="st4" points="1408.7573,593.6803 1407.1348,624.6378 1373.1814,622.8583 1372.5532,634.8418 
			1329.6122,632.5912 1330.2404,620.6077 1296.2869,618.8281 1297.9094,587.8706 1331.8628,589.6501 1332.491,577.6666 
			1375.432,579.9172 1374.804,591.9008 		"/>
	</g>
	<g id="Exam_Hall">
		<polygon id="_x38_1" class="st4" points="204.6649,419.9102 225.6361,421.0093 226.0548,413.0203 265.9932,415.2442 
			265.5745,423.2332 285.5471,424.28 281.4713,502.0428 261.472,501.1252 261.4229,502.0619 260.8547,504.1681 259.5902,506.9886 
			257.3647,509.884 254.6815,512.1893 251.9678,513.7795 248.9438,514.9395 245.5406,515.7665 242.2934,516.0357 238.9604,515.7402 
			235.7397,515.1464 232.5622,514.0439 229.6547,512.5795 227.1906,510.7319 225.1147,508.532 223.532,506.1023 222.3111,503.2711 
			221.5536,498.9024 221.7106,495.9065 222.6527,477.9312 201.6815,476.8321 		"/>
	</g>
	<g id="Dining_Hall">
		
			<rect id="_x38_4" x="299.0429" y="150.9602" transform="matrix(0.0281 -0.9996 0.9996 0.0281 159.1118 506.5598)" class="st4" width="82" height="41"/>
	</g>
	<g id="Dental_School">
		<polygon id="_x31_03" class="st4" points="1439.3888,1012.5143 1438.3562,1015.3254 1437.0652,1019.913 1434.326,1025.1957 
			1431.5869,1030 1426.1086,1039.1383 1423.5652,1042.4131 1419.4565,1046.5217 1375.826,1079.3492 1329.4135,1107.5586 
			1294.3813,1126.7412 1294.3608,1126.7502 1284.2092,1091.1702 1371.0251,1039.6434 1361.6669,1027.1365 1346.2755,1034.2106 
			1329.0205,993.5417 1326.0889,986.6187 1329.891,967.5717 1333.2654,951.5263 1428.9922,971.6743 1424.3376,993.801 
			1440.4131,992.9713 1440.4103,1002.7687 1440.0302,1008.9562 1439.3888,1012.5143 		"/>
	</g>
	<g id="College_Health">
		<polygon id="_x31_15" class="st4" points="1127.752,288.6456 1104.7886,365.8695 1088.0459,360.8964 1088.0212,360.9852 
			1070.6672,355.8298 1070.6189,355.9875 1045.8212,348.6095 1068.7844,271.3856 1093.5829,278.7536 1076.6477,335.7253 
			1085.946,338.4857 1102.9541,281.2676 		"/>
	</g>
	<g id="Chemistry">
		<polygon id="_x39_7" class="st4" points="1412.3005,863.8395 1401.8732,913.3817 1321.302,896.7718 1319.9017,903.4277 
			1287.0883,896.5207 1288.4886,889.8649 1288.3698,889.8386 1310.209,786.1095 1366.9614,798.0563 1366.9598,798.0862 
			1412.1636,807.6053 1400.8679,861.2977 1400.9767,861.3234 1400.9498,861.4521 		"/>
	</g>
	<g id="Camponile">
		
			<rect id="_x31_43" x="376.535" y="349.3709" transform="matrix(0.0615 -0.9981 0.9981 0.0615 0.763 735.5532)" class="st4" width="30" height="36"/>
	</g>
	<g id="Buttery">
		<polygon id="_x38_5" class="st4" points="403.342,108.2109 400.8736,196.1763 383.8803,195.6994 383.5998,205.6955 
			359.6092,205.0223 361.6849,131.0514 320.7011,129.9013 321.5706,98.9135 386.5451,100.7368 386.3487,107.7341 		"/>
	</g>
	<g id="Botany">
		<polygon id="_x39_1" class="st4" points="1414.3577,486.827 1413.6772,499.8092 1404.1139,510.323 1311.2413,505.4554 
			1304.8267,494.1041 1305.5071,481.1219 1313.0732,470.5034 1405.9458,475.371 		"/>
	</g>
	<g id="Berkeley_Library">
		
			<rect id="_x33_" x="565.5842" y="602.032" transform="matrix(0.0523 -0.9986 0.9986 0.0523 -43.7765 1245.9331)" class="st4" width="138" height="88"/>
	</g>
	<g id="Atrium">
		<polygon id="_x38_6" class="st4" points="321.5706,98.9135 318.6253,203.8722 289.6367,203.0587 290.338,178.0686 
			263.3486,177.3112 264.9979,117.5376 242.0279,117.4679 242.5927,97.3427 		"/>
	</g>
	<g id="Arts_00000096752981032805663940000000317167164447212203_">
		<polygon id="_x32_" class="st4" points="596.0819,761.3708 586.7048,760.8793 585.4244,796.5813 576.5067,796.1139 
			576.1227,802.102 567.8196,807.675 564.3003,817.5043 524.8145,815.4348 516.789,826.0293 483.5946,824.2895 465.9594,802.3364 
			461.6508,808.1188 432.5625,807.1349 427.0652,799.2965 420.0748,798.9301 413.4508,791.5733 355.4779,789.5363 
			355.8967,781.5472 343.9131,780.9191 340.8703,775.5425 340.8614,775.522 337.4984,769.5678 325.5149,768.9398 322.7807,763.7896 
			266.8575,760.8585 267.2955,752.5 259.2871,752.4507 253.7141,744.1477 243.7278,743.6243 244.2978,732.7492 268.2706,733.8955 
			268.951,720.9133 277.9387,721.3844 281.0185,624.4127 365.832,628.8579 363.4139,674.9946 381.1296,675.9231 381.7305,664.4588 
			415.0525,665.4843 414.4139,677.6676 435.8445,678.7908 436.9097,658.4687 575.591,663.9849 571.1578,748.5688 596.6827,749.9066 
					"/>
	</g>
	<g id="Aras_an_Phiarsaigh">
		<polygon id="_x39_2" class="st4" points="903.9382,173.2344 876.58,255.9759 831.4197,241.0417 829.3177,245.0372 
			826.9717,248.3389 823.5903,249.4234 819.5164,249.1999 816.9331,248.8142 812.5952,247.7056 808.3298,246.3605 804.458,245.3364 
			802.1107,245.0332 799.9101,245.1782 797.5919,245.6575 793.3101,246.9151 788.074,248.4231 784.8723,249.1366 781.3802,248.7032 
			774.9907,246.6159 777.3543,239.7302 770.8992,237.7496 769.47,237.3142 802.0324,139.5344 		"/>
	</g>
	<g id="Anatomy">
		<polygon id="_x39_8" class="st4" points="1506.3114,820.6208 1499.2552,854.1776 1499.1067,854.1497 1492.3235,886.3187 
			1461.7192,879.8681 1468.4923,847.6985 1437.7688,841.2316 1432.156,867.8843 1400.9767,861.3234 1412.2823,807.6316 
			1412.1636,807.6053 1412.2687,807.1302 1434.821,811.8771 1437.5071,760.6274 1441.9011,760.8577 1443.1572,736.8906 
			1463.1299,737.9374 1459.3148,810.7275 		"/>
	</g>
	<g id="_x31_937">
		<polygon id="_x38_0" class="st4" points="355.2625,513.0179 352.0174,574.9329 290.1024,571.6879 293.3475,509.7729 
			300.3379,510.1392 301.7094,483.9709 351.683,485.7842 350.2693,512.7562 		"/>
	</g>
</g>
<g id="Pass_throughs">
	<g id="Nassau_00000143612013384846919150000012772817565082480022_" class="st5">
		<g>
			<polygon class="st0" points="381.4696,675.778 380.9131,692 363.9131,691 362.9131,705 359.4602,712.7824 356.4887,781.4763 
				343.7807,780.8268 337.8095,769.7277 341.8714,704.3079 329.0085,703.2328 330.9131,678 357.9131,680 362.9131,675 			"/>
		</g>
		<g>
			<polygon class="PassThrough" points="381.4696,675.778 380.9131,692 363.9131,691 362.9131,705 359.4602,712.7824 
				356.4887,781.4763 343.7807,780.8268 337.8095,769.7277 341.8714,704.3079 329.0085,703.2328 330.9131,678 357.9131,680 
				362.9131,675 			"/>
		</g>
	</g>
	<g id="Front_Gate_00000125579173973280202900000018294799752062957963_" class="st5">
		<path class="PassThrough" d="M113.722,337.9883l-0.8374,15.9781l-15.9781-0.8375c-3.1366,5.203-8.9594,8.5428-15.4505,8.2026
			c-6.4911-0.3402-11.9329-4.2704-14.5084-9.7728l-14.9794-0.7851l0.8374-15.9781l14.9794,0.7851
			c3.1366-5.203,8.9594-8.5428,15.4505-8.2026c6.4911,0.3402,11.9329,4.2704,14.5084,9.7728L113.722,337.9883z"/>
	</g>
	<g id="SciGal_00000109708489911744457420000008128587992069535880_" class="st5">
		<g>
			<polygon id="Walk_00000091705129092324582040000012784181232489361852_" class="st0" points="1683.9131,423 1655.5138,498.0511 
				1673.9131,508 1701.9131,430 			"/>
		</g>
		<g>
			<polygon id="Walk_00000159452551889950530460000010662867201335066502_" class="PassThrough" points="1683.9131,423 
				1655.5138,498.0511 1673.9131,508 1701.9131,430 			"/>
		</g>
	</g>
	<g id="Berkeley_Toilets" class="st5">
		<g>
			<polygon class="st0" points="682.0868,578.968 680.913,599 662.913,598 663.5302,578.19 			"/>
		</g>
		<g>
			<polygon class="PassThrough_x0020_2" points="682.0868,578.968 680.913,599 662.913,598 663.5302,578.19 			"/>
		</g>
	</g>
	<g id="Hamilton_00000028316729968966869160000007310470000274730917_">
		<polygon class="st6" points="1623.9131,672 1559.9131,847 1548.9131,843 1612.7322,667.8824 		"/>
		<polygon class="st6" points="1551.9783,870.9066 1494.9131,1030 1483.9131,1026 1540.7974,866.7891 		"/>
	</g>
</g>
</svg>
