<?xml version="1.0" encoding="utf-8"?>
<!-- Generator: Adobe Illustrator 26.2.1, SVG Export Plug-In . SVG Version: 6.00 Build 0)  -->
<svg version="1.1" xmlns="http://www.w3.org/2000/svg" xmlns:xlink="http://www.w3.org/1999/xlink" x="0px" y="0px"
	 viewBox="0 0 665 459" style="enable-background:new 0 0 665 459;" xml:space="preserve">
<style type="text/css">
	.st0{fill:#0087A2;stroke:#FFF0AD;stroke-width:1.4173;stroke-miterlimit:10;}
	.st1{display:none;}
	.st2{display:inline;}
</style>
<g id="St_James">
	<path id="_x31_67" class="st0" d="M482.9578,389.3l-3.35-9.33l-11.9-33.12l-8.62-24l-7.07,2.54l-6.74-18.77l-14.82,5.33l-2.79-7.76
		l-50.02,17.97l-1.96-5.47l-6.79-18.91l49.99-17.96l-19.28-53.67l-52.12,18.73l-7.61-21.17l23.81-8.54l0.13,0.36l25.85-9.29
		l-23.92-66.62l-0.09,0.03l-0.05-0.13l-49.58,17.81l-9.48-26.42l48.67-17.48l-2.85-7.92l16.13-5.79l-26.33-73.29l-22.45,8.07
		l-2.7-7.51l-91.9,33.01l3.29,9.16l-23.51,8.44l28.92,80.51l15.19-5.46l44.19,123.05l20.96-7.53l11.67,32.49l-11.86,4.26
		l-29.19,10.49l10.8,30.06l10.03,27.92l13.0699,36.39l29.19-10.48l16.9-6.07l11.76,32.75l6.55-2.35l3.21,8.94l64.86-23.3l-2.72-7.57
		L482.9578,389.3z M275.1378,112.95l-13.25-36.91l42.1-15.13l13.2599,36.91L275.1378,112.95z M349.7278,176.3l4.3,11.97l-23.81,8.55
		l-4.3-11.97L349.7278,176.3z M334.7979,362.9l-10.03-27.92l13.65-4.9l10.03,27.92L334.7979,362.9z M398.8078,371.6l-4.67-12.99
		l36.77-13.21l4.67,12.99L398.8078,371.6z"/>
</g>
<g id="Layer_2" class="st1">
	<g class="st2">
		<path d="M664.5405,1.4174v456.1653H2.3752V1.4174H664.5405 M665.9578,0h-665v459h665V0L665.9578,0z"/>
	</g>
</g>
</svg>
