<?xml version="1.0" encoding="UTF-8"?><svg id="a" xmlns="http://www.w3.org/2000/svg" width="267.51mm" height="344.57mm" viewBox="0 0 758.3 976.73"><defs><style>.b{fill:#e53397;}.c{fill:#c2f4fe;}</style></defs><path class="c" d="M72.26,697.49l125.79,51.74-48.17,119.54-95.46-10.71,17.84-160.58Zm40.15-361.31l217.68,84.75-120.44,300.64-133.82-54.42,36.58-330.97Zm267.63-41.93l-39.25,99.02-224.81-88.32,4.46-40.15,259.61,29.44Zm58.88,325.62l54.42-134.71,185.56,73.15-16.95,154.34-223.03-92.78Zm24.98,205.19l49.96-120.44,141.85,58.88-15.17,134.71-176.64-73.15Zm152.55,94.56l-414.83-45.5,42.82-106.16,372.01,151.66Zm-312.24-301.53l181.99,74.94-49.96,121.33-181.1-74.05,49.07-122.22Zm17.84-46.39l53.53-132.93,90.1,35.68-54.42,134.71-89.21-37.47Zm359.52-43.71l-295.29-115.97,44.61-111.51,272.09,30.33-21.41,197.16ZM75.83,211.29L0,901.79l682.47,74.94,75.83-690.5L75.83,211.29Z"/><path class="b" d="M613.3,223.88c-43.57,0-78.89-35.32-78.89-78.88s35.32-78.89,78.89-78.89,78.89,35.32,78.89,78.89-35.32,78.88-78.89,78.88Zm145-78.88C758.3,64.92,693.38,0,613.3,0s-145,64.92-145,145c0,25.07,6.36,48.65,17.56,69.22l106.89,196.36c3.94,7.32,11.66,12.29,20.55,12.29s16.65-5,20.58-12.35l106.85-196.29c11.2-20.57,17.57-44.16,17.57-69.23Z"/></svg>