<?xml version="1.0" encoding="UTF-8"?><svg id="a" xmlns="http://www.w3.org/2000/svg" width="310.49mm" height="310.49mm" viewBox="0 0 880.14 880.14"><defs><style>.b{fill:#e53397;}.c{fill:#c2f4fe;}</style></defs><path class="c" d="M440.07,880.14C197.41,880.14,0,682.72,0,440.07S197.41,0,440.07,0s440.06,197.42,440.06,440.07-197.42,440.06-440.06,440.06Z"/><path class="b" d="M546.98,488.77c-.21-.24-.46-.44-.72-.61-3.6-2.27-88.47-55.68-114.01-55.68-3.51,0-6.17,.94-7.91,2.81-10.28,11.02-14.47,39.8-7.86,54.02,3.54,7.61,12.62,16.62,21.41,25.34,7.54,7.48,17.86,17.71,17.76,21.7-.25,10.42-16.34,41.47-22.52,52.55-.49,.88-.57,1.92-.24,2.87,.34,.94,1.06,1.7,1.99,2.07,5.54,2.2,15.25,6.84,17.72,9.91,.61,.77,.84,1.24,.91,1.22-.24,.19-1.72,1.21-7.02,1.21-2.72,0-6.03-.27-9.84-.8l-.83-.11c-16.99-2.37-16.99-2.91-16.99-9.65,0-3.56,4.69-12.31,8.82-20.03,7.17-13.39,14.59-27.24,11.83-35.71-1.97-6.04-30.15-33.62-42.63-39.15-2.42-1.08-5.06-2.51-7.85-4.02-6.91-3.75-14.73-7.99-22.98-8.82-.26-.03-.54-.04-.82-.04-10.79,0-37.35,24.09-41.07,33.56-5.31,13.56-.86,30.53,5.53,40.57l.26,.4c5.52,8.68,11.78,18.51,9.04,25.12-1.77,4.26-4.23,4.26-5.04,4.26-2.73,0-6.38-1.95-10.29-5.51-7.57-6.88-3.94-16.11-3.79-16.48,.36-.86,.36-1.83,0-2.69-3.67-8.81-12.68-34.27-10.31-46.18,1.39-6.99,14.35-19.9,25.8-31.29,10.91-10.87,21.22-21.13,24.01-28.34,7.57-19.57,19.02-47.71,31.01-66.08,3.84-5.88,7.3-11.38,10.59-16.62,20.02-31.8,33.25-52.82,85.28-89.43,2.68-1.36,30.25-15.15,43.34-15.15,.74,0,1.41,.05,2.11,.18-.08,1.2-1.19,4.62-5.87,10.53-8.09,10.24-19.6,18.88-25.13,18.89-1.08,0-1.47-.37-1.61-.51-.67-.66-1.57-1.02-2.52-.98-.94,.02-1.82,.43-2.46,1.12-6.58,7.16-64.3,70.66-62.1,95.33,.32,3.55,1.82,6.44,4.36,8.36,2.49,1.89,12.28,7.78,25.82,15.93,24.23,14.58,60.85,36.61,79.87,50.44,.85,.63,1.94,.83,2.96,.54,.04-.01,4.43-1.18,8.88-1.18,7.06,0,7.51,2.72,7.67,3.62,.71,4.24,3.64,10.31,6.74,16.75,2.27,4.69,5.87,12.17,6.4,15.44-12.13-2.61-27.55-19.49-27.7-19.66Zm-154.22,41.02c-1.69,12.61-10.52,22.33-19.7,21.09-9.14-1.23-15.17-12.69-13.45-25.54,1.6-11.89,9.56-21.19,18.13-21.19,.53,0,1.05,.03,1.59,.1,4.23,.57,7.97,3.4,10.53,7.99,2.73,4.91,3.77,11.15,2.91,17.56Zm181.81-39.83c-2.76-5.71-5.61-11.61-6.15-14.87-.59-3.53-3.25-9.44-14.53-9.44-3.61,0-7.07,.61-9.04,1.03-19.59-14.05-55.28-35.52-79.08-49.84-12.86-7.74-23.01-13.84-25.21-15.51-.61-.46-1.44-1.32-1.63-3.43-1.58-17.67,39.95-67.56,58.4-87.93,1.03,.37,2.16,.56,3.36,.56h0c12.8,0,36.79-24.29,37.91-35.63,.39-3.92-1.68-6.82-5.41-7.57-1.09-.22-2.31-.33-3.62-.33-15.36,0-45.46,15.37-46.73,16.03-.15,.07-.28,.15-.41,.25-53.35,37.51-67.62,60.18-87.38,91.56-3.28,5.21-6.72,10.67-10.53,16.52-12.34,18.92-23.98,47.51-31.67,67.37-2.25,5.83-12.51,16.04-22.43,25.92-13.32,13.27-25.91,25.8-27.71,34.86-2.96,14.83,7.69,42.7,10.21,48.99-1.16,3.84-3.23,14.46,6.03,22.87,5.34,4.86,10.38,7.32,14.98,7.32,5.11,0,9.18-3.04,11.47-8.57,4.13-9.96-3.16-21.42-9.6-31.52l-.25-.4c-5.64-8.87-9.14-23.49-4.92-34.28,2.92-7.45,27.53-29.14,34.7-29.14h0c3.14,.32,6.35,1.32,9.52,2.64-10.93,1.68-20.22,12.7-22.14,26.98-2.23,16.66,6.48,31.63,19.42,33.37,.84,.11,1.68,.17,2.51,.17,12.18,0,22.93-11.71,25.02-27.23,1.06-7.89-.27-15.66-3.73-21.88-.23-.41-.49-.78-.73-1.18,12.04,6.2,35.99,30.53,37.67,34.35,1.84,5.65-5.78,19.88-11.35,30.27-5.17,9.66-9.64,18.01-9.64,23.32,0,13.35,7.21,14.35,22.99,16.55l.83,.11c4.13,.58,7.76,.87,10.81,.87,7.28,0,11.63-1.67,13.28-5.11,.73-1.52,1.47-4.64-1.73-8.63-3.24-4.04-11.91-8.28-16.96-10.5,5.72-10.55,21.24-40.25,21.53-52.37,.16-6.64-7.43-14.52-19.83-26.81-8.35-8.29-16.98-16.85-20-23.33-5.46-11.75-1.8-37.29,6.64-46.34,.06-.06,.62-.59,2.82-.59,19.43,0,85.52,38.99,109.89,54.35,2.54,2.73,18.18,19.08,31.78,21.57,4.32,.79,6.1-1.28,6.82-2.42,2.65-4.23-.46-11.14-6.17-22.99Z"/><path class="b" d="M525.69,303.01c-.66,1.75,.27,3.74,1.99,4.47,.31,.13,31.75,17.47,38.19,85.83,.17,1.8,1.69,3.16,3.46,3.16,.11,0,.21,0,.33-.01,1.92-.18,3.32-1.88,3.14-3.79-6.2-65.76-35.83-89.42-42.83-91.75-1.78-.59-3.62,.36-4.28,2.11Z"/><path class="b" d="M535.4,393.26c.15,1.82,1.67,3.21,3.47,3.21,.09,0,.19,0,.28-.01,1.92-.15,3.35-1.83,3.19-3.75-4.03-50.41-32.06-64.91-33.25-65.5-1.71-.85-3.79-.16-4.66,1.55-.86,1.71-.17,3.8,1.54,4.67,.25,.13,25.73,13.62,29.42,59.83Z"/><path class="b" d="M484.33,355.42c-1.86,0-3.25,1.47-3.34,3.32-.08,1.86,1.45,3.46,3.3,3.64,2.33,.22,14.91,9.09,19.85,31.36,.36,1.62,1.8,2.73,3.4,2.73,.25,0,.5-.03,.76-.08,1.88-.42,3.06-2.27,2.64-4.15-5.45-24.51-20-36.81-26.61-36.81Z"/><path class="b" d="M534.53,505.26c-1.93,0-3.48,1.56-3.48,3.48,0,.27-.12,27.56-10.74,43.54-1.06,1.6-.63,3.76,.98,4.82,.59,.39,1.26,.58,1.92,.58,1.13,0,2.24-.55,2.9-1.56,11.76-17.71,11.9-46.19,11.9-47.39,0-1.93-1.56-3.49-3.48-3.49Z"/><path class="b" d="M554.66,525.56h0c-1.92,0-3.48,1.56-3.49,3.48,0,.18-.1,17.31-6.67,29.7-.9,1.7-.25,3.81,1.44,4.71,.52,.27,1.08,.4,1.63,.4,1.25,0,2.45-.67,3.08-1.85,7.4-13.95,7.48-32.2,7.48-32.96,0-1.92-1.56-3.48-3.48-3.48Z"/><path class="b" d="M691.1,600.86c-3.16-.42-6.08,1.79-6.51,4.96-.43,3.16,1.79,6.08,4.96,6.51,16.19,2.19,28.41,16.19,28.41,32.57,0,12.49-7.08,23.56-17.61,29.1,.63-1.61,1.28-3.32,1.96-5.18,1.09-3-.45-6.33-3.46-7.42-3-1.09-6.33,.45-7.42,3.46-3.36,9.24-6.45,15.77-6.5,15.88h0c-5.03,10.54-15.27,15.04-34.24,15.04s-29.06-4.45-34.13-14.86c-.03-.06-.04-.11-.06-.18-.03-.06-3.14-6.62-6.51-15.89-1.09-3.01-4.41-4.55-7.42-3.46-3,1.09-4.56,4.42-3.46,7.42,.68,1.87,1.34,3.58,1.97,5.2-10.56-5.54-17.67-16.62-17.67-29.12,0-16.18,11.57-29.82,27.51-32.44,2.58-.43,4.57-2.53,4.83-5.14,3.09-31.27,8.79-53.45,16.95-65.96,1.74-2.68,.99-6.27-1.69-8.02-2.68-1.74-6.27-.99-8.01,1.69-8.92,13.68-14.93,35.6-18.35,66.95-19.27,5.17-32.82,22.56-32.82,42.93s15.11,39.44,35.63,43.58c9.83,16.85,29.22,18.88,43.24,18.88s33.41-2.03,43.25-18.88c20.52-4.15,35.63-22.36,35.63-43.58,0-22.14-16.53-41.08-38.45-44.05Z"/><path class="b" d="M565.32,718.29c-1.42,0-2.83-.51-3.95-1.55-2.34-2.19-2.46-5.85-.28-8.19l15.85-16.98c2.18-2.33,5.85-2.46,8.18-.28,2.34,2.19,2.46,5.85,.28,8.18l-15.85,16.99c-1.14,1.22-2.69,1.84-4.23,1.84Z"/><path class="b" d="M552.6,693.71c-2.33,0-4.54-1.43-5.42-3.74-1.13-2.99,.37-6.33,3.37-7.47l21.72-8.23c2.99-1.13,6.33,.37,7.47,3.37,1.13,2.99-.37,6.33-3.37,7.47l-21.72,8.23c-.68,.25-1.37,.38-2.05,.38Z"/><path class="b" d="M590.72,729.29c-.55,0-1.12-.08-1.68-.25-3.06-.93-4.79-4.16-3.86-7.23l6.72-22.24c.92-3.06,4.14-4.8,7.22-3.87,3.06,.92,4.79,4.15,3.87,7.22l-6.72,22.24c-.76,2.5-3.06,4.12-5.55,4.12Z"/><path class="b" d="M227.71,393.6c-27.96,0-50.63-22.67-50.63-50.63s22.67-50.63,50.63-50.63,50.63,22.67,50.63,50.63-22.67,50.63-50.63,50.63Zm0-126.59c-55.93,0-101.27,74.96-101.27,74.96,0,0,45.34,76.94,101.27,76.94s101.27-76.94,101.27-76.94c0,0-45.34-74.96-101.27-74.96Z"/><circle class="b" cx="227.71" cy="343.06" r="25.32" transform="translate(-176.38 422.16) rotate(-67.5)"/><path class="b" d="M225.86,631.32c.03-.89-.17-1.77-.59-2.56-.42-.79-1.04-1.45-1.79-1.92-.76-.47-1.62-.74-2.51-.77-.89-.03-1.77,.17-2.56,.59s-1.45,1.04-1.92,1.79c-.47,.76-.74,1.62-.77,2.51-.04,1.04-.2,2.08-.5,3.08s-.71,1.97-1.25,2.87c-.53,.9-1.18,1.73-1.92,2.47-.74,.74-1.57,1.38-2.47,1.92-.9,.53-1.86,.95-2.87,1.25-1,.29-2.04,.46-3.08,.5-.89,.01-1.76,.26-2.53,.72-.76,.46-1.39,1.11-1.83,1.89-.43,.78-.65,1.66-.64,2.55,.01,.89,.26,1.76,.72,2.53,.46,.76,1.11,1.39,1.89,1.83,.78,.43,1.66,.65,2.55,.64h.16c1.89-.06,3.77-.37,5.59-.9,1.82-.53,3.56-1.29,5.2-2.26,1.63-.97,3.13-2.13,4.48-3.47,1.34-1.34,2.51-2.84,3.48-4.47,.97-1.63,1.73-3.37,2.26-5.19,.53-1.82,.84-3.7,.9-5.59Z"/><path class="b" d="M248.88,637.09c.12-.89,.01-1.8-.32-2.63s-.89-1.56-1.6-2.12c-.71-.55-1.55-.91-2.44-1.04-.89-.12-1.8-.01-2.63,.32s-1.56,.89-2.12,1.6c-.55,.71-.91,1.55-1.04,2.44-.37,2.54-1.02,5.03-1.92,7.43s-2.06,4.7-3.45,6.86-3.01,4.16-4.82,5.97-3.82,3.43-5.97,4.82-4.46,2.54-6.86,3.45-4.89,1.54-7.43,1.92c-.89,.06-1.75,.36-2.49,.86s-1.34,1.18-1.73,1.99c-.39,.8-.56,1.69-.5,2.59,.06,.89,.36,1.75,.86,2.49,.5,.74,1.18,1.34,1.99,1.73,.8,.39,1.69,.56,2.59,.5h.71c3.27-.47,6.48-1.29,9.57-2.45,3.09-1.16,6.06-2.64,8.83-4.43,2.78-1.79,5.36-3.87,7.69-6.2,2.34-2.34,4.41-4.91,6.2-7.69,1.79-2.78,3.27-5.74,4.43-8.83,1.16-3.09,1.98-6.3,2.45-9.57Z"/><path class="b" d="M267.64,636.56c-.43-.07-.87-.09-1.31-.05s-.87,.13-1.28,.28c-.41,.15-.81,.35-1.17,.6-.36,.25-.69,.55-.97,.88-.29,.33-.53,.7-.72,1.1-.19,.4-.33,.82-.41,1.25-.69,4-1.79,7.91-3.28,11.69s-3.36,7.38-5.58,10.78c-2.22,3.39-4.79,6.55-7.65,9.42-2.87,2.87-6.02,5.44-9.41,7.67-3.39,2.23-7,4.1-10.77,5.6s-7.69,2.6-11.68,3.29c-.89,.07-1.75,.38-2.48,.89-.73,.51-1.32,1.2-1.7,2.01-.38,.81-.54,1.7-.47,2.59,.07,.89,.38,1.75,.89,2.48,.51,.73,1.2,1.32,2.01,1.7,.81,.38,1.7,.54,2.59,.47,.05,0,.1,0,.15,.01,.05,0,.1,0,.15,0s.1,0,.15,0,.1,0,.15,0c.05,0,.1,0,.15,0,.05,0,.1,0,.15-.01,4.69-.82,9.28-2.11,13.7-3.86,4.42-1.75,8.65-3.95,12.62-6.57s7.67-5.63,11.02-9,6.36-7.07,8.96-11.05,4.79-8.22,6.53-12.65c1.74-4.43,3.02-9.02,3.82-13.71,.07-.43,.08-.88,.04-1.31-.04-.44-.14-.87-.3-1.28-.15-.41-.36-.8-.62-1.16-.26-.36-.56-.68-.9-.96-.34-.28-.71-.52-1.11-.7-.4-.18-.82-.32-1.25-.39Z"/><path class="b" d="M239.36,566.24c.64-8.92-.67-17.88-3.84-26.25-3.17-8.37-8.13-15.94-14.53-22.2-6.4-6.26-14.08-11.04-22.52-14.02-8.44-2.98-17.42-4.09-26.33-3.25-8.91,.84-17.53,3.62-25.25,8.13s-14.38,10.66-19.49,18c-.53,.73-.86,1.59-.94,2.5-.09,.9,.07,1.81,.45,2.63,.38,.82,.98,1.52,1.73,2.04,.75,.51,1.62,.82,2.52,.88,.9,.06,1.81-.12,2.62-.52,.81-.4,1.5-1.02,1.99-1.78,1.41-2.05,2.98-3.99,4.67-5.81,1.7-1.82,3.53-3.51,5.47-5.06,1.95-1.55,4-2.96,6.16-4.21,2.15-1.25,4.4-2.34,6.71-3.26s4.69-1.67,7.11-2.24c2.42-.57,4.88-.96,7.37-1.17,7.7-.72,15.47,.32,22.71,3.02s13.78,7.02,19.13,12.61c5.34,5.59,9.36,12.32,11.73,19.68,2.38,7.36,3.06,15.16,1.99,22.82s-3.85,14.98-8.14,21.42c-4.29,6.43-9.99,11.81-16.65,15.74-1.76,1.02-3.48,2.12-5.15,3.29-1.67,1.17-3.28,2.41-4.84,3.73-1.56,1.31-3.06,2.69-4.5,4.14-1.44,1.44-2.81,2.95-4.12,4.51-1.31,1.56-2.55,3.18-3.71,4.85-1.17,1.67-2.26,3.39-3.27,5.16l-.16,.28c-.36,.67-.71,1.34-1.05,2.03-.33,.68-.66,1.37-.96,2.07-.31,.7-.6,1.4-.87,2.11-.28,.71-.54,1.42-.79,2.14-.25,.72-.48,1.44-.7,2.17-.22,.73-.42,1.46-.61,2.2-.41,1.51-.98,2.96-1.71,4.34s-1.62,2.67-2.64,3.85-2.17,2.24-3.43,3.16c-1.26,.92-2.62,1.7-4.05,2.32s-2.93,1.07-4.46,1.35c-1.53,.28-3.1,.39-4.65,.32-1.08-.05-2.15-.19-3.2-.4-1.06-.22-2.09-.51-3.1-.89-1.01-.37-1.99-.83-2.93-1.35-.94-.52-1.84-1.12-2.69-1.78s-1.65-1.39-2.39-2.17c-.74-.78-1.42-1.63-2.03-2.51-.53-.67-1.22-1.2-2-1.53-.79-.33-1.64-.47-2.5-.38-.85,.09-1.67,.38-2.37,.87-.7,.48-1.27,1.14-1.66,1.9-.38,.76-.57,1.61-.54,2.47,.03,.85,.28,1.69,.72,2.42,.91,1.32,1.92,2.57,3.02,3.73s2.29,2.24,3.56,3.23c1.27,.98,2.61,1.87,4.01,2.64,1.4,.78,2.86,1.44,4.37,2,1.51,.55,3.05,.99,4.62,1.3,1.57,.31,3.17,.51,4.77,.58h1.22c2.24,0,4.48-.24,6.67-.72,2.19-.48,4.32-1.2,6.36-2.14,2.04-.94,3.96-2.11,5.75-3.47s3.41-2.91,4.86-4.63c1.45-1.71,2.7-3.58,3.75-5.57,1.04-1.99,1.87-4.08,2.45-6.25,.15-.6,.32-1.2,.5-1.8,.18-.6,.37-1.19,.57-1.78,.2-.59,.42-1.17,.64-1.75,.23-.58,.46-1.16,.71-1.73,.25-.57,.51-1.14,.78-1.69,.27-.56,.56-1.11,.85-1.66l.16-.28c.87-1.51,1.81-2.98,2.81-4.4,1-1.43,2.06-2.81,3.18-4.14,1.12-1.33,2.3-2.62,3.53-3.85s2.52-2.41,3.85-3.53c1.33-1.12,2.72-2.18,4.14-3.18s2.89-1.93,4.4-2.81c2.84-1.67,5.54-3.57,8.08-5.68,2.54-2.11,4.9-4.41,7.07-6.9,2.17-2.48,4.13-5.14,5.87-7.94,1.74-2.8,3.26-5.73,4.53-8.78s2.3-6.18,3.07-9.39c.77-3.21,1.28-6.47,1.52-9.76Z"/><path class="b" d="M156.56,585l-17.36,10.54c-.78,.46-1.42,1.11-1.86,1.89-.44,.79-.66,1.67-.65,2.57,.02,.9,.27,1.78,.74,2.55s1.13,1.4,1.93,1.83c.79,.43,1.68,.64,2.58,.61s1.78-.3,2.54-.78l17.42-10.56c2.47-1.5,4.57-3.54,6.16-5.96,1.58-2.42,2.6-5.16,2.99-8.03,.39-2.87,.13-5.78-.76-8.53-.88-2.75-2.37-5.27-4.36-7.38-1.98-2.1-4.41-3.74-7.11-4.78-2.7-1.04-5.59-1.47-8.47-1.26,.06-.2,.12-.4,.18-.6,.06-.2,.13-.4,.19-.6,.07-.2,.14-.4,.21-.59s.15-.39,.23-.59,.16-.39,.25-.58c.08-.19,.17-.38,.26-.57,.72-1.53,1.57-3,2.54-4.39,.97-1.39,2.06-2.69,3.25-3.89,1.19-1.2,2.48-2.3,3.86-3.28,1.38-.98,2.84-1.84,4.37-2.57,1.53-.73,3.11-1.33,4.74-1.79,1.63-.46,3.29-.78,4.98-.96h.26c3.7-.37,7.43,.11,10.92,1.39,3.49,1.28,6.63,3.34,9.21,6.02,2.57,2.68,4.5,5.91,5.65,9.44,1.14,3.54,1.47,7.28,.95,10.96-.52,3.68-1.87,7.19-3.94,10.27-2.08,3.08-4.82,5.65-8.04,7.52-16.56,9.8-27.63,22.53-32.93,37.8-.3,.84-.36,1.74-.2,2.62,.16,.88,.56,1.69,1.14,2.37s1.33,1.19,2.17,1.48c.84,.3,1.74,.36,2.62,.2,.88-.16,1.69-.56,2.37-1.14,.68-.58,1.19-1.33,1.48-2.17,4.55-13.13,13.88-23.73,28.42-32.48,4.49-2.65,8.32-6.28,11.22-10.62,2.89-4.34,4.77-9.27,5.49-14.44,.72-5.16,.27-10.43-1.32-15.39-1.59-4.97-4.28-9.51-7.87-13.29-3.59-3.78-7.99-6.71-12.86-8.56-4.88-1.85-10.11-2.58-15.3-2.13h-.28c-2.27,.23-4.52,.65-6.71,1.26-2.2,.61-4.34,1.41-6.4,2.39s-4.03,2.13-5.9,3.45c-1.86,1.32-3.61,2.79-5.22,4.4s-3.08,3.36-4.39,5.23c-1.31,1.87-2.46,3.84-3.43,5.9-.37,.79-.71,1.59-1.02,2.4-.31,.81-.58,1.64-.83,2.47-.24,.84-.45,1.68-.62,2.53-.17,.85-.31,1.71-.42,2.57-.11,.86-.18,1.73-.21,2.6-.04,.87-.04,1.74,0,2.61,.03,.58,.17,1.15,.4,1.69s.55,1.03,.94,1.46c.39,.43,.86,.79,1.38,1.06,.52,.27,1.07,.45,1.65,.53,.58,.08,1.16,.07,1.73-.05,.57-.12,1.12-.33,1.62-.63,1.4-.83,2.99-1.28,4.62-1.3,1.63-.02,3.23,.39,4.65,1.19s2.6,1.95,3.43,3.35c.83,1.4,1.28,2.99,1.3,4.62s-.39,3.23-1.19,4.65c-.8,1.42-1.95,2.6-3.35,3.43Z"/><path class="b" d="M752.23,320.61c-1.67-13.22-13.22-22.93-27.95-22.93-8.2,0-16.4,2.85-23.43,8.37-7.03-5.52-15.23-8.37-23.43-8.37-14.39,0-25.77,9.21-27.95,21.92-11.05-4.85-19.25-10.04-24.27-13.56,8.37-9.21,27.95-27.95,50.21-32.8,2.01,0,7.2,3.18,10.54,5.02,5.52,3.35,10.38,6.03,14.9,6.03s9.37-2.85,14.73-6.19c2.85-1.67,8.2-5.02,9.71-5.02,22.59,4.35,43.18,22.93,51.55,31.3-4.69,4.18-12.89,10.71-24.6,16.23Zm-12.55,31.3c0,21.76-17.41,39.33-39.16,39.33s-39.33-17.57-39.33-39.33v-27.62c0-9.71,8.2-14.06,15.9-14.06,6.69,0,13.56,3.18,19.08,8.7v26.95c0,2.34,2.18,4.35,4.52,4.35s4.52-2.01,4.52-4.35v-26.95c5.52-5.52,12.22-8.7,19.08-8.7,7.7,0,15.4,4.35,15.4,14.06v27.62Zm50.71-51.38c-1.17-1.51-28.95-33.47-62.59-40-.67-.17-1.51-.17-2.18-.17-5.36,0-11.05,3.68-16.57,7.03-2.68,1.67-6.69,4.35-8.03,4.35-1.51-.17-6.03-2.85-8.7-4.35-5.52-3.35-11.55-6.69-16.9-6.69-1,0-1.67,0-2.68,.17-33.64,7.2-60.59,40.67-61.59,42.18-2.18,2.68-1.67,6.53,.67,8.7,1,.67,14.73,12.22,37.15,21.42v19.08c0,28.62,23.1,51.88,51.88,51.88s51.88-23.1,51.88-51.88v-17.91c23.6-10.04,36.82-24.6,37.66-25.27,2.01-2.51,2.01-6.03,0-8.54Z"/><path class="b" d="M719.09,348.06c-3.35,5.36-6.03,10.88-6.03,12.72,0,3.35,2.68,6.03,6.03,6.03s6.03-2.68,6.03-6.03c0-1.84-2.85-7.36-6.03-12.72Zm0,25.61c-7.03,0-12.55-5.86-12.55-12.55,0-5.86,7.7-17.41,9.87-20.75,1.17-1.67,4.02-1.67,5.36,0,2.34,3.35,9.87,14.9,9.87,20.75,0,6.69-5.52,12.55-12.55,12.55Z"/><path class="b" d="M352.76,93.37c-1.15,0-2.46-.49-3.28-1.31-1.97-1.8-2.13-4.92-.33-6.89,4.76-5.25,10.17-9.67,16.23-13.45,2.3-1.48,5.41-.66,6.72,1.64,1.48,2.3,.66,5.41-1.64,6.72-5.25,3.28-10,7.05-14.1,11.64-.98,.98-2.3,1.64-3.61,1.64Z"/><path class="b" d="M334.89,153.22c-2.3,0-4.43-1.64-4.92-4.1-.66-4.1-.98-8.36-.98-12.46,0-9.35,1.64-18.53,4.92-27.05,.98-2.46,3.77-3.77,6.39-2.79,2.46,.98,3.77,3.77,2.79,6.39-2.95,7.54-4.26,15.41-4.26,23.61,0,3.61,.33,7.38,.82,10.99,.49,2.62-1.31,5.25-4.1,5.74-.16-.49-.33-.33-.66-.33Z"/><path class="b" d="M473.11,161.91c-.49,0-.98,0-1.48-.16-2.62-.82-4.1-3.44-3.28-6.07,.98-3.44,1.8-6.89,2.3-10.49,.33-2.62,2.79-4.59,5.57-4.26,2.62,.33,4.59,2.79,4.26,5.57-.49,4.1-1.31,8.2-2.62,12.13-.66,1.97-2.62,3.28-4.76,3.28Z"/><path class="b" d="M475.57,132.23c-2.46,0-4.59-1.8-4.92-4.26-4.26-32.79-32.47-57.55-65.59-57.55-5.25,0-10.33,.66-15.41,1.8-2.62,.49-5.41-1.15-5.9-3.77-.66-2.62,.98-5.25,3.61-5.9,5.74-1.31,11.64-2.13,17.71-2.13,38.04,0,70.51,28.37,75.43,66.08,.33,2.62-1.48,5.08-4.26,5.57-.33,.16-.49,.16-.66,.16Z"/><path class="b" d="M445.73,200.77c-.82,0-1.64-.16-2.46-.66-2.3-1.31-3.12-4.43-1.8-6.72,.16-.16,12.13-21.48,12.13-56.9,0-8.85-2.3-17.38-6.72-24.92-1.31-2.3-.66-5.41,1.8-6.72,2.3-1.31,5.41-.66,6.72,1.8,5.25,9.02,8.03,19.18,8.03,29.84,0,38.2-12.95,60.83-13.61,61.82-.66,1.64-2.3,2.46-4.1,2.46Z"/><path class="b" d="M351.45,141.41c-2.79,0-4.92-2.13-4.92-4.92,0-32.79,25.74-58.54,58.54-58.54,10.33,0,20.66,2.62,29.51,7.87,2.3,1.31,3.12,4.43,1.8,6.72-1.31,2.3-4.43,3.12-6.72,1.8-7.38-4.26-15.91-6.56-24.6-6.56-27.38,0-48.7,21.32-48.7,48.7,0,2.79-2.3,4.92-4.92,4.92Z"/><path class="b" d="M345.87,180.77c-.82,0-1.8-.16-2.62-.82-2.3-1.48-2.95-4.43-1.64-6.72,.16-.33,2.62-5.08,3.94-18.04,.33-2.62,2.62-4.59,5.41-4.43,2.62,.33,4.59,2.62,4.43,5.41-1.64,15.58-4.76,21.15-5.41,22.14-.98,1.64-2.46,2.46-4.1,2.46Z"/><path class="b" d="M423.43,210.12c-.98,0-1.97-.33-2.95-.98-2.13-1.64-2.62-4.59-1.15-6.89,.16-.16,14.59-20.99,16.4-58.05,.16-2.79,2.46-4.92,5.08-4.76,2.79,.16,4.76,2.46,4.76,5.08-1.8,40.5-17.54,62.64-18.2,63.62-.98,1.31-2.46,1.97-3.94,1.97Z"/><path class="b" d="M439.5,131.41c-2.13,0-4.1-1.48-4.76-3.61-3.77-13.28-15.74-22.3-29.84-22.3-8.85,0-16.89,3.28-22.63,9.35-1.8,1.97-4.92,1.97-6.89,.16-1.97-1.8-1.97-4.92-.16-6.89,7.71-8.03,18.2-12.46,29.68-12.46,18.53,0,34.27,11.81,39.35,29.51,.82,2.62-.82,5.41-3.44,6.07-.33,.16-.82,.16-1.31,.16Z"/><path class="b" d="M358.66,195.2c-.82,0-1.64-.16-2.46-.66-2.3-1.31-3.12-4.43-1.8-6.72,.16-.16,9.84-17.71,9.84-51.32,0-2.95,.33-5.74,.82-8.53,.49-2.62,3.12-4.43,5.74-3.94,2.62,.49,4.43,3.12,3.94,5.74-.49,2.13-.66,4.43-.66,6.56,0,36.57-10.66,55.59-11.15,56.24-.98,1.8-2.62,2.62-4.26,2.62Z"/><path class="b" d="M404.25,213.07c-.98,0-1.8-.33-2.79-.82-2.3-1.48-2.95-4.59-1.31-6.89,.16-.16,10.17-15.74,15.41-40.17,.49-2.62,3.12-4.43,5.9-3.77,2.62,.49,4.43,3.12,3.77,5.9-5.57,26.4-16.4,42.8-16.89,43.45-.82,1.48-2.46,2.3-4.1,2.3Z"/><path class="b" d="M371.78,204.87c-.98,0-1.97-.33-2.95-.98-2.13-1.64-2.62-4.59-1.15-6.89,.16-.33,13.94-20,13.94-60.5,0-13.12,10.33-23.28,23.28-23.28s23.45,10.49,23.45,23.28c0,4.92-.33,10-.82,15.09-.33,2.62-2.79,4.59-5.41,4.43-2.62-.33-4.59-2.62-4.43-5.41,.49-4.59,.66-9.35,.66-14.1,0-7.38-6.07-13.45-13.61-13.45s-13.45,5.9-13.45,13.45c0,44.11-15.09,65.42-15.74,66.24-.82,1.31-2.3,2.13-3.77,2.13Z"/><path class="b" d="M387.52,210.28c-.98,0-1.8-.33-2.62-.82-2.3-1.48-2.95-4.59-1.48-6.72,0,0,1.8-2.79,4.1-7.87,1.15-2.46,4.1-3.44,6.56-2.3,2.46,1.15,3.44,4.1,2.3,6.56-2.62,5.74-4.76,8.85-4.76,9.02-.82,1.48-2.46,2.13-4.1,2.13Z"/><path class="b" d="M398.34,186.18c-.82,0-1.48-.16-2.3-.49-2.46-1.15-3.44-4.26-2.13-6.56,0-.16,6.56-13.61,6.56-42.63,0-2.79,2.13-4.92,4.92-4.92s4.92,2.13,4.92,4.92c0,31.48-7.38,46.4-7.71,47.06-.82,1.64-2.46,2.62-4.26,2.62Z"/></svg>