<svg xmlns="http://www.w3.org/2000/svg" width="856" height="928" viewBox="0 0 856 928"><defs><style>.cls-1{fill:#c2f4fe;}.cls-2{fill:#179942;}</style></defs><g id="Layer_3" data-name="Layer 3"><path class="cls-1" d="M765.88,272.57l.07-.64L151.49,204.35l-5.17,47h.11L88.28,780.19l-.32,0-5.17,47,614.46,67.58,0-.15.66.07,68.41-622.06Zm-579.42,47,192.15,76.18-106.22,268-118.61-47ZM373.24,529.16,419.67,412l81.93,32.48L455.17,561.64Zm-20,50.4,160.65,63.68L474.09,743.67,313.45,680ZM543.47,655l127.72,50.63L658.94,817,503.66,755.39Zm-63.81-83.61,46.43-117.13,165.53,65.62L677.34,649.71Zm215.27-81.58L430.43,384.91l38.85-98,245,26.95ZM423.76,281.88l-34.39,86.75-199.6-79.12,3.62-33Zm-274,371.29,109.58,43.44-38.9,98.12-85.22-9.37ZM266,799.74l34.43-86.86L616.84,838.33Z"/></g><g id="Layer_2" data-name="Layer 2"><path class="cls-2" d="M634,17.5A130,130,0,0,0,519.44,209H519l95.37,174.48,0,0a21,21,0,0,0,39.22,0l0,0L742.6,219A130,130,0,0,0,634,17.5ZM634,222a73,73,0,1,1,73-73A73,73,0,0,1,634,222Z"/></g></svg>