<?xml version="1.0" encoding="UTF-8"?><svg id="a" xmlns="http://www.w3.org/2000/svg" width="265.17mm" height="265.17mm" viewBox="0 0 751.66 751.66"><defs><style>.b{fill:#228b22;}.c{fill:#179942;}.d{fill:#c2f4fe;}</style></defs><path class="d" d="M375.84,751.66C168.59,751.66,0,583.06,0,375.84S168.59,0,375.84,0s375.83,168.6,375.83,375.84-168.6,375.83-375.83,375.83Z"/><path class="c" d="M467.14,417.43c-.18-.2-.39-.38-.62-.52-3.07-1.94-75.55-47.55-97.36-47.55-3,0-5.27,.8-6.75,2.4-8.78,9.41-12.36,33.99-6.72,46.14,3.02,6.5,10.78,14.2,18.28,21.64,6.44,6.39,15.26,15.13,15.17,18.53-.21,8.9-13.96,35.41-19.23,44.88-.42,.75-.49,1.64-.2,2.45,.29,.8,.91,1.45,1.7,1.77,4.74,1.88,13.03,5.84,15.13,8.46,.52,.66,.72,1.06,.77,1.04-.2,.16-1.47,1.03-5.99,1.03-2.33,0-5.15-.23-8.4-.68l-.71-.1c-14.51-2.02-14.51-2.49-14.51-8.24,0-3.04,4-10.51,7.53-17.11,6.12-11.44,12.46-23.26,10.11-30.5-1.68-5.16-25.75-28.71-36.41-33.44-2.07-.92-4.32-2.14-6.7-3.43-5.9-3.2-12.58-6.83-19.62-7.53-.22-.02-.46-.04-.7-.04-9.22,0-31.9,20.57-35.07,28.66-4.53,11.58-.73,26.07,4.72,34.64l.22,.34c4.71,7.41,10.06,15.81,7.72,21.45-1.51,3.64-3.61,3.64-4.3,3.64-2.33,0-5.45-1.67-8.79-4.71-6.47-5.88-3.36-13.75-3.23-14.07,.31-.74,.31-1.56,0-2.3-3.14-7.52-10.83-29.26-8.8-39.44,1.19-5.97,12.26-16.99,22.03-26.72,9.32-9.28,18.13-18.05,20.51-24.2,6.47-16.71,16.25-40.74,26.48-56.43,3.28-5.02,6.23-9.72,9.05-14.19,17.09-27.16,28.4-45.11,72.84-76.38,2.29-1.16,25.84-12.94,37.01-12.94,.64,0,1.21,.04,1.81,.15-.07,1.02-1.02,3.94-5.01,9-6.91,8.74-16.74,16.13-21.46,16.13-.92,0-1.25-.32-1.37-.43-.58-.56-1.34-.87-2.15-.84-.8,.02-1.56,.37-2.1,.96-5.62,6.12-54.92,60.35-53.03,81.41,.27,3.03,1.56,5.5,3.72,7.14,2.13,1.61,10.49,6.65,22.05,13.6,20.7,12.45,51.96,31.27,68.21,43.08,.73,.54,1.66,.71,2.52,.46,.04,0,3.78-1.01,7.58-1.01,6.03,0,6.42,2.33,6.55,3.09,.6,3.62,3.11,8.81,5.76,14.31,1.94,4.01,5.02,10.39,5.47,13.19-10.36-2.23-23.53-16.65-23.66-16.79Zm-131.71,35.03c-1.45,10.77-8.98,19.07-16.83,18.01-7.81-1.05-12.96-10.83-11.48-21.82,1.36-10.15,8.16-18.1,15.48-18.1,.45,0,.9,.03,1.35,.09,3.62,.48,6.81,2.91,8.99,6.82,2.34,4.19,3.22,9.52,2.49,15Zm155.27-34.02c-2.36-4.87-4.79-9.92-5.25-12.7-.5-3.01-2.78-8.06-12.41-8.06-3.08,0-6.04,.52-7.72,.88-16.73-12-47.21-30.34-67.53-42.56-10.98-6.61-19.65-11.82-21.53-13.25-.52-.39-1.23-1.13-1.39-2.93-1.35-15.09,34.12-57.7,49.88-75.09,.88,.31,1.84,.48,2.87,.48h0c10.93,0,31.42-20.75,32.37-30.43,.33-3.35-1.44-5.82-4.62-6.46-.93-.19-1.97-.28-3.09-.28-13.12,0-38.82,13.13-39.91,13.69-.12,.06-.24,.13-.35,.21-45.56,32.03-57.75,51.39-74.62,78.2-2.8,4.45-5.74,9.12-8.99,14.11-10.54,16.16-20.48,40.57-27.04,57.53-1.92,4.98-10.69,13.7-19.16,22.13-11.38,11.33-22.13,22.03-23.67,29.77-2.52,12.67,6.57,36.47,8.72,41.84-.99,3.28-2.76,12.35,5.15,19.53,4.56,4.15,8.87,6.25,12.79,6.25,4.36,0,7.84-2.6,9.79-7.32,3.52-8.51-2.7-18.29-8.2-26.92l-.22-.34c-4.82-7.57-7.81-20.06-4.2-29.28,2.49-6.36,23.52-24.89,29.63-24.89h0c2.68,.27,5.43,1.13,8.13,2.25-9.34,1.43-17.27,10.85-18.91,23.05-1.91,14.23,5.53,27.01,16.58,28.5,.72,.09,1.43,.14,2.15,.14,10.4,0,19.58-10,21.37-23.25,.9-6.74-.23-13.37-3.19-18.68-.2-.35-.42-.67-.62-1.01,10.28,5.29,30.74,26.07,32.17,29.34,1.57,4.83-4.94,16.98-9.69,25.85-4.42,8.25-8.24,15.38-8.24,19.91,0,11.4,6.15,12.26,19.64,14.13l.71,.1c3.53,.5,6.63,.74,9.23,.74,6.22,0,9.93-1.43,11.34-4.37,.62-1.29,1.25-3.96-1.48-7.37-2.76-3.45-10.17-7.07-14.48-8.97,4.88-9.01,18.14-34.37,18.39-44.73,.14-5.67-6.34-12.4-16.93-22.89-7.13-7.08-14.51-14.39-17.08-19.93-4.66-10.03-1.53-31.85,5.67-39.57,.05-.05,.53-.51,2.41-.51,16.6,0,73.04,33.3,93.85,46.42,2.17,2.34,15.53,16.3,27.14,18.42,3.69,.67,5.21-1.09,5.82-2.07,2.27-3.61-.39-9.51-5.27-19.64Z"/><path class="c" d="M448.95,258.78c-.56,1.49,.23,3.2,1.7,3.82,.27,.11,27.11,14.92,32.62,73.3,.14,1.54,1.44,2.7,2.96,2.7,.09,0,.18,0,.28-.01,1.64-.15,2.84-1.61,2.68-3.24-5.29-56.16-30.6-76.37-36.58-78.36-1.52-.51-3.09,.3-3.66,1.8Z"/><path class="c" d="M457.25,335.86c.12,1.55,1.42,2.74,2.96,2.74,.08,0,.16,0,.24,0,1.64-.13,2.86-1.56,2.73-3.2-3.44-43.05-27.38-55.43-28.4-55.94-1.46-.72-3.24-.13-3.98,1.33-.73,1.46-.14,3.25,1.32,3.99,.22,.11,21.97,11.63,25.13,51.1Z"/><path class="c" d="M413.63,303.54c-1.59,0-2.77,1.25-2.85,2.84-.07,1.59,1.24,2.96,2.81,3.11,1.99,.19,12.73,7.76,16.96,26.78,.31,1.39,1.54,2.33,2.9,2.33,.21,0,.43-.02,.65-.07,1.6-.35,2.61-1.94,2.26-3.55-4.65-20.93-17.08-31.44-22.73-31.44Z"/><path class="c" d="M456.5,431.51c-1.65,0-2.97,1.33-2.97,2.97,0,.23-.11,23.54-9.17,37.19-.91,1.37-.54,3.21,.83,4.12,.51,.34,1.07,.5,1.64,.5,.96,0,1.91-.47,2.48-1.33,10.04-15.12,10.16-39.45,10.16-40.47,0-1.65-1.33-2.98-2.97-2.98Z"/><path class="c" d="M473.7,448.85h0c-1.64,0-2.97,1.33-2.98,2.97,0,.15-.08,14.78-5.7,25.37-.77,1.45-.22,3.25,1.23,4.02,.44,.23,.92,.35,1.39,.35,1.06,0,2.1-.57,2.63-1.58,6.32-11.91,6.39-27.5,6.39-28.15,0-1.64-1.33-2.97-2.97-2.97Z"/><path class="c" d="M590.22,513.15c-2.7-.36-5.2,1.53-5.56,4.24-.37,2.7,1.53,5.2,4.24,5.56,13.83,1.87,24.26,13.83,24.26,27.82,0,10.66-6.05,20.12-15.04,24.85,.54-1.38,1.1-2.84,1.67-4.42,.93-2.56-.39-5.4-2.96-6.34-2.56-.93-5.4,.39-6.34,2.96-2.87,7.89-5.51,13.46-5.55,13.57h0c-4.29,9-13.04,12.85-29.24,12.85s-24.82-3.8-29.15-12.69c-.03-.05-.04-.1-.05-.15-.03-.05-2.68-5.65-5.56-13.57-.93-2.57-3.77-3.88-6.34-2.96-2.56,.93-3.89,3.77-2.96,6.34,.58,1.6,1.14,3.06,1.68,4.44-9.02-4.73-15.09-14.19-15.09-24.87,0-13.81,9.88-25.47,23.49-27.71,2.21-.36,3.9-2.16,4.12-4.39,2.64-26.7,7.51-45.65,14.48-56.33,1.49-2.29,.85-5.35-1.44-6.85-2.29-1.49-5.35-.84-6.84,1.44-7.62,11.68-12.75,30.4-15.67,57.17-16.45,4.41-28.03,19.27-28.03,36.66s12.91,33.68,30.43,37.22c8.4,14.39,24.96,16.12,36.93,16.12s28.54-1.73,36.93-16.12c17.52-3.54,30.43-19.1,30.43-37.22,0-18.91-14.12-35.09-32.84-37.62Z"/><path class="c" d="M482.8,613.44c-1.21,0-2.42-.44-3.37-1.33-2-1.87-2.1-4.99-.24-6.99l13.54-14.5c1.86-1.99,4.99-2.1,6.99-.24,2,1.87,2.1,4.99,.24,6.99l-13.54,14.51c-.97,1.04-2.29,1.57-3.61,1.57Z"/><path class="c" d="M471.94,592.45c-1.99,0-3.88-1.22-4.63-3.2-.97-2.55,.32-5.41,2.88-6.38l18.55-7.03c2.55-.96,5.41,.32,6.38,2.88,.97,2.55-.32,5.41-2.88,6.38l-18.55,7.03c-.58,.22-1.17,.32-1.75,.32Z"/><path class="c" d="M504.5,622.84c-.47,0-.95-.07-1.43-.21-2.61-.79-4.09-3.55-3.3-6.17l5.74-18.99c.79-2.61,3.54-4.1,6.16-3.3,2.61,.79,4.09,3.55,3.31,6.17l-5.74,18.99c-.65,2.14-2.61,3.52-4.74,3.52Z"/><path class="b" d="M194.48,336.15c-23.88,0-43.24-19.36-43.24-43.24s19.36-43.24,43.24-43.24,43.24,19.36,43.24,43.24-19.36,43.24-43.24,43.24Zm0-108.11c-47.76,0-86.49,64.02-86.49,64.02,0,0,38.73,65.71,86.49,65.71s86.49-65.71,86.49-65.71c0,0-38.73-64.02-86.49-64.02Z"/><circle class="b" cx="194.48" cy="292.99" r="21.62"/><path class="c" d="M192.9,539.17c.03-.76-.15-1.51-.51-2.19s-.89-1.24-1.53-1.64c-.65-.4-1.39-.63-2.15-.65-.76-.03-1.51,.15-2.19,.51-.67,.36-1.24,.89-1.64,1.53s-.63,1.39-.65,2.15c-.03,.89-.17,1.78-.43,2.63-.25,.86-.61,1.68-1.06,2.45-.46,.77-1.01,1.48-1.64,2.11-.63,.63-1.34,1.18-2.11,1.64-.77,.46-1.59,.81-2.45,1.06-.86,.25-1.74,.39-2.63,.43-.76,.01-1.5,.22-2.16,.62-.65,.39-1.19,.95-1.56,1.61-.37,.66-.56,1.42-.55,2.18,.01,.76,.22,1.51,.62,2.16s.95,1.19,1.61,1.56c.66,.37,1.42,.56,2.18,.55h.14c1.62-.06,3.22-.31,4.78-.77,1.55-.45,3.04-1.1,4.44-1.93s2.68-1.82,3.82-2.97c1.15-1.14,2.14-2.43,2.97-3.82,.83-1.39,1.47-2.88,1.93-4.44,.46-1.55,.72-3.16,.77-4.78Z"/><path class="c" d="M212.56,544.09c.11-.76,.01-1.54-.28-2.25-.29-.71-.76-1.34-1.36-1.81-.61-.47-1.32-.78-2.09-.88-.76-.11-1.54-.01-2.25,.28-.71,.29-1.34,.76-1.81,1.36-.47,.61-.78,1.32-.88,2.09-.32,2.17-.87,4.3-1.64,6.35-.77,2.05-1.76,4.02-2.94,5.86-1.19,1.84-2.57,3.55-4.12,5.1-1.55,1.55-3.26,2.93-5.1,4.12-1.84,1.19-3.81,2.17-5.86,2.94-2.05,.77-4.18,1.32-6.35,1.64-.76,.05-1.49,.31-2.13,.73-.63,.43-1.14,1.01-1.48,1.7-.33,.69-.48,1.45-.43,2.21,.05,.76,.31,1.49,.73,2.13,.43,.63,1.01,1.14,1.7,1.48,.69,.33,1.45,.48,2.21,.43h.61c2.79-.4,5.53-1.11,8.18-2.09,2.64-.99,5.17-2.25,7.54-3.78s4.58-3.3,6.57-5.3,3.77-4.2,5.3-6.57c1.53-2.37,2.79-4.9,3.78-7.54,.99-2.64,1.69-5.38,2.09-8.18Z"/><path class="c" d="M228.57,543.64c-.37-.06-.75-.08-1.12-.05-.37,.03-.74,.11-1.1,.24s-.69,.3-1,.51c-.31,.21-.59,.47-.83,.75-.24,.29-.45,.6-.61,.94s-.28,.7-.35,1.07c-.59,3.41-1.53,6.76-2.8,9.98-1.27,3.22-2.87,6.31-4.77,9.2-1.9,2.9-4.09,5.59-6.54,8.04s-5.14,4.64-8.04,6.55-5.98,3.5-9.2,4.78c-3.22,1.28-6.56,2.22-9.98,2.81-.76,.06-1.49,.33-2.12,.76-.63,.44-1.13,1.03-1.45,1.72-.33,.69-.46,1.46-.4,2.22s.33,1.49,.76,2.12,1.03,1.13,1.72,1.45,1.46,.46,2.22,.4c.04,0,.08,0,.12,0,.04,0,.08,0,.12,0s.08,0,.12,0,.08,0,.12,0,.08,0,.12,0c.04,0,.08,0,.12,0,4-.7,7.92-1.8,11.7-3.3s7.39-3.38,10.78-5.61c3.39-2.23,6.55-4.81,9.42-7.69,2.87-2.88,5.43-6.04,7.66-9.44,2.22-3.4,4.09-7.02,5.57-10.8s2.58-7.7,3.26-11.71c.06-.37,.07-.75,.03-1.12-.04-.37-.12-.74-.26-1.09-.13-.35-.31-.68-.53-.99-.22-.31-.48-.58-.76-.82-.29-.24-.61-.44-.95-.6-.34-.16-.7-.27-1.07-.33Z"/><path class="c" d="M204.42,483.59c.55-7.62-.57-15.27-3.28-22.42-2.71-7.15-6.94-13.62-12.41-18.96-5.46-5.34-12.03-9.43-19.23-11.98s-14.88-3.49-22.49-2.77-14.97,3.09-21.57,6.95-12.28,9.1-16.64,15.38c-.45,.63-.73,1.36-.81,2.13-.07,.77,.06,1.55,.39,2.25,.33,.7,.84,1.3,1.47,1.74s1.38,.7,2.15,.75c.77,.05,1.54-.1,2.24-.44,.69-.35,1.28-.87,1.7-1.52,1.21-1.75,2.54-3.41,3.99-4.96,1.45-1.55,3.01-3,4.68-4.33,1.66-1.33,3.42-2.53,5.26-3.59,1.84-1.07,3.75-2,5.73-2.78,1.98-.79,4.01-1.43,6.08-1.91,2.07-.49,4.17-.82,6.29-1,6.58-.61,13.21,.27,19.4,2.58,6.19,2.31,11.77,5.99,16.34,10.77,4.56,4.78,7.99,10.52,10.02,16.81s2.61,12.95,1.7,19.49c-.91,6.54-3.29,12.8-6.95,18.29-3.67,5.49-8.53,10.09-14.22,13.44-1.51,.87-2.97,1.81-4.4,2.81-1.42,1-2.8,2.06-4.14,3.18-1.33,1.12-2.61,2.3-3.84,3.53s-2.4,2.52-3.52,3.85c-1.12,1.34-2.17,2.72-3.17,4.15s-1.93,2.9-2.8,4.41l-.14,.24c-.31,.57-.61,1.15-.89,1.73s-.56,1.17-.82,1.77c-.26,.59-.51,1.19-.75,1.8s-.46,1.21-.67,1.83-.41,1.23-.6,1.85c-.19,.62-.36,1.25-.52,1.88-.35,1.29-.84,2.53-1.46,3.71-.63,1.18-1.38,2.28-2.25,3.29-.87,1.01-1.85,1.91-2.93,2.7-1.07,.79-2.24,1.45-3.46,1.98-1.22,.53-2.5,.92-3.81,1.16-1.31,.24-2.64,.33-3.98,.28-.92-.04-1.83-.16-2.74-.34-.9-.18-1.79-.44-2.65-.76-.86-.32-1.7-.71-2.5-1.15-.8-.45-1.57-.96-2.3-1.52s-1.41-1.19-2.04-1.86c-.63-.67-1.21-1.39-1.73-2.15-.45-.57-1.04-1.02-1.71-1.31-.67-.29-1.4-.4-2.13-.32s-1.42,.33-2.02,.74c-.6,.41-1.09,.97-1.42,1.63s-.48,1.38-.46,2.11c.03,.73,.24,1.44,.61,2.07,.78,1.13,1.64,2.19,2.58,3.19,.94,1,1.96,1.92,3.04,2.76,1.08,.84,2.23,1.59,3.43,2.26,1.2,.66,2.45,1.23,3.73,1.7s2.61,.84,3.95,1.11,2.7,.43,4.07,.49h1.04c1.92,0,3.83-.2,5.7-.61,1.87-.41,3.69-1.03,5.43-1.83,1.74-.81,3.38-1.8,4.91-2.96,1.52-1.16,2.92-2.49,4.15-3.95,1.24-1.46,2.31-3.06,3.2-4.76,.89-1.7,1.59-3.49,2.1-5.34,.13-.52,.27-1.03,.42-1.54s.31-1.02,.49-1.52,.36-1,.55-1.5c.19-.5,.4-.99,.61-1.47,.21-.49,.44-.97,.67-1.45s.48-.95,.73-1.42l.14-.24c.74-1.29,1.54-2.54,2.4-3.76,.85-1.22,1.76-2.4,2.71-3.54,.96-1.14,1.96-2.24,3.01-3.29,1.05-1.05,2.15-2.06,3.29-3.01,1.14-.96,2.32-1.86,3.54-2.71,1.22-.85,2.47-1.65,3.76-2.4,2.43-1.43,4.74-3.05,6.9-4.85,2.17-1.8,4.19-3.77,6.04-5.89,1.85-2.12,3.53-4.39,5.02-6.78,1.49-2.39,2.78-4.9,3.87-7.5,1.09-2.6,1.96-5.28,2.62-8.02,.66-2.74,1.09-5.53,1.3-8.33Z"/><path class="c" d="M133.71,499.61l-14.82,9c-.66,.39-1.21,.95-1.59,1.62-.38,.67-.57,1.43-.55,2.2,.01,.77,.23,1.52,.63,2.18,.4,.66,.97,1.2,1.64,1.56,.68,.37,1.44,.54,2.21,.52,.77-.03,1.52-.26,2.17-.67l14.87-9.01c2.11-1.28,3.91-3.02,5.26-5.09,1.35-2.07,2.22-4.41,2.55-6.86,.33-2.45,.11-4.94-.65-7.29-.76-2.35-2.03-4.5-3.72-6.3s-3.77-3.19-6.07-4.08-4.77-1.26-7.24-1.07c.05-.17,.1-.34,.15-.52,.05-.17,.11-.34,.17-.51,.06-.17,.12-.34,.18-.51s.13-.33,.2-.5c.07-.17,.14-.33,.21-.49s.15-.33,.22-.49c.61-1.31,1.34-2.56,2.17-3.75,.83-1.18,1.76-2.3,2.77-3.32,1.02-1.03,2.12-1.96,3.3-2.8,1.18-.84,2.43-1.57,3.73-2.2,1.3-.62,2.66-1.14,4.05-1.53,1.39-.39,2.81-.67,4.25-.82h.23c3.16-.32,6.34,.09,9.32,1.19s5.67,2.86,7.86,5.15c2.2,2.29,3.85,5.05,4.82,8.07,.98,3.02,1.25,6.22,.81,9.36-.44,3.14-1.59,6.14-3.37,8.77-1.77,2.63-4.12,4.83-6.86,6.42-14.15,8.37-23.59,19.24-28.12,32.28-.25,.72-.31,1.49-.17,2.24,.14,.75,.48,1.45,.97,2.02,.5,.58,1.13,1.02,1.85,1.27,.72,.25,1.49,.31,2.24,.17,.75-.14,1.45-.48,2.02-.97,.58-.5,1.01-1.13,1.27-1.85,3.88-11.22,11.86-20.27,24.27-27.74,3.83-2.27,7.11-5.37,9.58-9.07s4.07-7.92,4.69-12.33,.23-8.9-1.13-13.15c-1.36-4.24-3.66-8.12-6.72-11.35-3.07-3.23-6.82-5.73-10.98-7.31-4.16-1.58-8.63-2.2-13.07-1.82h-.24c-1.94,.19-3.86,.55-5.73,1.08-1.88,.52-3.7,1.2-5.46,2.04-1.76,.84-3.44,1.82-5.04,2.94-1.59,1.12-3.08,2.38-4.46,3.76s-2.63,2.87-3.75,4.47-2.1,3.28-2.93,5.04c-.32,.67-.61,1.35-.87,2.05-.26,.69-.5,1.4-.71,2.11-.21,.71-.38,1.43-.53,2.16-.15,.73-.27,1.46-.36,2.2-.09,.74-.15,1.48-.18,2.22-.03,.74-.03,1.48,0,2.23,.03,.5,.14,.98,.34,1.44s.47,.88,.8,1.24c.34,.37,.73,.67,1.17,.9,.44,.23,.92,.39,1.41,.46,.49,.07,.99,.06,1.48-.04s.95-.28,1.38-.54c1.19-.71,2.55-1.09,3.94-1.11s2.76,.33,3.97,1.01c1.21,.68,2.22,1.67,2.93,2.86,.71,1.19,1.09,2.55,1.11,3.94,.02,1.39-.33,2.76-1.01,3.97-.68,1.21-1.67,2.22-2.86,2.93Z"/><path class="c" d="M642.43,273.81c-1.43-11.29-11.29-19.58-23.87-19.58-7,0-14.01,2.43-20.01,7.15-6-4.72-13.01-7.15-20.01-7.15-12.29,0-22.01,7.86-23.87,18.72-9.43-4.15-16.44-8.58-20.73-11.58,7.15-7.86,23.87-23.87,42.88-28.02,1.72,0,6.15,2.72,9,4.29,4.72,2.86,8.86,5.15,12.72,5.15s8-2.43,12.58-5.29c2.43-1.43,7-4.29,8.29-4.29,19.3,3.72,36.88,19.58,44.02,26.73-4,3.57-11.01,9.15-21.01,13.86Zm-10.72,26.73c0,18.58-14.87,33.59-33.45,33.59s-33.59-15.01-33.59-33.59v-23.58c0-8.29,7-12.01,13.58-12.01,5.72,0,11.58,2.72,16.29,7.43v23.01c0,2,1.86,3.72,3.86,3.72s3.86-1.72,3.86-3.72v-23.01c4.72-4.72,10.43-7.43,16.29-7.43,6.58,0,13.15,3.72,13.15,12.01v23.58Zm43.31-43.88c-1-1.29-24.73-28.59-53.46-34.16-.57-.14-1.29-.14-1.86-.14-4.57,0-9.43,3.14-14.15,6-2.29,1.43-5.72,3.72-6.86,3.72-1.29-.14-5.15-2.43-7.43-3.72-4.72-2.86-9.86-5.72-14.44-5.72-.86,0-1.43,0-2.29,.14-28.73,6.15-51.74,34.73-52.6,36.02-1.86,2.29-1.43,5.57,.57,7.43,.86,.57,12.58,10.43,31.73,18.3v16.29c0,24.44,19.72,44.31,44.31,44.31s44.31-19.72,44.31-44.31v-15.29c20.15-8.58,31.45-21.01,32.16-21.58,1.72-2.14,1.72-5.15,0-7.29Z"/><path class="c" d="M614.13,297.25c-2.86,4.57-5.15,9.29-5.15,10.86,0,2.86,2.29,5.15,5.15,5.15s5.15-2.29,5.15-5.15c0-1.57-2.43-6.29-5.15-10.86Zm0,21.87c-6,0-10.72-5-10.72-10.72,0-5,6.57-14.87,8.43-17.72,1-1.43,3.43-1.43,4.57,0,2,2.86,8.43,12.72,8.43,17.72,0,5.72-4.72,10.72-10.72,10.72Z"/><path class="c" d="M301.27,79.74c-.98,0-2.1-.42-2.8-1.12-1.68-1.54-1.82-4.2-.28-5.88,4.06-4.48,8.68-8.26,13.86-11.48,1.96-1.26,4.62-.56,5.74,1.4,1.26,1.96,.56,4.62-1.4,5.74-4.48,2.8-8.54,6.02-12.04,9.94-.84,.84-1.96,1.4-3.08,1.4Z"/><path class="c" d="M286.01,130.85c-1.96,0-3.78-1.4-4.2-3.5-.56-3.5-.84-7.14-.84-10.64,0-7.98,1.4-15.82,4.2-23.11,.84-2.1,3.22-3.22,5.46-2.38,2.1,.84,3.22,3.22,2.38,5.46-2.52,6.44-3.64,13.16-3.64,20.17,0,3.08,.28,6.3,.7,9.38,.42,2.24-1.12,4.48-3.5,4.9-.14-.42-.28-.28-.56-.28Z"/><path class="c" d="M404.06,138.28c-.42,0-.84,0-1.26-.14-2.24-.7-3.5-2.94-2.8-5.18,.84-2.94,1.54-5.88,1.96-8.96,.28-2.24,2.38-3.92,4.76-3.64,2.24,.28,3.92,2.38,3.64,4.76-.42,3.5-1.12,7-2.24,10.36-.56,1.68-2.24,2.8-4.06,2.8Z"/><path class="c" d="M406.16,112.93c-2.1,0-3.92-1.54-4.2-3.64-3.64-28.01-27.73-49.15-56.01-49.15-4.48,0-8.82,.56-13.16,1.54-2.24,.42-4.62-.98-5.04-3.22-.56-2.24,.84-4.48,3.08-5.04,4.9-1.12,9.94-1.82,15.12-1.82,32.49,0,60.22,24.23,64.42,56.43,.28,2.24-1.26,4.34-3.64,4.76-.28,.14-.42,.14-.56,.14Z"/><path class="c" d="M380.67,171.46c-.7,0-1.4-.14-2.1-.56-1.96-1.12-2.66-3.78-1.54-5.74,.14-.14,10.36-18.34,10.36-48.59,0-7.56-1.96-14.84-5.74-21.29-1.12-1.96-.56-4.62,1.54-5.74,1.96-1.12,4.62-.56,5.74,1.54,4.48,7.7,6.86,16.38,6.86,25.49,0,32.63-11.06,51.95-11.62,52.79-.56,1.4-1.96,2.1-3.5,2.1Z"/><path class="c" d="M300.15,120.77c-2.38,0-4.2-1.82-4.2-4.2,0-28.01,21.99-49.99,49.99-49.99,8.82,0,17.64,2.24,25.21,6.72,1.96,1.12,2.66,3.78,1.54,5.74-1.12,1.96-3.78,2.66-5.74,1.54-6.3-3.64-13.58-5.6-21.01-5.6-23.39,0-41.59,18.2-41.59,41.59,0,2.38-1.96,4.2-4.2,4.2Z"/><path class="c" d="M295.39,154.38c-.7,0-1.54-.14-2.24-.7-1.96-1.26-2.52-3.78-1.4-5.74,.14-.28,2.24-4.34,3.36-15.4,.28-2.24,2.24-3.92,4.62-3.78,2.24,.28,3.92,2.24,3.78,4.62-1.4,13.3-4.06,18.06-4.62,18.9-.84,1.4-2.1,2.1-3.5,2.1Z"/><path class="c" d="M361.62,179.45c-.84,0-1.68-.28-2.52-.84-1.82-1.4-2.24-3.92-.98-5.88,.14-.14,12.46-17.92,14-49.57,.14-2.38,2.1-4.2,4.34-4.06,2.38,.14,4.06,2.1,4.06,4.34-1.54,34.59-14.98,53.49-15.54,54.33-.84,1.12-2.1,1.68-3.36,1.68Z"/><path class="c" d="M375.35,112.23c-1.82,0-3.5-1.26-4.06-3.08-3.22-11.34-13.44-19.04-25.49-19.04-7.56,0-14.42,2.8-19.32,7.98-1.54,1.68-4.2,1.68-5.88,.14-1.68-1.54-1.68-4.2-.14-5.88,6.58-6.86,15.54-10.64,25.35-10.64,15.82,0,29.27,10.08,33.61,25.21,.7,2.24-.7,4.62-2.94,5.18-.28,.14-.7,.14-1.12,.14Z"/><path class="c" d="M306.31,166.7c-.7,0-1.4-.14-2.1-.56-1.96-1.12-2.66-3.78-1.54-5.74,.14-.14,8.4-15.12,8.4-43.83,0-2.52,.28-4.9,.7-7.28,.42-2.24,2.66-3.78,4.9-3.36,2.24,.42,3.78,2.66,3.36,4.9-.42,1.82-.56,3.78-.56,5.6,0,31.23-9.1,47.47-9.52,48.03-.84,1.54-2.24,2.24-3.64,2.24Z"/><path class="c" d="M345.24,181.97c-.84,0-1.54-.28-2.38-.7-1.96-1.26-2.52-3.92-1.12-5.88,.14-.14,8.68-13.44,13.16-34.31,.42-2.24,2.66-3.78,5.04-3.22,2.24,.42,3.78,2.66,3.22,5.04-4.76,22.55-14,36.55-14.42,37.11-.7,1.26-2.1,1.96-3.5,1.96Z"/><path class="c" d="M317.51,174.97c-.84,0-1.68-.28-2.52-.84-1.82-1.4-2.24-3.92-.98-5.88,.14-.28,11.9-17.08,11.9-51.67,0-11.2,8.82-19.89,19.89-19.89s20.03,8.96,20.03,19.89c0,4.2-.28,8.54-.7,12.88-.28,2.24-2.38,3.92-4.62,3.78-2.24-.28-3.92-2.24-3.78-4.62,.42-3.92,.56-7.98,.56-12.04,0-6.3-5.18-11.48-11.62-11.48s-11.48,5.04-11.48,11.48c0,37.67-12.88,55.87-13.44,56.57-.7,1.12-1.96,1.82-3.22,1.82Z"/><path class="c" d="M330.96,179.59c-.84,0-1.54-.28-2.24-.7-1.96-1.26-2.52-3.92-1.26-5.74,0,0,1.54-2.38,3.5-6.72,.98-2.1,3.5-2.94,5.6-1.96,2.1,.98,2.94,3.5,1.96,5.6-2.24,4.9-4.06,7.56-4.06,7.7-.7,1.26-2.1,1.82-3.5,1.82Z"/><path class="c" d="M340.2,159c-.7,0-1.26-.14-1.96-.42-2.1-.98-2.94-3.64-1.82-5.6,0-.14,5.6-11.62,5.6-36.41,0-2.38,1.82-4.2,4.2-4.2s4.2,1.82,4.2,4.2c0,26.89-6.3,39.63-6.58,40.19-.7,1.4-2.1,2.24-3.64,2.24Z"/></svg>